<svg width="97" height="103" viewBox="0 0 97 103" version="1.1" xmlns="http://www.w3.org/2000/svg" xmlns:xlink="http://www.w3.org/1999/xlink">
<title>bodyboard_icon</title>
<desc>Created using Figma</desc>
<g id="Canvas" transform="translate(1244 1483)">
<g id="bodyboard_icon">
<g id="Ellipse 4">
<use xlink:href="#path0_fill" transform="translate(-1244 -1477.62)" fill="#EFF8FF"/>
</g>
<g id="Vector">
<use xlink:href="#path1_stroke" transform="translate(-1233.31 -1418.43)" fill="#1078FF"/>
</g>
<g id="Vector">
<use xlink:href="#path1_stroke" transform="translate(-1210.39 -1418.43)" fill="#1078FF"/>
</g>
<g id="Group">
<g id="Vector">
<use xlink:href="#path2_stroke" transform="translate(-1205.81 -1393.07)" fill="#1078FF"/>
</g>
<g id="Vector">
<use xlink:href="#path3_fill" transform="matrix(-1 0 0 1 -1170.68 -1483)" fill="#FFFFFF"/>
<mask id="mask0_outline_ins">
<use xlink:href="#path3_fill" fill="white" transform="matrix(-1 0 0 1 -1170.68 -1483)"/>
</mask>
<g mask="url(#mask0_outline_ins)">
<use xlink:href="#path4_stroke_2x" transform="matrix(-1 0 0 1 -1170.68 -1483)" fill="#1078FF"/>
</g>
</g>
<g id="Vector 2">
<use xlink:href="#path5_fill" transform="translate(-1206.22 -1481.08)" fill="#CCE7FF"/>
</g>
<g id="Vector">
<use xlink:href="#path6_stroke" transform="matrix(0.795573 0.605858 -0.600975 0.799268 -1189.6 -1476.08)" fill="#1078FF"/>
</g>
<g id="Vector 3">
<use xlink:href="#path7_fill" transform="translate(-1214.98 -1471.47)" fill="#1078FF"/>
<use xlink:href="#path8_stroke" transform="translate(-1214.98 -1471.47)" fill="#1078FF"/>
</g>
<g id="Vector">
<use xlink:href="#path9_stroke" transform="translate(-1195.12 -1415.36)" fill="#1078FF"/>
</g>
<g id="Vector">
<use xlink:href="#path9_stroke" transform="translate(-1193.59 -1416.9)" fill="#1078FF"/>
</g>
<g id="Vector">
<use xlink:href="#path9_stroke" transform="translate(-1196.65 -1416.9)" fill="#1078FF"/>
</g>
<g id="Rectangle 26">
<use xlink:href="#path10_fill" transform="translate(-1165.33 -1450.72)" fill="#CCE7FF"/>
<mask id="mask1_outline_ins">
<use xlink:href="#path10_fill" fill="white" transform="translate(-1165.33 -1450.72)"/>
</mask>
<g mask="url(#mask1_outline_ins)">
<use xlink:href="#path11_stroke_2x" transform="translate(-1165.33 -1450.72)" fill="#1078FF"/>
</g>
</g>
<g id="Ellipse 6">
<use xlink:href="#path12_fill" transform="translate(-1195.12 -1473.78)" fill="#1078FF"/>
</g>
</g>
</g>
</g>
<defs>
<path id="path0_fill" d="M 97 48.8096C 97 75.7664 75.2858 97.6192 48.5 97.6192C 21.7142 97.6192 0 75.7664 0 48.8096C 0 21.8528 21.7142 0 48.5 0C 75.2858 0 97 21.8528 97 48.8096Z"/>
<path id="path1_stroke" d="M -0.714405 4.68085C -1.10086 5.07541 -1.09429 5.70854 -0.699733 6.09499C -0.305178 6.48144 0.327953 6.47487 0.714405 6.08032L -0.714405 4.68085ZM 5.27008 0L 5.98448 -0.699733C 5.79639 -0.891774 5.53889 -1 5.27008 -1C 5.00127 -1 4.74377 -0.891774 4.55567 -0.699733L 5.27008 0ZM 10.5402 5.38058L 9.82575 6.08032C 10.0139 6.27236 10.2713 6.38058 10.5402 6.38058C 10.809 6.38058 11.0665 6.27236 11.2546 6.08032L 10.5402 5.38058ZM 15.8102 0L 16.5246 -0.699733C 16.3365 -0.891774 16.0791 -1 15.8102 -1C 15.5414 -1 15.2839 -0.891774 15.0958 -0.699733L 15.8102 0ZM 21.0803 5.38058L 20.3659 6.08032C 20.554 6.27236 20.8115 6.38058 21.0803 6.38058C 21.3491 6.38058 21.6066 6.27236 21.7947 6.08032L 21.0803 5.38058ZM 26.3504 0L 27.0648 -0.699733C 26.8767 -0.891774 26.6192 -1 26.3504 -1C 26.0816 -1 25.8241 -0.891774 25.636 -0.699733L 26.3504 0ZM 31.6205 5.38058L 30.9061 6.08032C 31.0942 6.27236 31.3517 6.38058 31.6205 6.38058C 31.8893 6.38058 32.1468 6.27236 32.3349 6.08032L 31.6205 5.38058ZM 36.8906 0L 37.605 -0.699733C 37.4169 -0.891774 37.1594 -1 36.8906 -1C 36.6217 -1 36.3642 -0.891774 36.1761 -0.699733L 36.8906 0ZM 42.1606 5.38058L 41.4462 6.08032C 41.6343 6.27236 41.8918 6.38058 42.1606 6.38058C 42.4294 6.38058 42.6869 6.27236 42.875 6.08032L 42.1606 5.38058ZM 47.4307 0L 48.1451 -0.699733C 47.957 -0.891774 47.6995 -1 47.4307 -1C 47.1619 -1 46.9044 -0.891774 46.7163 -0.699733L 47.4307 0ZM 51.9864 6.08032C 52.3728 6.47487 53.006 6.48144 53.4005 6.09499C 53.7951 5.70854 53.8016 5.07541 53.4152 4.68085L 51.9864 6.08032ZM 0.714405 6.08032L 5.98448 0.699733L 4.55567 -0.699733L -0.714405 4.68085L 0.714405 6.08032ZM 4.55567 0.699733L 9.82575 6.08032L 11.2546 4.68085L 5.98448 -0.699733L 4.55567 0.699733ZM 11.2546 6.08032L 16.5246 0.699733L 15.0958 -0.699733L 9.82575 4.68085L 11.2546 6.08032ZM 15.0958 0.699733L 20.3659 6.08032L 21.7947 4.68085L 16.5246 -0.699733L 15.0958 0.699733ZM 21.7947 6.08032L 27.0648 0.699733L 25.636 -0.699733L 20.3659 4.68085L 21.7947 6.08032ZM 25.636 0.699733L 30.9061 6.08032L 32.3349 4.68085L 27.0648 -0.699733L 25.636 0.699733ZM 32.3349 6.08032L 37.605 0.699733L 36.1761 -0.699733L 30.9061 4.68085L 32.3349 6.08032ZM 36.1761 0.699733L 41.4462 6.08032L 42.875 4.68085L 37.605 -0.699733L 36.1761 0.699733ZM 42.875 6.08032L 48.1451 0.699733L 46.7163 -0.699733L 41.4462 4.68085L 42.875 6.08032ZM 46.7163 0.699733L 51.9864 6.08032L 53.4152 4.68085L 48.1451 -0.699733L 46.7163 0.699733Z"/>
<path id="path2_stroke" d="M -0.348852 1.94777C -0.546676 2.14044 -0.550859 2.45699 -0.358193 2.65482C -0.165528 2.85264 0.151027 2.85682 0.348852 2.66416L -0.348852 1.94777ZM 2.36772 0L 2.71657 -0.358193C 2.52243 -0.547269 2.213 -0.547269 2.01887 -0.358193L 2.36772 0ZM 4.73543 2.30596L 4.38658 2.66416C 4.58072 2.85323 4.89015 2.85323 5.08428 2.66416L 4.73543 2.30596ZM 7.10315 0L 7.452 -0.358193C 7.25786 -0.547269 6.94844 -0.547269 6.7543 -0.358194L 7.10315 0ZM 9.47087 2.30596L 9.12201 2.66416C 9.31615 2.85323 9.62558 2.85323 9.81972 2.66416L 9.47087 2.30596ZM 11.8386 0L 12.1874 -0.358194C 11.9933 -0.547269 11.6839 -0.547269 11.4897 -0.358193L 11.8386 0ZM 14.2063 2.30596L 13.8574 2.66416C 14.0516 2.85323 14.361 2.85323 14.5552 2.66416L 14.2063 2.30596ZM 16.574 0L 16.9229 -0.358194C 16.7287 -0.547269 16.4193 -0.547269 16.2252 -0.358193L 16.574 0ZM 18.9417 2.30596L 18.5929 2.66416C 18.787 2.85323 19.0964 2.85323 19.2906 2.66416L 18.9417 2.30596ZM 21.3094 0L 21.6583 -0.358194C 21.4642 -0.547269 21.1547 -0.547269 20.9606 -0.358193L 21.3094 0ZM 23.3283 2.66416C 23.5261 2.85682 23.8427 2.85264 24.0354 2.65482C 24.228 2.45699 24.2238 2.14044 24.026 1.94777L 23.3283 2.66416ZM 0.348852 2.66416L 2.71657 0.358193L 2.01887 -0.358193L -0.348852 1.94777L 0.348852 2.66416ZM 2.01887 0.358193L 4.38658 2.66416L 5.08428 1.94777L 2.71657 -0.358193L 2.01887 0.358193ZM 5.08428 2.66416L 7.452 0.358194L 6.7543 -0.358194L 4.38658 1.94777L 5.08428 2.66416ZM 6.7543 0.358193L 9.12201 2.66416L 9.81972 1.94777L 7.452 -0.358193L 6.7543 0.358193ZM 9.81972 2.66416L 12.1874 0.358193L 11.4897 -0.358193L 9.12201 1.94777L 9.81972 2.66416ZM 11.4897 0.358194L 13.8574 2.66416L 14.5552 1.94777L 12.1874 -0.358194L 11.4897 0.358194ZM 14.5552 2.66416L 16.9229 0.358193L 16.2252 -0.358193L 13.8574 1.94777L 14.5552 2.66416ZM 16.2252 0.358194L 18.5929 2.66416L 19.2906 1.94777L 16.9229 -0.358194L 16.2252 0.358194ZM 19.2906 2.66416L 21.6583 0.358193L 20.9606 -0.358193L 18.5929 1.94777L 19.2906 2.66416ZM 20.9606 0.358194L 23.3283 2.66416L 24.026 1.94777L 21.6583 -0.358194L 20.9606 0.358194Z"/>
<path id="path3_fill" d="M 38.1398 1.79659C 39.9306 4.02449 41.4368 6.58733 42.6977 9.33447C 43.2873 10.6531 44.4361 13.794 44.4246 13.7696C 46.3092 19.587 47.1831 26.2352 47.3543 33.6197C 47.1498 51.5847 45.9616 68.6682 44.1273 85.1052L 38.9749 85.135C 36.3524 83.9459 30.2372 82.3211 27.4409 82.1236C 24.6334 81.9395 21.0237 82.1818 21.0237 82.1818C 16.4606 82.5616 12.3175 83.684 8.89073 85.3031L 3.75661 85.3207C 1.74719 69.1158 0.305286 52.2446 0.00883218 34.4146C -0.0892624 27.6266 0.630821 21.4095 2.11591 16.0044C 3.85514 9.69251 6.44357 4.12953 10.6335 0.0697782C 11.4466 0.0855626 36.3862 9.96626e-09 36.3862 9.96626e-09C 36.9563 0.598937 37.617 1.13125 38.1398 1.79659Z"/>
<path id="path4_stroke_2x" d="M 38.1398 1.79659L 35.781 3.65015L 35.7912 3.66318L 35.8016 3.67609L 38.1398 1.79659ZM 42.6977 9.33447L 45.4363 8.1098L 45.4303 8.09639L 45.4242 8.08304L 42.6977 9.33447ZM 44.4246 13.7696L 47.1379 12.4897L 41.5706 14.6941L 44.4246 13.7696ZM 47.3543 33.6197L 50.3541 33.6539L 50.3547 33.602L 50.3535 33.5502L 47.3543 33.6197ZM 44.1273 85.1052L 44.1447 88.1051L 46.8129 88.0897L 47.1088 85.4379L 44.1273 85.1052ZM 38.9749 85.135L 37.7361 87.8673L 38.3349 88.1387L 38.9923 88.1349L 38.9749 85.135ZM 27.4409 82.1236L 27.6524 79.131L 27.6448 79.1305L 27.6372 79.13L 27.4409 82.1236ZM 21.0237 82.1818L 20.8228 79.1885L 20.7988 79.1901L 20.7749 79.1921L 21.0237 82.1818ZM 8.89073 85.3031L 8.90104 88.3031L 9.56865 88.3008L 10.1723 88.0156L 8.89073 85.3031ZM 3.75661 85.3207L 0.779411 85.6899L 1.10677 88.3298L 3.76691 88.3207L 3.75661 85.3207ZM 0.00883218 34.4146L -2.99086 34.458L -2.99075 34.4645L 0.00883218 34.4146ZM 2.11591 16.0044L -0.7763 15.2075L -0.77688 15.2096L 2.11591 16.0044ZM 10.6335 0.0697782L 10.6918 -2.92966L 9.44298 -2.9539L 8.54596 -2.08476L 10.6335 0.0697782ZM 36.3862 9.96626e-09L 38.5591 -2.0684L 37.6682 -3.00442L 36.3759 -2.99998L 36.3862 9.96626e-09ZM 35.8016 3.67609C 37.4617 5.72875 38.7769 7.97482 39.9711 10.5859L 45.4242 8.08304C 44.0966 5.19984 42.3995 2.32022 40.4781 -0.0828972L 35.8016 3.67609ZM 39.959 10.5591C 40.2248 11.1513 40.6272 12.1858 40.9818 13.1203C 41.1585 13.5857 41.315 14.0053 41.429 14.3133C 41.4854 14.4659 41.5295 14.586 41.5601 14.6695C 41.5749 14.7101 41.5847 14.7372 41.5914 14.7557C 41.5941 14.7631 41.5919 14.757 41.5926 14.7588C 41.5943 14.7639 41.5715 14.697 41.5771 14.7136C 41.5842 14.7353 41.5047 14.4652 41.5236 14.5336C 41.5118 14.4872 41.4806 14.3459 41.4635 14.2506C 41.4309 13.9619 42.2246 11.7302 44.0999 10.7874C 45.5735 10.9984 46.8993 12.0738 47.0204 12.2655C 47.0612 12.3383 47.1192 12.4508 47.1379 12.4897L 41.7113 15.0495C 41.7301 15.0884 41.7882 15.201 41.829 15.2738C 41.95 15.4656 43.276 16.5411 44.7496 16.7521C 46.6248 15.8092 47.4186 13.5775 47.3859 13.2888C 47.3688 13.1934 47.3376 13.052 47.3258 13.0056C 47.3068 12.9368 47.279 12.846 47.2715 12.8232C 47.2652 12.8043 47.2558 12.7769 47.2522 12.7666C 47.2478 12.7543 47.2411 12.7354 47.2358 12.7209C 47.2266 12.6953 47.2124 12.6562 47.1958 12.6107C 47.1633 12.5219 47.115 12.3903 47.0562 12.2313C 46.9395 11.916 46.7741 11.4726 46.5913 10.991C 46.2271 10.0315 45.7602 8.83628 45.4363 8.1098L 39.959 10.5591ZM 41.5706 14.6941C 43.3828 20.2475 44.192 26.4658 44.3551 33.6893L 50.3535 33.5502C 50.1742 26.0046 49.2355 18.9264 47.2786 12.845L 41.5706 14.6941ZM 44.3545 33.5856C 44.1522 51.4635 42.9738 68.3978 41.1458 84.7725L 47.1088 85.4379C 48.9494 68.9387 50.1473 51.7059 50.3541 33.6539L 44.3545 33.5856ZM 44.1099 82.1052L 38.9576 82.135L 38.9923 88.1349L 44.1447 88.1051L 44.1099 82.1052ZM 40.2138 82.4027C 37.3002 81.0817 30.8385 79.3561 27.6524 79.131L 27.2295 85.1161C 29.6358 85.2861 35.4047 86.8102 37.7361 87.8673L 40.2138 82.4027ZM 27.6372 79.13C 26.1217 79.0327 24.3743 79.0466 23.0896 79.085C 22.4397 79.1046 21.8679 79.1305 21.4761 79.1508C 21.2766 79.1612 21.1123 79.1706 21.0042 79.1771C 20.9485 79.1805 20.9029 79.1833 20.874 79.1852C 20.8588 79.1862 20.8459 79.187 20.8382 79.1875C 20.8339 79.1878 20.83 79.188 20.8279 79.1882C 20.8266 79.1883 20.8253 79.1883 20.8247 79.1884C 20.8243 79.1884 20.8238 79.1885 20.8236 79.1885C 20.8234 79.1885 20.8232 79.1885 20.8232 79.1885C 20.823 79.1885 20.8228 79.1885 21.0237 82.1818C 21.2247 85.175 21.2245 85.1751 21.2244 85.1751C 21.2244 85.1751 21.2243 85.1751 21.2242 85.1751C 21.2242 85.1751 21.2241 85.1751 21.2241 85.1751C 21.2244 85.1751 21.2244 85.1751 21.2249 85.175C 21.2262 85.1749 21.2276 85.1749 21.2302 85.1747C 21.2363 85.1743 21.2441 85.1738 21.2559 85.173C 21.2813 85.1714 21.316 85.1692 21.3644 85.1663C 21.4648 85.1603 21.6044 85.1522 21.7871 85.1428C 22.1599 85.1234 22.666 85.1003 23.2694 85.0823C 24.4914 85.0455 25.9526 85.0303 27.2446 85.1171L 27.6372 79.13ZM 20.7749 79.1921C 15.9418 79.6068 11.2805 80.869 7.60917 82.5906L 10.1723 88.0156C 13.3546 86.4991 16.9794 85.5164 21.2726 85.1714L 20.7749 79.1921ZM 8.88043 82.3031L 3.74631 82.3207L 3.76691 88.3207L 8.90104 88.3031L 8.88043 82.3031ZM 6.73381 84.9515C 4.73088 68.8034 3.30139 52.0918 3.00842 34.3647L -2.99075 34.4645C -2.69082 52.3974 -1.2365 69.4281 0.779411 85.6899L 6.73381 84.9515ZM 3.00852 34.3713C 2.90692 27.7778 3.57585 21.9811 5.00871 16.7993L -0.77688 15.2096C -2.31421 20.8378 -3.08545 27.4753 -2.99085 34.458L 3.00852 34.3713ZM 5.00812 16.8014C 6.671 10.7274 8.8881 5.86859 12.7211 2.22431L 8.54596 -2.08476C 3.99905 2.39048 1.03928 8.65765 -0.7763 15.2075L 5.00812 16.8014ZM 10.5753 3.06921C 11.015 3.07757 17.4869 3.06021 23.824 3.04079C 26.9925 3.03108 30.1357 3.02088 32.4866 3.01311C 33.6621 3.00922 34.6395 3.00594 35.3231 3.00363C 35.6649 3.00247 35.9332 3.00156 36.1161 3.00094C 36.2076 3.00063 36.2777 3.00039 36.3249 3.00023C 36.3485 3.00015 36.3664 3.00009 36.3784 3.00004C 36.3844 3.00002 36.3889 3.00001 36.3919 3C 36.3934 2.99999 36.3946 2.99999 36.3953 2.99999C 36.3957 2.99998 36.396 2.99998 36.3962 2.99998C 36.3964 2.99998 36.3965 2.99998 36.3862 9.96626e-09C 36.3759 -2.99998 36.3758 -2.99998 36.3756 -2.99998C 36.3754 -2.99998 36.3751 -2.99998 36.3748 -2.99998C 36.374 -2.99998 36.3729 -2.99997 36.3714 -2.99997C 36.3683 -2.99996 36.3638 -2.99994 36.3578 -2.99992C 36.3458 -2.99988 36.328 -2.99982 36.3044 -2.99974C 36.2572 -2.99958 36.1871 -2.99934 36.0957 -2.99903C 35.9128 -2.9984 35.6446 -2.99749 35.3028 -2.99634C 34.6193 -2.99403 33.6421 -2.99075 32.4668 -2.98686C 30.1161 -2.97909 26.9736 -2.96889 23.8056 -2.95918C 20.6376 -2.94947 17.445 -2.94026 14.9933 -2.93446C 13.7677 -2.93156 12.7287 -2.92951 11.9703 -2.92869C 11.2134 -2.92786 10.618 -2.93122 10.6918 -2.92966L 10.5753 3.06921ZM 34.2132 2.0684C 34.9244 2.80601 35.4828 3.23963 35.781 3.65015L 40.4987 -0.0569611C 39.7512 -0.977121 38.9883 -1.60814 38.5591 -2.0684L 34.2132 2.0684Z"/>
<path id="path5_fill" d="M 33.2486 32.2835C 33.6305 43.429 30.5754 81.0931 29.8116 81.0931C 29.5034 81.0931 13.5796 81.0931 7.66203 64.9513C -0.833392 41.7779 0.024199 0.384328 0.024199 0.384328C 0.024199 0.384328 -1.12147 0 23.7014 0C 32.2557 8.9164 32.8667 21.138 33.2486 32.2835Z"/>
<path id="path6_stroke" d="M -0.411289 5.08386C -0.568318 5.31101 -0.511474 5.62244 -0.284326 5.77947C -0.0571766 5.9365 0.254261 5.87966 0.411289 5.65251L -0.411289 5.08386ZM 1.85552 2.68409L 1.44423 2.39977L 1.85552 2.68409ZM 36.6991 5.65251C 36.8561 5.87966 37.1676 5.9365 37.3947 5.77947C 37.6219 5.62244 37.6787 5.31101 37.5217 5.08386L 36.6991 5.65251ZM 35.2549 2.68409L 34.8436 2.96842L 35.2549 2.68409ZM 0.411289 5.65251L 2.26681 2.96842L 1.44423 2.39977L -0.411289 5.08386L 0.411289 5.65251ZM 34.8436 2.96842L 36.6991 5.65251L 37.5217 5.08386L 35.6662 2.39977L 34.8436 2.96842ZM 2.26681 2.96842C 2.96487 1.95864 4.45721 1.95864 5.15527 2.96842L 5.97785 2.39977C 4.8822 0.814856 2.53988 0.814855 1.44423 2.39977L 2.26681 2.96842ZM 5.15527 2.96842C 6.25092 4.55333 8.59324 4.55333 9.68889 2.96842L 8.86631 2.39977C 8.16825 3.40955 6.67591 3.40955 5.97785 2.39977L 5.15527 2.96842ZM 9.68889 2.96842C 10.387 1.95864 11.8793 1.95864 12.5774 2.96842L 13.3999 2.39977C 12.3043 0.814856 9.96196 0.814855 8.86631 2.39977L 9.68889 2.96842ZM 12.5774 2.96842C 13.673 4.55333 16.0153 4.55333 17.111 2.96842L 16.2884 2.39977C 15.5903 3.40955 14.098 3.40955 13.3999 2.39977L 12.5774 2.96842ZM 17.111 2.96842C 17.809 1.95864 19.3014 1.95864 19.9994 2.96842L 20.822 2.39977C 19.7264 0.814856 17.384 0.814855 16.2884 2.39977L 17.111 2.96842ZM 19.9994 2.96842C 21.0951 4.55333 23.4374 4.55333 24.5331 2.96842L 23.7105 2.39977C 23.0124 3.40955 21.5201 3.40955 20.822 2.39977L 19.9994 2.96842ZM 24.5331 2.96842C 25.2311 1.95864 26.7234 1.95864 27.4215 2.96842L 28.2441 2.39977C 27.1484 0.814856 24.8061 0.814855 23.7105 2.39977L 24.5331 2.96842ZM 27.4215 2.96842C 28.5172 4.55333 30.8595 4.55333 31.9551 2.96842L 31.1326 2.39977C 30.4345 3.40955 28.9422 3.40955 28.2441 2.39977L 27.4215 2.96842ZM 31.9551 2.96842C 32.6532 1.95864 34.1455 1.95864 34.8436 2.96842L 35.6662 2.39977C 34.5705 0.814855 32.2282 0.814855 31.1326 2.39977L 31.9551 2.96842Z"/>
<path id="path7_fill" d="M 0.572835 0L 0 2.4597L 1.7185 3.07462L 2.29134 2.4597L 0.572835 0Z"/>
<path id="path8_stroke" d="M 0 2.4597L -0.486969 2.34629L -0.58805 2.78032L -0.168453 2.93047L 0 2.4597ZM 0.572835 0L 0.982708 -0.286364L 0.340286 -1.20586L 0.0858662 -0.113409L 0.572835 0ZM 2.29134 2.4597L 2.65719 2.80051L 2.93274 2.50471L 2.70121 2.17333L 2.29134 2.4597ZM 1.7185 3.07462L 1.55005 3.54539L 1.85998 3.65629L 2.08436 3.41543L 1.7185 3.07462ZM 0.486969 2.57311L 1.0598 0.113409L 0.0858662 -0.113409L -0.486969 2.34629L 0.486969 2.57311ZM 0.162962 0.286364L 1.88147 2.74606L 2.70121 2.17333L 0.982708 -0.286364L 0.162962 0.286364ZM 1.92549 2.11889L 1.35265 2.73381L 2.08436 3.41543L 2.65719 2.80051L 1.92549 2.11889ZM 1.88696 2.60385L 0.168453 1.98893L -0.168453 2.93047L 1.55005 3.54539L 1.88696 2.60385Z"/>
<path id="path9_stroke" d="M -0.5 6.14924C -0.5 6.42538 -0.276142 6.64924 0 6.64924C 0.276142 6.64924 0.5 6.42538 0.5 6.14924L -0.5 6.14924ZM 0.5 0C 0.5 -0.276142 0.276142 -0.5 0 -0.5C -0.276142 -0.5 -0.5 -0.276142 -0.5 0L 0.5 0ZM 0.5 6.14924L 0.5 0L -0.5 0L -0.5 6.14924L 0.5 6.14924Z"/>
<path id="path10_fill" d="M 0 1C 0 0.447715 0.447715 0 1 0L 6.63779 0C 7.19008 0 7.63779 0.447715 7.63779 1L 7.63779 5.14924C 7.63779 5.70152 7.19008 6.14924 6.63779 6.14924L 1 6.14924C 0.447715 6.14924 0 5.70152 0 5.14924L 0 1Z"/>
<path id="path11_stroke_2x" d="M 1 2L 6.63779 2L 6.63779 -2L 1 -2L 1 2ZM 5.63779 1L 5.63779 5.14924L 9.63779 5.14924L 9.63779 1L 5.63779 1ZM 6.63779 4.14924L 1 4.14924L 1 8.14924L 6.63779 8.14924L 6.63779 4.14924ZM 2 5.14924L 2 1L -2 1L -2 5.14924L 2 5.14924ZM 1 -2C -0.656854 -2 -2 -0.656854 -2 1L 2 1C 2 1.55228 1.55228 2 1 2L 1 -2ZM 6.63779 2C 6.08551 2 5.63779 1.55228 5.63779 1L 9.63779 1C 9.63779 -0.656854 8.29465 -2 6.63779 -2L 6.63779 2ZM 5.63779 5.14924C 5.63779 4.59696 6.08551 4.14924 6.63779 4.14924L 6.63779 8.14924C 8.29465 8.14924 9.63779 6.80609 9.63779 5.14924L 5.63779 5.14924ZM 1 4.14924C 1.55228 4.14924 2 4.59696 2 5.14924L -2 5.14924C -2 6.80609 -0.656854 8.14924 1 8.14924L 1 4.14924Z"/>
<path id="path12_fill" d="M 3.8189 1.92164C 3.8189 2.98293 2.96401 3.84327 1.90945 3.84327C 0.854889 3.84327 0 2.98293 0 1.92164C 0 0.860346 0.854889 0 1.90945 0C 2.96401 0 3.8189 0.860346 3.8189 1.92164Z"/>
</defs>
</svg>
