<svg width="39" height="50" viewBox="0 0 39 50" version="1.1" xmlns="http://www.w3.org/2000/svg" xmlns:xlink="http://www.w3.org/1999/xlink">
<title>bus</title>
<desc>Created using Figma</desc>
<g id="Canvas" transform="translate(1723 745)">
<g id="bus">
<use xlink:href="#path0_fill" transform="translate(-1722.49 -744.299)" fill="#FFFFFF"/>
</g>
</g>
<defs>
<path id="path0_fill" d="M 36.404 7.227C 35.8891 4.52305 34.2363 3.44548 31.7463 2.36987C 29.3126 1.30502 23.4599 0.0386418 19.1328 0C 14.7977 0.0386418 8.94495 1.30502 6.4939 2.37036C 4.02176 3.44597 2.36897 4.52354 1.86244 7.22749L 0 22.1501L 0 42.7383L 3.20802 42.7383L 3.20802 45.949C 3.19536 49.8969 8.71654 49.8969 8.71889 45.949L 8.71889 42.7383L 18.9137 42.7383L 18.9391 42.7383L 29.5476 42.7383L 29.5476 45.949C 29.541 49.8969 35.0627 49.8969 35.0585 45.949L 35.0585 42.7383L 38.2665 42.7383L 38.2665 22.1501L 36.404 7.227ZM 11.2544 3.77369L 18.9391 3.77369L 27.0117 3.77369C 28.5528 3.76929 28.5528 6.19443 27.0117 6.20226L 18.9137 6.20226L 11.2544 6.20226C 9.70568 6.19443 9.70568 3.76929 11.2544 3.77369ZM 5.95032 36.2896C 4.49592 36.2822 3.30933 35.0462 3.31121 33.5103C 3.30933 31.9944 4.49592 30.7579 5.95032 30.7579C 7.42114 30.7579 8.60726 31.9944 8.6157 33.5103C 8.60726 35.0462 7.42114 36.2827 5.95032 36.2896ZM 18.9391 23.7143L 4.88989 23.7143C 3.51804 23.728 3.2296 22.6964 3.3642 21.6639L 4.81251 10.8163C 5.01184 9.51029 5.4391 8.64305 7.08908 8.63082L 18.9142 8.63082L 31.1783 8.63082C 32.8189 8.64305 33.2476 9.5098 33.4549 10.8163L 34.9042 21.6639C 35.0289 22.6969 34.7409 23.728 33.3771 23.7143L 18.9391 23.7143ZM 32.2904 36.2896C 30.8364 36.2822 29.6508 35.0462 29.6508 33.5103C 29.6508 31.9944 30.8364 30.7579 32.2904 30.7579C 33.7616 30.7579 34.9482 31.9944 34.9548 33.5103C 34.9482 35.0462 33.7616 36.2827 32.2904 36.2896Z"/>
</defs>
</svg>
