<svg width="47" height="41" viewBox="0 0 47 41" version="1.1" xmlns="http://www.w3.org/2000/svg" xmlns:xlink="http://www.w3.org/1999/xlink">
<title>car</title>
<desc>Created using Figma</desc>
<g id="Canvas" transform="translate(1878 741)">
<g id="car">
<use xlink:href="#path0_fill" transform="translate(-1877.62 -740.049)" fill="#FFFFFF"/>
</g>
</g>
<defs>
<path id="path0_fill" d="M 42.3168 13.4974L 38.5019 3.54132C 37.7884 1.63543 36.2293 0.0136403 33.2787 0L 27.8986 0L 18.7036 0L 13.23 0C 10.2929 0.0136403 8.73376 1.63543 8.00727 3.54132L 4.19143 13.4974C 2.67654 13.6949 -0.00464798 15.494 6.05089e-06 18.9022L 6.05089e-06 31.5788L 3.72277 31.5788L 3.72277 35.6253C 3.71346 40.6139 10.6987 40.5546 10.6968 35.6253L 10.6968 31.5788L 23.2702 31.5788L 35.8118 31.5788L 35.8118 35.6253C 35.8272 40.5546 42.8124 40.6139 42.8171 35.6253L 42.8171 31.5788L 46.5403 31.5788L 46.5403 18.9022C 46.5287 15.494 43.8456 13.6949 42.3168 13.4974ZM 7.3194 23.9289C 5.53505 23.9341 4.09043 22.4299 4.09788 20.58C 4.09043 18.7174 5.53505 17.2118 7.3194 17.2273C 9.09817 17.2118 10.5428 18.7174 10.5405 20.58C 10.5428 22.4299 9.09771 23.9336 7.3194 23.9289ZM 23.2702 13.4038L 23.239 13.4038L 8.16364 13.4038L 11.0408 5.56385C 11.388 4.45099 11.9269 3.65467 13.1998 3.63539L 23.239 3.63539L 23.2702 3.63539L 33.3415 3.63539C 34.5948 3.65467 35.1352 4.45052 35.4991 5.56385L 38.3767 13.4038L 23.2702 13.4038ZM 39.2214 23.9289C 37.4245 23.9341 35.9789 22.4299 35.9692 20.58C 35.9789 18.7174 37.4245 17.2118 39.2214 17.2273C 40.9876 17.2118 42.4317 18.7174 42.4429 20.58C 42.4317 22.4299 40.9876 23.9336 39.2214 23.9289Z"/>
</defs>
</svg>
