<svg width="256" height="256" viewBox="0 0 256 256" version="1.1" xmlns="http://www.w3.org/2000/svg" xmlns:xlink="http://www.w3.org/1999/xlink">
<title>diversity</title>
<desc>Created using Figma</desc>
<g id="Canvas" transform="matrix(2 0 0 2 -1896 8352)">
<g id="diversity">
<g id="Ellipse 4">
<use xlink:href="#path0_fill" transform="translate(948 -4175)" fill="#EFF8FF"/>
</g>
<g id="Vector 10">
<use xlink:href="#path1_fill" transform="translate(994 -4176)" fill="#D0E6F7"/>
</g>
<g id="Group">
<g id="Rectangle 31">
<use xlink:href="#path2_fill" transform="translate(987 -4150.5)" fill="#FFFFFF"/>
</g>
<g id="Vector">
<use xlink:href="#path3_fill" transform="translate(985 -4153)" fill="#1078FF"/>
</g>
<g id="Group">
<g id="Vector">
<use xlink:href="#path4_stroke" transform="translate(1004.28 -4089.18)" fill="#1078FF"/>
</g>
<g id="Vector">
<use xlink:href="#path5_fill" transform="matrix(-1 0 0 1 1022.33 -4135)" fill="#FFFFFF"/>
<mask id="mask0_outline_ins">
<use xlink:href="#path5_fill" fill="white" transform="matrix(-1 0 0 1 1022.33 -4135)"/>
</mask>
<g mask="url(#mask0_outline_ins)">
<use xlink:href="#path6_stroke_2x" transform="matrix(-1 0 0 1 1022.33 -4135)" fill="#1078FF"/>
</g>
</g>
<g id="Vector 15">
<use xlink:href="#path7_fill" transform="translate(999.5 -4130.5)" fill="#1078FF"/>
<use xlink:href="#path8_stroke" transform="translate(999.5 -4130.5)" fill="#1078FF"/>
</g>
<g id="Vector 2">
<use xlink:href="#path9_fill" transform="translate(1005 -4132)" fill="#CCE7FF"/>
</g>
<g id="Vector 16">
<use xlink:href="#path10_fill" transform="translate(1000 -4130.5)" fill="#1078FF"/>
</g>
<g id="Vector">
<use xlink:href="#path11_stroke" transform="translate(1009.77 -4100.53)" fill="#1078FF"/>
</g>
<g id="Vector">
<use xlink:href="#path11_stroke" transform="translate(1010.56 -4101.32)" fill="#1078FF"/>
</g>
<g id="Vector">
<use xlink:href="#path11_stroke" transform="translate(1008.99 -4101.32)" fill="#1078FF"/>
</g>
<g id="Ellipse 6">
<use xlink:href="#path12_fill" transform="translate(1009.77 -4130.3)" fill="#1078FF"/>
</g>
</g>
</g>
</g>
</g>
<defs>
<path id="path0_fill" d="M 127 63.5C 127 98.5701 98.5701 127 63.5 127C 28.4299 127 0 98.5701 0 63.5C 0 28.4299 28.4299 0 63.5 0C 98.5701 0 127 28.4299 127 63.5Z"/>
<path id="path1_fill" d="M 36.5 67.0117L 0 2.51171C 37.6 -7.88829 63.6667 16.5117 72 30.0117C 86.5 54.0117 84.5 90.5117 64 107.512L 36.5 67.0117Z"/>
<path id="path2_fill" d="M 0 8L 43 0L 47 11L 48 70.5L 0 70.5L 0 8Z"/>
<path id="path3_fill" d="M 48 9.36676L 48 3.50177C 48 2.42477 47.538 1.4578 46.702 0.781798C 45.871 0.107798 44.816 -0.144228 43.767 0.0797719L 1.343 9.15375L 4.88281e-07 9.15375L 4.88281e-07 75.1537L 46.5 75.1537C 49.533 75.1537 52 72.6857 52 69.6537L 52 14.6537C 52 12.1427 50.305 10.0228 48 9.36676ZM 44.395 3.01379C 44.521 2.98779 44.616 2.95281 44.814 3.11481C 44.948 3.22181 45 3.33181 45 3.50281L 45 9.15478L 15.685 9.15478L 44.395 3.01379ZM 49 69.6537C 49 71.0327 47.878 72.1537 46.5 72.1537L 3 72.1537L 3 12.1537L 46.5 12.1537C 47.878 12.1537 49 13.2747 49 14.6537L 49 69.6537Z"/>
<path id="path4_stroke" d="M -0.347372 0.815372C -0.54599 1.00722 -0.551477 1.32376 -0.359628 1.52237C -0.16778 1.72099 0.148755 1.72648 0.347372 1.53463L -0.347372 0.815372ZM 1.21646 0L 1.56383 -0.359628C 1.37006 -0.546791 1.06285 -0.546791 0.869083 -0.359628L 1.21646 0ZM 2.43291 1.175L 2.08554 1.53463C 2.2793 1.72179 2.58652 1.72179 2.78028 1.53463L 2.43291 1.175ZM 3.64937 0L 3.99674 -0.359628C 3.80297 -0.546791 3.49576 -0.546791 3.30199 -0.359628L 3.64937 0ZM 4.86582 1.175L 4.51845 1.53463C 4.71222 1.72179 5.01943 1.72179 5.2132 1.53463L 4.86582 1.175ZM 6.08228 0L 6.42965 -0.359628C 6.23588 -0.546791 5.92867 -0.546791 5.73491 -0.359628L 6.08228 0ZM 7.29873 1.175L 6.95136 1.53463C 7.14513 1.72179 7.45234 1.72179 7.64611 1.53463L 7.29873 1.175ZM 8.51519 0L 8.86256 -0.359628C 8.6688 -0.546791 8.36158 -0.546791 8.16782 -0.359628L 8.51519 0ZM 9.73165 1.175L 9.38427 1.53463C 9.57804 1.72179 9.88525 1.72179 10.079 1.53463L 9.73165 1.175ZM 10.9481 0L 11.2955 -0.359628C 11.1017 -0.546791 10.7945 -0.546791 10.6007 -0.359628L 10.9481 0ZM 11.8172 1.53463C 12.0158 1.72648 12.3323 1.72099 12.5242 1.52237C 12.716 1.32376 12.7105 1.00722 12.5119 0.815372L 11.8172 1.53463ZM 0.347372 1.53463L 1.56383 0.359628L 0.869083 -0.359628L -0.347372 0.815372L 0.347372 1.53463ZM 0.869083 0.359628L 2.08554 1.53463L 2.78028 0.815372L 1.56383 -0.359628L 0.869083 0.359628ZM 2.78028 1.53463L 3.99674 0.359628L 3.30199 -0.359628L 2.08554 0.815372L 2.78028 1.53463ZM 3.30199 0.359628L 4.51845 1.53463L 5.2132 0.815372L 3.99674 -0.359628L 3.30199 0.359628ZM 5.2132 1.53463L 6.42965 0.359628L 5.73491 -0.359628L 4.51845 0.815372L 5.2132 1.53463ZM 5.73491 0.359628L 6.95136 1.53463L 7.64611 0.815372L 6.42965 -0.359628L 5.73491 0.359628ZM 7.64611 1.53463L 8.86256 0.359628L 8.16782 -0.359628L 6.95136 0.815372L 7.64611 1.53463ZM 8.16782 0.359628L 9.38427 1.53463L 10.079 0.815372L 8.86256 -0.359628L 8.16782 0.359628ZM 10.079 1.53463L 11.2955 0.359628L 10.6007 -0.359628L 9.38427 0.815372L 10.079 1.53463ZM 10.6007 0.359628L 11.8172 1.53463L 12.5119 0.815372L 11.2955 -0.359628L 10.6007 0.359628Z"/>
<path id="path5_fill" d="M 19.595 0.915451C 20.515 2.05067 21.2889 3.35656 21.9367 4.75636C 22.2396 5.42825 22.8298 7.02868 22.8239 7.01626C 23.7921 9.98049 24.2411 13.3681 24.3291 17.1309C 24.224 26.2849 23.6136 34.9898 22.6712 43.3652L 20.0241 43.3804C 18.6767 42.7745 15.5349 41.9466 14.0982 41.8459C 12.6558 41.7521 10.8013 41.8756 10.8013 41.8756C 8.45693 42.0691 6.32835 42.641 4.56777 43.466L 1.93002 43.475C 0.897649 35.2178 0.156846 26.6211 0.00453769 17.5359C -0.0458601 14.0771 0.324095 10.9091 1.08709 8.15503C 1.98064 4.9388 3.3105 2.1042 5.46316 0.0355553C 5.8809 0.0435982 18.694 5.07829e-09 18.694 5.07829e-09C 18.9869 0.305187 19.3264 0.576428 19.595 0.915451Z"/>
<path id="path6_stroke_2x" d="M 19.595 0.915451L 17.2436 2.77845L 17.2539 2.79146L 17.2643 2.80435L 19.595 0.915451ZM 21.9367 4.75636L 24.6715 3.52326L 24.6655 3.50979L 24.6592 3.49638L 21.9367 4.75636ZM 22.8239 7.01626L 25.5331 5.72773L 19.9722 7.94772L 22.8239 7.01626ZM 24.3291 17.1309L 27.3289 17.1653L 27.3295 17.113L 27.3283 17.0608L 24.3291 17.1309ZM 22.6712 43.3652L 22.6884 46.3651L 25.3543 46.3498L 25.6524 43.7006L 22.6712 43.3652ZM 20.0241 43.3804L 18.7937 46.1165L 19.3888 46.3841L 20.0413 46.3803L 20.0241 43.3804ZM 14.0982 41.8459L 14.308 38.8532L 14.3004 38.8527L 14.2929 38.8522L 14.0982 41.8459ZM 10.8013 41.8756L 10.602 38.8822L 10.5783 38.8838L 10.5545 38.8857L 10.8013 41.8756ZM 4.56777 43.466L 4.57799 46.466L 5.24065 46.4637L 5.8407 46.1826L 4.56777 43.466ZM 1.93002 43.475L -1.0468 43.8472L -0.717122 46.484L 1.94024 46.475L 1.93002 43.475ZM 0.00453769 17.5359L -2.99515 17.5796L -2.99504 17.5862L 0.00453769 17.5359ZM 1.08709 8.15503L -1.80343 7.35196L -1.80402 7.35408L 1.08709 8.15503ZM 5.46316 0.0355553L 5.52092 -2.96389L 4.27965 -2.98779L 3.38448 -2.12756L 5.46316 0.0355553ZM 18.694 5.07829e-09L 20.8584 -2.07734L 19.9687 -3.00435L 18.6838 -2.99998L 18.694 5.07829e-09ZM 17.2643 2.80435C 18.0527 3.76436 18.6337 4.75301 19.2141 6.01634L 24.6592 3.49638C 23.944 1.96011 22.9774 0.336982 21.9257 -0.973449L 17.2643 2.80435ZM 19.2018 5.98947C 19.3238 6.25794 19.5145 6.7453 19.6943 7.21527C 19.7835 7.44837 19.8617 7.65635 19.9196 7.81142C 19.948 7.88762 19.9696 7.94594 19.9848 7.98722C 19.992 8.00669 19.996 8.01753 19.9987 8.02516C 19.9995 8.02715 19.994 8.01178 19.9955 8.0162C 19.9978 8.02257 19.973 7.95059 19.9789 7.96791C 19.9862 7.98999 19.9052 7.71726 19.9244 7.78616C 19.9124 7.73947 19.8807 7.59715 19.8634 7.50111C 19.8302 7.21006 20.6251 4.97553 22.5018 4.03368C 23.9684 4.24318 25.2921 5.31102 25.4142 5.50287C 25.4555 5.57582 25.5142 5.68868 25.5331 5.72773L 20.1147 8.30479C 20.1337 8.34389 20.1924 8.45678 20.2337 8.52975C 20.3558 8.72163 21.6796 9.78948 23.1462 9.99898C 25.0229 9.05713 25.8177 6.82259 25.7845 6.53151C 25.7672 6.43545 25.7355 6.29309 25.7235 6.24635C 25.7042 6.17725 25.6761 6.0861 25.6686 6.06343C 25.6624 6.04495 25.6532 6.0184 25.65 6.00935C 25.6465 5.99956 25.6411 5.98467 25.6378 5.97546C 25.6324 5.96068 25.624 5.93776 25.615 5.91334C 25.5979 5.86685 25.572 5.79693 25.5412 5.71433C 25.4806 5.55182 25.3934 5.32003 25.2979 5.07058C 25.1084 4.57547 24.8524 3.92668 24.6715 3.52326L 19.2018 5.98947ZM 19.9722 7.94772C 20.8669 10.6461 21.2502 13.6006 21.3299 17.201L 27.3283 17.0608C 27.2321 13.1356 26.7174 9.31486 25.6757 6.0848L 19.9722 7.94772ZM 21.3293 17.0964C 21.2265 26.1627 20.626 34.7171 19.69 43.0297L 25.6524 43.7006C 26.6011 35.2625 27.2215 26.4071 27.3289 17.1653L 21.3293 17.0964ZM 22.6539 40.3652L 20.0068 40.3804L 20.0413 46.3803L 22.6884 46.3651L 22.6539 40.3652ZM 21.2544 40.6443C 19.6172 39.9081 16.1312 38.981 14.308 38.8532L 13.8885 44.8386C 14.9385 44.9121 17.7362 45.6409 18.7937 46.1165L 21.2544 40.6443ZM 14.2929 38.8522C 13.4609 38.8002 12.4947 38.807 11.8197 38.8269C 11.4747 38.8372 11.1652 38.8511 10.9594 38.8617C 10.8528 38.8672 10.7625 38.8723 10.7052 38.8758C 10.6748 38.8776 10.6488 38.8792 10.6331 38.8802C 10.6245 38.8807 10.6166 38.8812 10.6122 38.8815C 10.6097 38.8817 10.6071 38.8819 10.6058 38.8819C 10.6049 38.882 10.604 38.8821 10.6036 38.8821C 10.6032 38.8821 10.6029 38.8821 10.6027 38.8821C 10.6026 38.8822 10.6024 38.8822 10.6023 38.8822C 10.6022 38.8822 10.602 38.8822 10.8013 41.8756C 11.0006 44.8689 11.0005 44.8689 11.0003 44.869C 11.0003 44.869 11.0002 44.869 11.0001 44.869C 11.0001 44.869 10.9997 44.869 10.9998 44.869C 10.9997 44.869 10.9995 44.869 10.9996 44.869C 11 44.869 11.0002 44.869 11.0011 44.8689C 11.0038 44.8687 11.0066 44.8685 11.0119 44.8682C 11.0241 44.8674 11.0393 44.8665 11.0625 44.8651C 11.1121 44.8622 11.178 44.8584 11.2678 44.8538C 11.4548 44.8441 11.6991 44.833 11.998 44.8242C 12.6109 44.8058 13.2931 44.7978 13.9036 44.8396L 14.2929 38.8522ZM 10.5545 38.8857C 7.9422 39.1136 5.29867 39.8233 3.29483 40.7495L 5.8407 46.1826C 7.35802 45.4588 8.97166 45.0246 11.0481 44.8654L 10.5545 38.8857ZM 4.55755 40.466L 1.9198 40.475L 1.94024 46.475L 4.57799 46.466L 4.55755 40.466ZM 4.90685 43.1028C 3.88107 34.9029 3.15289 26.4671 3.00412 17.4856L -2.99504 17.5862C -2.8392 26.7752 -2.08577 35.5327 -1.0468 43.8472L 4.90685 43.1028ZM 3.00422 17.4922C 2.95026 14.2295 3.26825 11.4853 3.97819 8.95597L -1.80402 7.35408C -2.62006 10.333 -3.04198 13.9246 -2.99514 17.5796L 3.00422 17.4922ZM 3.9776 8.95809C 4.79376 5.98109 5.74867 3.85214 7.54185 2.19867L 3.38448 -2.12756C 0.872324 0.356252 -0.832474 3.89651 -1.80343 7.35196L 3.9776 8.95809ZM 5.40541 3.035C 5.64719 3.03947 8.98834 3.03068 12.2444 3.02078C 13.8724 3.01583 15.4874 3.01063 16.6953 3.00667C 17.2993 3.00469 17.8015 3.00302 18.1527 3.00184C 18.3283 3.00125 18.4662 3.00079 18.5602 3.00047C 18.6072 3.00031 18.6432 3.00019 18.6674 3.00011C 18.6796 3.00007 18.6888 3.00004 18.6949 3.00001C 18.698 3 18.7003 3 18.7019 2.99999C 18.7027 2.99999 18.7033 2.99999 18.7037 2.99998C 18.7039 2.99998 18.704 2.99998 18.7041 2.99998C 18.7042 2.99998 18.7042 2.99998 18.694 5.07829e-09C 18.6838 -2.99998 18.6838 -2.99998 18.6837 -2.99998C 18.6836 -2.99998 18.6834 -2.99998 18.6832 -2.99998C 18.6829 -2.99998 18.6823 -2.99998 18.6815 -2.99997C 18.68 -2.99997 18.6776 -2.99996 18.6746 -2.99995C 18.6684 -2.99993 18.6592 -2.9999 18.6471 -2.99986C 18.6228 -2.99978 18.5869 -2.99965 18.5399 -2.9995C 18.446 -2.99918 18.3082 -2.99871 18.1326 -2.99813C 17.7815 -2.99695 17.2794 -2.99528 16.6756 -2.9933C 15.4679 -2.98934 13.8536 -2.98414 12.2261 -2.97919C 10.5986 -2.97425 8.95888 -2.96955 7.69968 -2.9666C 6.44115 -2.96365 5.44743 -2.96546 5.52092 -2.96389L 5.40541 3.035ZM 16.5296 2.07734C 16.735 2.29135 16.9953 2.53198 17.0798 2.6128C 17.1444 2.67449 17.1716 2.70066 17.2098 2.7414C 17.2487 2.78162 17.257 2.79734 17.2436 2.77845L 21.9464 -0.947549C 21.4521 -1.5405 21.0099 -1.91014 20.8584 -2.07734L 16.5296 2.07734Z"/>
<path id="path7_fill" d="M 0.858795 0.353013L 0.0551051 2.36224C 0.0223796 2.44405 0.0470542 2.53764 0.115861 2.59269L 2.27603 4.32082C 2.38469 4.40775 2.5467 4.3599 2.5907 4.22789L 2.96907 3.0928C 2.98858 3.03425 2.97998 2.96996 2.94574 2.91861L 1.2109 0.316351C 1.12157 0.182361 0.918602 0.203494 0.858795 0.353013Z"/>
<path id="path8_stroke" d="M 0.0551051 2.36224L 0.101529 2.38081L 0.101529 2.38081L 0.0551051 2.36224ZM 0.858795 0.353013L 0.812371 0.334443L 0.812371 0.334443L 0.858795 0.353013ZM 1.2109 0.316351L 1.1693 0.344086L 1.1693 0.344086L 1.2109 0.316351ZM 2.94574 2.91861L 2.90414 2.94635L 2.90414 2.94635L 2.94574 2.91861ZM 2.5907 4.22789L 2.54327 4.21208L 2.54327 4.21208L 2.5907 4.22789ZM 2.27603 4.32082L 2.30726 4.28178L 2.30726 4.28178L 2.27603 4.32082ZM 0.115861 2.59269L 0.147096 2.55365L 0.147096 2.55365L 0.115861 2.59269ZM 0.101529 2.38081L 0.905219 0.371582L 0.812371 0.334443L 0.00868127 2.34367L 0.101529 2.38081ZM 1.1693 0.344086L 2.90414 2.94635L 2.98734 2.89088L 1.2525 0.288616L 1.1693 0.344086ZM 2.92163 3.07699L 2.54327 4.21208L 2.63814 4.2437L 3.0165 3.10861L 2.92163 3.07699ZM 2.30726 4.28178L 0.147096 2.55365L 0.0846267 2.63173L 2.24479 4.35986L 2.30726 4.28178ZM 0.00868127 2.34367C -0.0322256 2.44593 -0.00138233 2.56293 0.0846267 2.63173L 0.147096 2.55365C 0.0954908 2.51236 0.0769848 2.44217 0.101529 2.38081L 0.00868127 2.34367ZM 0.905219 0.371582C 0.950074 0.259443 1.1023 0.243593 1.1693 0.344086L 1.2525 0.288616C 1.14084 0.121128 0.88713 0.147545 0.812371 0.334443L 0.905219 0.371582ZM 2.90414 2.94635C 2.92981 2.98486 2.93627 3.03307 2.92163 3.07699L 3.0165 3.10861C 3.0409 3.03542 3.03014 2.95507 2.98734 2.89088L 2.90414 2.94635ZM 2.54327 4.21208C 2.51027 4.31109 2.38876 4.34697 2.30726 4.28178L 2.24479 4.35986C 2.38061 4.46852 2.58313 4.40872 2.63814 4.2437L 2.54327 4.21208Z"/>
<path id="path9_fill" d="M 14.9796 13.8889C 15.1796 19.5231 13.3999 37.5 13 37.5C 12.8386 37.5 6.36535 38.9881 3.26723 30.8283C -1.18049 19.114 0.203734 0 0.203734 0L 10.9035 0C 15.3821 4.50729 14.7797 8.25483 14.9796 13.8889Z"/>
<path id="path10_fill" d="M 2 0L 2.5 3L 0 1.5L 0.5 0L 2 0Z"/>
<path id="path11_stroke" d="M -0.25 3.13333C -0.25 3.2714 -0.138071 3.38333 0 3.38333C 0.138071 3.38333 0.25 3.2714 0.25 3.13333L -0.25 3.13333ZM 0.25 0C 0.25 -0.138071 0.138071 -0.25 0 -0.25C -0.138071 -0.25 -0.25 -0.138071 -0.25 0L 0.25 0ZM 0.25 3.13333L 0.25 0L -0.25 0L -0.25 3.13333L 0.25 3.13333Z"/>
<path id="path12_fill" d="M 1.96203 0.979167C 1.96203 1.51995 1.52281 1.95833 0.981013 1.95833C 0.439214 1.95833 0 1.51995 0 0.979167C 0 0.438388 0.439214 0 0.981013 0C 1.52281 0 1.96203 0.438388 1.96203 0.979167Z"/>
</defs>
</svg>
