<svg width="256" height="254" viewBox="0 0 256 254" version="1.1" xmlns="http://www.w3.org/2000/svg" xmlns:xlink="http://www.w3.org/1999/xlink">
<title>flow</title>
<desc>Created using Figma</desc>
<g id="Canvas" transform="matrix(2 0 0 2 -928 8360)">
<g id="flow">
<g id="Ellipse 4">
<use xlink:href="#path0_fill" transform="translate(464 -4180)" fill="#EFF8FF"/>
</g>
<g id="Vector 10">
<use xlink:href="#path1_fill" transform="translate(510 -4180)" fill="#D0E6F7"/>
</g>
<g id="Vector">
<use xlink:href="#path2_stroke" transform="translate(478 -4100)" fill="#1078FF"/>
</g>
<g id="noun_802058_cc">
<g id="Group">
<g id="noun_802058_cc">
<g id="Group">
<g id="Vector">
<use xlink:href="#path3_fill" transform="translate(509.561 -4159)" fill="#BFDEF6"/>
</g>
</g>
</g>
<g id="Vector">
<use xlink:href="#path3_fill" transform="translate(504 -4156.22)" fill="#FFFFFF"/>
<mask id="mask0_outline_ins">
<use xlink:href="#path3_fill" fill="white" transform="translate(504 -4156.22)"/>
</mask>
<g mask="url(#mask0_outline_ins)">
<use xlink:href="#path4_stroke_2x" transform="translate(504 -4156.22)" fill="#1078FF"/>
</g>
</g>
</g>
</g>
</g>
</g>
<defs>
<path id="path0_fill" d="M 127 63.5C 127 98.5701 98.5701 127 63.5 127C 28.4299 127 0 98.5701 0 63.5C 0 28.4299 28.4299 0 63.5 0C 98.5701 0 127 28.4299 127 63.5Z"/>
<path id="path1_fill" d="M 36.5 67.0117L 0 2.51171C 37.6 -7.88829 63.6667 16.5117 72 30.0117C 86.5 54.0117 84.5 90.5117 64 107.512L 36.5 67.0117Z"/>
<path id="path2_stroke" d="M -0.573462 6.18077C -1.02591 6.49748 -1.13595 7.12101 -0.819232 7.57346C -0.502517 8.02591 0.121013 8.13595 0.573462 7.81923L -0.573462 6.18077ZM 10 0L 10.5735 -0.819232C 10.2291 -1.06026 9.77086 -1.06026 9.42654 -0.819232L 10 0ZM 20 7L 19.4265 7.81923C 19.7709 8.06026 20.2291 8.06026 20.5735 7.81923L 20 7ZM 30 0L 30.5735 -0.819232C 30.2291 -1.06026 29.7709 -1.06026 29.4265 -0.819232L 30 0ZM 40 7L 39.4265 7.81923C 39.7709 8.06026 40.2291 8.06026 40.5735 7.81923L 40 7ZM 50 0L 50.5735 -0.819232C 50.2291 -1.06026 49.7709 -1.06026 49.4265 -0.819232L 50 0ZM 60 7L 59.4265 7.81923C 59.7709 8.06026 60.2291 8.06026 60.5735 7.81923L 60 7ZM 70 0L 70.5735 -0.819232C 70.2291 -1.06026 69.7709 -1.06026 69.4265 -0.819232L 70 0ZM 80 7L 79.4265 7.81923C 79.7709 8.06026 80.2291 8.06026 80.5735 7.81923L 80 7ZM 90 0L 90.5735 -0.819232C 90.2291 -1.06026 89.7709 -1.06026 89.4265 -0.819232L 90 0ZM 99.4265 7.81923C 99.879 8.13595 100.503 8.02591 100.819 7.57346C 101.136 7.12101 101.026 6.49748 100.573 6.18077L 99.4265 7.81923ZM 0.573462 7.81923L 10.5735 0.819232L 9.42654 -0.819232L -0.573462 6.18077L 0.573462 7.81923ZM 9.42654 0.819232L 19.4265 7.81923L 20.5735 6.18077L 10.5735 -0.819232L 9.42654 0.819232ZM 20.5735 7.81923L 30.5735 0.819232L 29.4265 -0.819232L 19.4265 6.18077L 20.5735 7.81923ZM 29.4265 0.819232L 39.4265 7.81923L 40.5735 6.18077L 30.5735 -0.819232L 29.4265 0.819232ZM 40.5735 7.81923L 50.5735 0.819232L 49.4265 -0.819232L 39.4265 6.18077L 40.5735 7.81923ZM 49.4265 0.819232L 59.4265 7.81923L 60.5735 6.18077L 50.5735 -0.819232L 49.4265 0.819232ZM 60.5735 7.81923L 70.5735 0.819232L 69.4265 -0.819232L 59.4265 6.18077L 60.5735 7.81923ZM 69.4265 0.819232L 79.4265 7.81923L 80.5735 6.18077L 70.5735 -0.819232L 69.4265 0.819232ZM 80.5735 7.81923L 90.5735 0.819232L 89.4265 -0.819232L 79.4265 6.18077L 80.5735 7.81923ZM 89.4265 0.819232L 99.4265 7.81923L 100.573 6.18077L 90.5735 -0.819232L 89.4265 0.819232Z"/>
<path id="path3_fill" d="M 46.9294 5.46974C 47.8562 4.07832 47.4855 2.31586 46.0953 1.38824C 44.7052 0.460629 42.9443 0.831675 42.0176 2.2231C 42.0176 2.2231 36.1789 11.2209 35.7155 11.8703C 35.2521 12.5196 34.6961 12.0558 34.8814 11.4065C 34.9741 11.0354 35.0668 10.6644 35.0668 10.2933C 35.0668 9.36572 34.6034 8.4381 33.7693 7.88154C 32.6572 7.13945 31.267 7.32497 30.3402 8.06706C 30.3402 8.06706 29.1354 8.53087 29.4135 7.32497C 29.5988 6.11907 29.3208 4.82041 28.2087 4.17108C 27.0965 3.42899 25.521 3.61452 24.6869 4.35661C 24.2236 4.82041 23.6675 4.44937 23.7602 3.52175C 23.9455 2.31586 23.5748 1.20272 22.5554 0.460629C 21.9066 -0.00317821 21.0725 -0.0959392 20.3311 0.0895835C 19.5897 0.275106 18.941 0.646151 18.4776 1.38824L 13.1023 9.644C 12.6389 10.3861 12.2682 10.6644 11.6195 10.6644C 10.9707 10.6644 10.322 9.73676 10.2293 9.55124L 6.15153 2.6869C 5.50279 1.10996 3.64925 0.275106 2.07374 0.924435C 0.405553 1.57376 -0.428541 3.42899 0.220199 5.00594L 7.26366 20.7754C 7.44901 21.2392 7.63436 21.703 8.00507 22.1668C 10.4147 25.2279 14.2144 30.237 14.2144 30.237L 14.2144 70.2172L 34.418 70.2172L 34.5107 26.2483C 34.5107 25.5062 34.6961 24.5786 35.0668 23.8365C 35.2521 23.5582 35.4375 23.1872 35.5302 23.0016L 46.9294 5.46974Z"/>
<path id="path4_stroke_2x" d="M 46.9294 5.46974L 44.4326 3.80669L 44.4234 3.8205L 44.4143 3.83442L 46.9294 5.46974ZM 42.0176 2.2231L 39.5207 0.560042L 39.5107 0.575006L 39.5009 0.590088L 42.0176 2.2231ZM 34.8814 11.4065L 37.7662 12.2299L 37.7799 12.1819L 37.792 12.1335L 34.8814 11.4065ZM 33.7693 7.88154L 35.4344 5.38608L 33.7693 7.88154ZM 30.3402 8.06706L 31.418 10.8668L 31.8522 10.6996L 32.2154 10.4088L 30.3402 8.06706ZM 29.4135 7.32497L 32.3368 7.99897L 32.3618 7.89063L 32.3787 7.78074L 29.4135 7.32497ZM 28.2087 4.17108L 26.5435 6.66653L 26.6184 6.71646L 26.696 6.76182L 28.2087 4.17108ZM 24.6869 4.35661L 22.6928 2.11528L 22.627 2.17388L 22.5647 2.23625L 24.6869 4.35661ZM 23.7602 3.52175L 20.795 3.06599L 20.7829 3.14449L 20.775 3.22351L 23.7602 3.52175ZM 22.5554 0.460629L 24.3209 -1.96482L 24.3106 -1.97236L 24.3001 -1.97982L 22.5554 0.460629ZM 18.4776 1.38824L 20.9917 3.02514L 21.0072 3.00131L 21.0222 2.9772L 18.4776 1.38824ZM 13.1023 9.644L 10.5882 8.00711L 10.5727 8.03093L 10.5577 8.05505L 13.1023 9.644ZM 10.2293 9.55124L 12.9131 8.21058L 12.8643 8.11291L 12.8085 8.01904L 10.2293 9.55124ZM 6.15153 2.6869L 3.37713 3.82826L 3.46045 4.03081L 3.57231 4.2191L 6.15153 2.6869ZM 2.07374 0.924435L 3.16194 3.72012L 3.18952 3.70938L 3.21688 3.6981L 2.07374 0.924435ZM 0.220199 5.00594L -2.5542 6.1473L -2.5372 6.18861L -2.51899 6.2294L 0.220199 5.00594ZM 7.26366 20.7754L 10.0494 19.6621L 10.0272 19.6065L 10.0028 19.5519L 7.26366 20.7754ZM 8.00507 22.1668L 10.3624 20.3112L 10.3555 20.3025L 10.3485 20.2937L 8.00507 22.1668ZM 14.2144 30.237L 17.2144 30.237L 17.2144 29.2279L 16.6046 28.4239L 14.2144 30.237ZM 14.2144 70.2172L 11.2144 70.2172L 11.2144 73.2172L 14.2144 73.2172L 14.2144 70.2172ZM 34.418 70.2172L 34.418 73.2172L 37.4117 73.2172L 37.418 70.2235L 34.418 70.2172ZM 34.5107 26.2483L 37.5107 26.2546L 37.5107 26.2483L 34.5107 26.2483ZM 35.0668 23.8365L 32.5699 22.1734L 32.4664 22.3288L 32.383 22.4958L 35.0668 23.8365ZM 35.5302 23.0016L 33.0151 21.3663L 32.9224 21.5089L 32.8464 21.661L 35.5302 23.0016ZM 49.4263 7.1328C 51.2895 4.33545 50.5001 0.720865 47.7605 -1.10721L 44.4302 3.88369C 44.462 3.90489 44.4668 3.91613 44.4614 3.90815C 44.4565 3.90098 44.448 3.88483 44.443 3.86081C 44.438 3.83658 44.4386 3.81352 44.442 3.79635C 44.4456 3.77797 44.4493 3.78162 44.4326 3.80669L 49.4263 7.1328ZM 47.7605 -1.10721C 44.9619 -2.97466 41.3467 -2.18151 39.5207 0.560042L 44.5144 3.88615C 44.5358 3.85401 44.5471 3.84919 44.5388 3.85484C 44.5313 3.85995 44.5145 3.86886 44.4895 3.87402C 44.4643 3.87923 44.4401 3.87864 44.4219 3.87506C 44.4025 3.87124 44.4055 3.86722 44.4302 3.88369L 47.7605 -1.10721ZM 42.0176 2.2231C 39.5009 0.590088 39.5009 0.590118 39.5009 0.590182C 39.5008 0.590249 39.5008 0.590348 39.5007 0.590482C 39.5005 0.590753 39.5003 0.591155 39.4999 0.591694C 39.4992 0.592779 39.4982 0.594393 39.4968 0.596546C 39.494 0.600862 39.4898 0.607286 39.4843 0.615786C 39.4732 0.632807 39.4569 0.658038 39.4354 0.691021C 39.3926 0.757032 39.3298 0.853849 39.2495 0.977394C 39.0891 1.22458 38.8594 1.57821 38.5823 2.00479C 38.0279 2.85815 37.2844 4.00186 36.5263 5.16619C 35.7681 6.33056 34.9972 7.51259 34.3864 8.44481C 33.7768 9.37512 33.1888 10.2455 33.2736 10.1276L 38.1575 13.6129C 38.4245 13.2377 40.0355 10.7727 41.5543 8.44018C 42.3137 7.27389 43.0589 6.12755 43.6137 5.27353C 43.8912 4.84641 44.1214 4.49201 44.282 4.24459C 44.3623 4.12083 44.4254 4.0237 44.4683 3.95759C 44.4898 3.92451 44.5062 3.89914 44.5173 3.88207C 44.5229 3.87352 44.5271 3.86703 44.5299 3.86269C 44.5313 3.86052 44.5324 3.85887 44.5331 3.85778C 44.5334 3.85722 44.5337 3.85681 44.5339 3.85653C 44.534 3.85639 44.534 3.85628 44.5341 3.85621C 44.5341 3.85614 44.5342 3.8561 42.0176 2.2231ZM 33.2736 10.1276C 33.4004 9.94989 33.7531 9.53501 34.425 9.31367C 35.1726 9.0674 36.0275 9.16763 36.7203 9.62991C 37.9823 10.472 37.9001 11.7608 37.7662 12.2299L 31.9967 10.583C 31.6774 11.7015 31.7806 13.5469 33.39 14.6208C 34.2566 15.1991 35.3259 15.3341 36.3023 15.0124C 37.203 14.7157 37.7989 14.1153 38.1575 13.6129L 33.2736 10.1276ZM 37.792 12.1335C 37.8847 11.7624 38.0443 11.0306 38.0668 10.2933L 32.0668 10.2933C 32.0668 10.234 32.0738 10.2244 32.0601 10.2975C 32.0446 10.3802 32.021 10.4786 31.9708 10.6795L 37.792 12.1335ZM 38.0668 10.2933C 38.0668 8.3902 37.1248 6.51402 35.4344 5.38608L 32.1041 10.377C 32.0915 10.3685 32.0821 10.357 32.0771 10.3476C 32.0739 10.3415 32.0668 10.326 32.0668 10.2933L 38.0668 10.2933ZM 35.4344 5.38608C 33.1 3.82839 30.28 4.27204 28.4651 5.72528L 32.2154 10.4088C 32.2102 10.413 32.2105 10.4118 32.2156 10.4097C 32.2206 10.4078 32.2215 10.4084 32.2156 10.4089C 32.2086 10.4094 32.1912 10.4096 32.1664 10.4034C 32.1396 10.3967 32.1173 10.3857 32.1041 10.377L 35.4344 5.38608ZM 30.3402 8.06706C 29.2624 5.26735 29.2635 5.26694 29.2646 5.26652C 29.265 5.26638 29.266 5.26597 29.2668 5.2657C 29.2661 5.26596 29.2724 5.26354 29.271 5.26407C 29.2697 5.26458 29.282 5.25989 29.2793 5.26092C 29.2769 5.26185 29.3004 5.25306 29.2953 5.25495C 29.2911 5.25647 29.3339 5.241 29.3248 5.24424C 29.3194 5.24613 29.3931 5.2213 29.378 5.22631C 29.3749 5.22706 29.5267 5.18589 29.4926 5.19504C 29.5327 5.18593 29.7877 5.12474 30.161 5.17347C 30.5761 5.22766 31.4736 5.48413 32.0297 6.43353C 32.5161 7.26407 32.3425 7.97421 32.3368 7.99897L 26.4902 6.65097C 26.3454 7.27868 26.2182 8.38306 26.8523 9.46579C 27.556 10.6674 28.7027 11.034 29.3842 11.123C 29.9241 11.1656 30.5924 11.0955 30.8201 11.0463C 30.9628 11.0126 31.1321 10.9644 31.2 10.943C 31.2475 10.9276 31.3058 10.9078 31.3287 10.8997C 31.3465 10.8934 31.3696 10.885 31.3783 10.8818C 31.3857 10.879 31.3958 10.8752 31.3994 10.8739C 31.4027 10.8726 31.4074 10.8708 31.409 10.8702C 31.4106 10.8696 31.4128 10.8688 31.4136 10.8685C 31.4144 10.8682 31.4155 10.8678 31.4158 10.8676C 31.4169 10.8672 31.418 10.8668 30.3402 8.06706ZM 32.3787 7.78074C 32.6524 5.99963 32.3648 3.12376 29.7213 1.58034L 26.696 6.76182C 26.6372 6.72749 26.5727 6.67282 26.5201 6.6049C 26.4707 6.54104 26.4535 6.4939 26.4513 6.48722C 26.45 6.48316 26.4606 6.5143 26.4648 6.58738C 26.469 6.66002 26.4657 6.75598 26.4483 6.8692L 32.3787 7.78074ZM 29.8738 1.67563C 27.6122 0.166525 24.5342 0.477021 22.6928 2.11528L 26.681 6.59793C 26.5898 6.67909 26.5275 6.70329 26.523 6.70506C 26.516 6.70779 26.5309 6.70158 26.5614 6.69936C 26.5909 6.69721 26.6099 6.70065 26.6129 6.70135C 26.614 6.70163 26.5866 6.69527 26.5435 6.66653L 29.8738 1.67563ZM 22.5647 2.23625C 22.7898 2.01088 23.2395 1.67457 23.9246 1.58029C 24.6617 1.47885 25.3791 1.70349 25.9078 2.13346C 26.3949 2.52954 26.599 2.99007 26.6794 3.2644C 26.7626 3.54801 26.7524 3.7491 26.7453 3.82L 20.775 3.22351C 20.6825 4.14938 20.8104 5.72161 22.1222 6.78846C 22.8363 7.36918 23.7739 7.65759 24.7426 7.52426C 25.6594 7.39809 26.3524 6.93423 26.8092 6.47696L 22.5647 2.23625ZM 26.7254 3.97752C 27.0566 1.82236 26.3714 -0.472179 24.3209 -1.96482L 20.7898 2.88607C 20.8242 2.9111 20.8298 2.92185 20.8228 2.9127C 20.8155 2.90323 20.8076 2.88935 20.8028 2.87662C 20.7918 2.84746 20.8211 2.89637 20.795 3.06599L 26.7254 3.97752ZM 24.3001 -1.97982C 22.8077 -3.04679 21.0321 -3.17831 19.6029 -2.82069L 21.0594 2.99986C 21.0593 2.99986 21.0596 2.99981 21.0598 2.99978C 21.06 2.99975 21.0595 2.99984 21.058 2.99991C 21.0558 3.00003 21.046 3.0004 21.0282 2.99769C 20.9922 2.99223 20.9087 2.97118 20.8106 2.90108L 24.3001 -1.97982ZM 19.6029 -2.82069C 18.2856 -2.49106 16.8957 -1.74248 15.9329 -0.200715L 21.0222 2.9772C 21.03 2.96477 21.0279 2.97046 21.0134 2.98546C 20.9987 3.00062 20.9814 3.01487 20.9652 3.02565C 20.9499 3.03589 20.9447 3.03691 20.9569 3.03181C 20.97 3.0263 21.0019 3.01422 21.0594 2.99986L 19.6029 -2.82069ZM 15.9635 -0.248655L 10.5882 8.00711L 15.6164 11.2809L 20.9917 3.02514L 15.9635 -0.248655ZM 10.5577 8.05505C 10.3958 8.31421 10.4444 8.16091 10.709 7.97551C 10.8632 7.86744 11.0466 7.77816 11.2431 7.72257C 11.4293 7.66991 11.5676 7.66438 11.6195 7.66438L 11.6195 13.6644C 12.3424 13.6378 13.4733 13.3106 14.1518 12.8894C 14.8798 12.3794 15.3454 11.7159 15.647 11.233L 10.5577 8.05505ZM 11.6195 7.66438C 12.1655 7.66438 12.5307 7.85345 12.6573 7.92758C 12.7325 7.9716 12.7811 8.00882 12.8042 8.02744C 12.8042 8.02556 12.8221 8.03986 12.8382 8.05702C 12.8532 8.07091 12.8449 8.06646 12.8239 8.04116C 12.8063 8.02127 12.8192 8.0372 12.8026 8.01437C 12.7918 8.00063 12.8051 8.01782 12.8084 8.02363C 12.806 8.01952 12.8447 8.08281 12.8382 8.07218C 12.8501 8.09235 12.8784 8.14118 12.9131 8.21058L 7.54555 10.8919C 7.76159 11.3244 8.15533 11.8591 8.59359 12.2977C 8.92515 12.6296 10.0063 13.6644 11.6195 13.6644L 11.6195 7.66438ZM 12.8085 8.01904L 8.73075 1.15471L 3.57231 4.2191L 7.6501 11.0834L 12.8085 8.01904ZM 8.92593 1.54554C 7.68555 -1.46956 4.13174 -3.16855 0.930603 -1.84923L 3.21688 3.6981C 3.20536 3.70285 3.19624 3.70283 3.19858 3.7029C 3.20416 3.70306 3.22535 3.70511 3.2568 3.71889C 3.3293 3.75064 3.36595 3.80108 3.37713 3.82826L 8.92593 1.54554ZM 0.985542 -1.87124C -2.13759 -0.655587 -3.88582 2.91043 -2.5542 6.1473L 2.9946 3.86457C 2.99897 3.8752 3.00012 3.88665 2.99999 3.89053C 2.99996 3.89152 3.00039 3.87826 3.0111 3.85459C 3.03329 3.80558 3.08037 3.75187 3.16194 3.72012L 0.985542 -1.87124ZM -2.51899 6.2294L 4.52447 21.9988L 10.0028 19.5519L 2.95938 3.78247L -2.51899 6.2294ZM 4.47788 21.8887C 4.66323 22.3525 5.04177 23.2124 5.66163 24.0398L 10.3485 20.2937C 10.2883 20.2184 10.2421 20.1441 10.0494 19.6621L 4.47788 21.8887ZM 5.64778 24.0224C 6.84236 25.5399 8.38216 27.5412 9.63092 29.173C 10.2548 29.9883 10.8028 30.707 11.196 31.2236C 11.3923 31.4816 11.5494 31.6881 11.6577 31.8307C 11.7118 31.9019 11.7534 31.9567 11.7817 31.994C 11.7958 32.0125 11.8064 32.0266 11.8137 32.0361C 11.8172 32.0408 11.8199 32.0443 11.8217 32.0467C 11.8226 32.0478 11.8232 32.0487 11.8237 32.0493C 11.8239 32.0496 11.8241 32.0498 11.8242 32.0499C 11.8242 32.05 11.8243 32.05 11.8243 32.0501C 11.8243 32.0501 11.8243 32.0501 14.2144 30.237C 16.6046 28.4239 16.6045 28.4239 16.6045 28.4239C 16.6045 28.4238 16.6044 28.4237 16.6044 28.4237C 16.6042 28.4235 16.604 28.4232 16.6038 28.4229C 16.6033 28.4223 16.6026 28.4213 16.6016 28.4201C 16.5998 28.4176 16.597 28.4139 16.5933 28.4091C 16.586 28.3994 16.575 28.3849 16.5606 28.3661C 16.5321 28.3285 16.4898 28.2727 16.4352 28.2009C 16.3263 28.0576 16.1677 27.8489 15.9702 27.5894C 15.5756 27.0711 15.023 26.3463 14.3958 25.5266C 13.1423 23.8886 11.5774 21.8548 10.3624 20.3112L 5.64778 24.0224ZM 11.2144 30.237L 11.2144 70.2172L 17.2144 70.2172L 17.2144 30.237L 11.2144 30.237ZM 14.2144 73.2172L 34.418 73.2172L 34.418 67.2172L 14.2144 67.2172L 14.2144 73.2172ZM 37.418 70.2235L 37.5107 26.2546L 31.5107 26.242L 31.418 70.2108L 37.418 70.2235ZM 37.5107 26.2483C 37.5107 26.1135 37.5292 25.9144 37.5784 25.6926C 37.6279 25.4699 37.6934 25.2915 37.7505 25.1772L 32.383 22.4958C 31.8582 23.6057 31.5253 25.2108 31.5107 26.2483L 37.5107 26.2483ZM 37.5636 25.4995C 37.8475 25.063 38.1213 24.5278 38.2139 24.3423L 32.8464 21.661C 32.8001 21.7537 32.7511 21.8524 32.6913 21.963C 32.6297 22.0774 32.5877 22.1468 32.5699 22.1734L 37.5636 25.4995ZM 38.0453 24.637L 49.4445 7.10507L 44.4143 3.83442L 33.0151 21.3663L 38.0453 24.637Z"/>
</defs>
</svg>
