<svg width="16" height="26" viewBox="0 0 16 26" version="1.1" xmlns="http://www.w3.org/2000/svg" xmlns:xlink="http://www.w3.org/1999/xlink">
<title>goal</title>
<desc>Created using Figma</desc>
<g id="Canvas" transform="translate(7492 1141)">
<g id="goal">
<use xlink:href="#path0_fill" transform="translate(-7492 -1140.38)"/>
</g>
</g>
<defs>
<path id="path0_fill" d="M 11.3684 13.8729L 11.3684 12.0453C 11.3684 11.8792 11.2 11.7131 11.0316 11.7131L 10.6947 11.7131L 16 0L 12.2526 0L 8 8.76402L 9.34737 11.7131L 9.05263 11.7131L 3.74737 0L 0 0L 5.34737 11.7546L 5.01053 11.7546C 4.84211 11.7546 4.67368 11.8792 4.67368 12.0869L 4.67368 13.9144C 2.94737 14.9944 1.81053 16.8219 1.81053 18.9818C 1.81053 22.3046 4.58947 25.0045 8.0421 25.0045C 11.4947 25.0045 14.2737 22.3046 14.2737 18.9818C 14.2316 16.7804 13.0526 14.9528 11.3684 13.8729ZM 5.30526 12.3776L 10.6526 12.3776L 10.6526 13.0422L 5.30526 13.0422L 5.30526 12.3776ZM 8 23.6338C 5.34737 23.6338 3.2 21.557 3.2 18.9818C 3.2 16.4066 5.34737 14.3298 8 14.3298C 10.6526 14.3298 12.8 16.4066 12.8 18.9818C 12.8 21.557 10.6526 23.6338 8 23.6338ZM 8 22.3877C 6.06316 22.3877 4.46316 20.8509 4.46316 18.9818C 4.46316 17.1127 6.06316 15.5759 8 15.5759C 9.93684 15.5759 11.5368 17.1127 11.5368 18.9818C 11.5368 20.8924 9.93684 22.3877 8 22.3877Z"/>
</defs>
</svg>
