<svg width="127" height="125" viewBox="0 0 127 125" version="1.1" xmlns="http://www.w3.org/2000/svg" xmlns:xlink="http://www.w3.org/1999/xlink">
<title>Group</title>
<desc>Created using Figma</desc>
<g id="Canvas" transform="translate(11295 1307)">
<g id="Group">
<g id="noun_1178185_cc">
<g id="Group">
<g id="Ellipse 4">
<use xlink:href="#path0_fill" transform="translate(-11295 -1307)" fill="#EFF8FF"/>
</g>
<g id="Vector 10">
<use xlink:href="#path1_fill" transform="translate(-11248.6 -1307)" fill="#D0E6F7"/>
</g>
<g id="Rectangle 25">
<use xlink:href="#path2_fill" transform="translate(-11281.8 -1263.58)" fill="#FFFFFF"/>
</g>
<g id="Ellipse 10">
<use xlink:href="#path3_fill" transform="translate(-11271.8 -1228.3)" fill="#FFFFFF"/>
</g>
<g id="Ellipse 10">
<use xlink:href="#path3_fill" transform="translate(-11213.2 -1228.3)" fill="#FFFFFF"/>
</g>
<g id="Vector">
<use xlink:href="#path4_fill" transform="translate(-11287 -1282.32)" fill="#CCE7FF"/>
<mask id="mask0_outline_ins">
<use xlink:href="#path4_fill" fill="white" transform="translate(-11287 -1282.32)"/>
</mask>
<g mask="url(#mask0_outline_ins)">
<use xlink:href="#path5_stroke_2x" transform="translate(-11287 -1282.32)" fill="#1078FF"/>
</g>
</g>
<g id="Vector">
<use xlink:href="#path6_fill" transform="translate(-11207.4 -1226.1)" fill="#1078FF"/>
</g>
<g id="Vector">
<use xlink:href="#path6_fill" transform="translate(-11266.6 -1226.1)" fill="#1078FF"/>
</g>
</g>
</g>
<g id="Vector 12">
<use xlink:href="#path7_fill" transform="translate(-11282.2 -1280.17)" fill="#1078FF"/>
</g>
</g>
</g>
<defs>
<path id="path0_fill" d="M 127 62.5C 127 97.0178 98.5701 125 63.5 125C 28.4299 125 0 97.0178 0 62.5C 0 27.9822 28.4299 0 63.5 0C 98.5701 0 127 27.9822 127 62.5Z"/>
<path id="path1_fill" d="M 36.0009 65.9564L 0 2.47215C 37.0858 -7.76407 62.7961 16.2517 71.0154 29.5391C 85.3172 53.1611 83.3445 89.0863 63.1248 105.819L 36.0009 65.9564Z"/>
<path id="path2_fill" d="M 0 7.1656L 86.2157 0L 97.9599 21.3595L 86.2157 37.4816L 0 37.4816L 0 7.1656Z"/>
<path id="path3_fill" d="M 17.6853 8.8192C 17.6853 13.6899 13.7263 17.6384 8.84264 17.6384C 3.95899 17.6384 0 13.6899 0 8.8192C 0 3.94849 3.95899 0 8.84264 0C 13.7263 0 17.6853 3.94849 17.6853 8.8192Z"/>
<path id="path4_fill" d="M 107.217 52.9726L 107.217 46.8554C 107.217 28.9215 92.588 14.3324 74.6065 14.3324L 63.0027 14.3324L 63.0027 10.9304C 72.7009 10.7044 81.1367 10.076 87.9522 9.08936L 93.302 13.047C 93.9939 13.5585 94.7898 13.8176 95.5956 13.8176C 96.1869 13.8176 96.7838 13.6776 97.3497 13.3931C 98.6828 12.7229 99.4797 11.4342 99.4797 9.94483L 99.4797 6.60014C 101.114 6.06658 102.496 5.48893 103.606 4.86938C 104.277 4.49346 104.601 3.70745 104.388 2.96994C 104.176 2.23244 103.473 1.74958 102.714 1.77494C 95.0219 2.14976 89.0863 2.2159 79.4544 2.2159L 79.4489 2.2159L 65.2145 2.20598C 62.6302 2.20598 59.8912 2.217 57.0461 2.22803C 53.9799 2.24015 50.791 2.25118 47.5447 2.25118C 32.2668 2.25118 15.164 1.9866 4.15936 0.0254314C 3.4431 -0.100242 2.73238 0.248118 2.39746 0.88751C 2.06255 1.528 2.18303 2.31181 2.6959 2.82222C 6.14564 6.26281 17.5438 8.65392 30.9968 9.9327L 30.9968 14.3313L 18.2413 14.3313C 10.62 14.3324 4.42132 20.5146 4.42132 28.1146L 4.42132 34.1756L 24.3946 34.1756L 24.3946 37.4828L 4.42132 37.4828L 4.42132 52.9164L 2.76664 52.9164C 1.24129 52.9164 0 54.1533 0 55.6746L 0 57.8739C 0 59.3952 1.24129 60.6332 2.76664 60.6332L 4.42132 60.6332L 12.855 60.6332C 13.6552 65.6226 17.9881 69.4524 23.2119 69.4524C 28.4357 69.4524 32.7686 65.6226 33.5689 60.6332L 71.9901 60.6332C 72.7904 65.6226 77.1233 69.4524 82.3471 69.4524C 87.5709 69.4524 91.9038 65.6226 92.704 60.6332L 95.0584 60.6332L 106.661 60.6332L 107.217 60.6332L 107.217 60.5769C 108.477 60.3201 109.428 59.2056 109.428 57.8739L 109.428 55.6746C 109.428 54.3429 108.477 53.2295 107.217 52.9726ZM 96.1637 9.94593C 96.1637 10.1752 96.0631 10.3373 95.8575 10.4409C 95.6519 10.5445 95.4651 10.5291 95.2783 10.3902L 92.4984 8.33422C 93.8016 8.08397 95.0241 7.8194 96.1637 7.53829L 96.1637 9.94593ZM 34.3139 10.2237C 40.9657 10.7551 47.9868 11.0252 54.7138 11.0252C 56.4039 11.0252 58.0597 11.0131 59.6867 10.991L 59.6867 14.3324L 34.3139 14.3324L 34.3139 10.2237ZM 23.2119 66.1452C 19.2504 66.1452 16.0273 62.9306 16.0273 58.9796C 16.0273 55.0286 19.2504 51.814 23.2119 51.814C 27.1734 51.814 30.3966 55.0286 30.3966 58.9796C 30.3966 62.9306 27.1734 66.1452 23.2119 66.1452ZM 32.0557 33.9915L 32.0557 24.437C 32.0557 23.124 33.1334 22.0481 34.4498 22.0481L 46.2393 22.0481C 47.5568 22.0481 48.6345 23.124 48.6345 24.437L 48.6345 33.9915C 48.6345 35.3055 47.5568 36.3804 46.2393 36.3804L 34.4498 36.3804C 33.1334 36.3804 32.0557 35.3055 32.0557 33.9915ZM 67.2416 52.9164L 54.7138 52.9164L 35.3706 52.9164L 69.6358 52.9164L 67.2416 52.9164ZM 69.6358 33.9915C 69.6358 35.3044 68.5581 36.3793 67.2416 36.3793L 55.4511 36.3793C 54.1335 36.3793 53.0558 35.3044 53.0558 33.9915L 53.0558 24.437C 53.0558 23.124 54.1335 22.0481 55.4511 22.0481L 67.2416 22.0481C 68.5581 22.0481 69.6358 23.124 69.6358 24.437L 69.6358 33.9915ZM 82.3471 66.1452C 78.3856 66.1452 75.1624 62.9306 75.1624 58.9796C 75.1624 55.0286 78.3856 51.814 82.3471 51.814C 86.3086 51.814 89.5317 55.0286 89.5317 58.9796C 89.5317 62.9306 86.3086 66.1452 82.3471 66.1452ZM 76.3098 36.3793C 75.0707 36.3793 74.0571 35.3044 74.0571 33.9915L 74.0571 24.437C 74.0571 23.124 75.0707 22.0481 76.3098 22.0481L 90.4889 22.0481C 94.9291 25.7565 98.4109 30.6997 100.47 36.3793L 76.3098 36.3793Z"/>
<path id="path5_stroke_2x" d="M 107.217 52.9726L 104.217 52.9726L 104.217 55.4228L 106.618 55.9121L 107.217 52.9726ZM 63.0027 14.3324L 60.0027 14.3324L 60.0027 17.3324L 63.0027 17.3324L 63.0027 14.3324ZM 63.0027 10.9304L 62.9328 7.93118L 60.0027 7.99946L 60.0027 10.9304L 63.0027 10.9304ZM 87.9522 9.08936L 89.7364 6.67757L 88.744 5.94346L 87.5224 6.12031L 87.9522 9.08936ZM 93.302 13.047L 91.5178 15.4588L 91.5187 15.4594L 93.302 13.047ZM 97.3497 13.3931L 98.6969 16.0737L 98.6974 16.0734L 97.3497 13.3931ZM 99.4797 6.60014L 98.5489 3.7482L 96.4797 4.42354L 96.4797 6.60014L 99.4797 6.60014ZM 103.606 4.86938L 105.068 7.48882L 105.072 7.48657L 103.606 4.86938ZM 102.714 1.77494L 102.614 -1.22339L 102.591 -1.22262L 102.568 -1.2215L 102.714 1.77494ZM 79.4489 2.2159L 79.4468 5.2159L 79.4489 5.2159L 79.4489 2.2159ZM 65.2145 2.20598L 65.2166 -0.794021L 65.2145 -0.794021L 65.2145 2.20598ZM 57.0461 2.22803L 57.0345 -0.77195L 57.0342 -0.771949L 57.0461 2.22803ZM 4.15936 0.0254314L 4.6857 -2.92805L 4.67782 -2.92943L 4.15936 0.0254314ZM 2.39746 0.88751L -0.260042 -0.504497L -0.261026 -0.502616L 2.39746 0.88751ZM 2.6959 2.82222L 4.8144 0.698085L 4.81211 0.695802L 2.6959 2.82222ZM 30.9968 9.9327L 33.9968 9.9327L 33.9968 7.20434L 31.2807 6.94616L 30.9968 9.9327ZM 30.9968 14.3313L 30.9968 17.3313L 33.9968 17.3313L 33.9968 14.3313L 30.9968 14.3313ZM 18.2413 14.3313L 18.2413 11.3313L 18.2408 11.3313L 18.2413 14.3313ZM 4.42132 34.1756L 1.42132 34.1756L 1.42132 37.1756L 4.42132 37.1756L 4.42132 34.1756ZM 24.3946 34.1756L 27.3946 34.1756L 27.3946 31.1756L 24.3946 31.1756L 24.3946 34.1756ZM 24.3946 37.4828L 24.3946 40.4828L 27.3946 40.4828L 27.3946 37.4828L 24.3946 37.4828ZM 4.42132 37.4828L 4.42132 34.4828L 1.42132 34.4828L 1.42132 37.4828L 4.42132 37.4828ZM 4.42132 52.9164L 4.42132 55.9164L 7.42132 55.9164L 7.42132 52.9164L 4.42132 52.9164ZM 12.855 60.6332L 15.8171 60.1581L 15.4122 57.6332L 12.855 57.6332L 12.855 60.6332ZM 33.5689 60.6332L 33.5689 57.6332L 31.0117 57.6332L 30.6067 60.1581L 33.5689 60.6332ZM 71.9901 60.6332L 74.9523 60.1581L 74.5473 57.6332L 71.9901 57.6332L 71.9901 60.6332ZM 92.704 60.6332L 92.704 57.6332L 90.1469 57.6332L 89.7419 60.1581L 92.704 60.6332ZM 107.217 60.6332L 107.217 63.6332L 110.217 63.6332L 110.217 60.6332L 107.217 60.6332ZM 107.217 60.5769L 106.618 57.6374L 104.217 58.1268L 104.217 60.5769L 107.217 60.5769ZM 95.2783 10.3902L 97.0685 7.98279L 97.0622 7.97819L 95.2783 10.3902ZM 92.4984 8.33422L 91.9327 5.38805L 85.2141 6.67818L 90.7146 10.7462L 92.4984 8.33422ZM 96.1637 7.53829L 99.1637 7.53829L 99.1637 3.70833L 95.4452 4.6256L 96.1637 7.53829ZM 34.3139 10.2237L 34.5527 7.23326L 31.3139 6.97453L 31.3139 10.2237L 34.3139 10.2237ZM 59.6867 10.991L 62.6867 10.991L 62.6867 7.95007L 59.6461 7.99128L 59.6867 10.991ZM 59.6867 14.3324L 59.6867 17.3324L 62.6867 17.3324L 62.6867 14.3324L 59.6867 14.3324ZM 34.3139 14.3324L 31.3139 14.3324L 31.3139 17.3324L 34.3139 17.3324L 34.3139 14.3324ZM 90.4889 22.0481L 92.4121 19.7455L 91.577 19.0481L 90.4889 19.0481L 90.4889 22.0481ZM 100.47 36.3793L 100.47 39.3793L 104.749 39.3793L 103.29 35.3567L 100.47 36.3793ZM 110.217 52.9726L 110.217 46.8554L 104.217 46.8554L 104.217 52.9726L 110.217 52.9726ZM 110.217 46.8554C 110.217 27.257 94.2372 11.3324 74.6065 11.3324L 74.6065 17.3324C 90.9388 17.3324 104.217 30.586 104.217 46.8554L 110.217 46.8554ZM 74.6065 11.3324L 63.0027 11.3324L 63.0027 17.3324L 74.6065 17.3324L 74.6065 11.3324ZM 66.0027 14.3324L 66.0027 10.9304L 60.0027 10.9304L 60.0027 14.3324L 66.0027 14.3324ZM 63.0726 13.9296C 72.8473 13.7008 81.4633 13.0582 88.382 12.0584L 87.5224 6.12031C 80.8102 7.09383 72.5545 7.70795 62.9328 7.93118L 63.0726 13.9296ZM 86.168 11.5012L 91.5178 15.4588L 95.0862 10.6352L 89.7364 6.67757L 86.168 11.5012ZM 91.5187 15.4594C 92.6202 16.2255 94.3197 16.7805 95.5956 16.8176L 95.5956 10.8176C 95.2599 10.8546 95.3677 10.8915 95.0854 10.6346L 91.5187 15.4594ZM 95.5956 16.8176C 96.5318 16.7977 97.807 16.4977 98.6969 16.0737L 96.0026 10.7126C 95.7606 10.8574 95.8421 10.8374 95.5956 10.8176L 95.5956 16.8176ZM 98.6974 16.0734C 101.039 14.8959 102.48 12.5728 102.48 9.94483L 96.4797 9.94483C 96.4797 10.2955 96.3263 10.5498 96.0021 10.7129L 98.6974 16.0734ZM 102.48 9.94483L 102.48 6.60014L 96.4797 6.60014L 96.4797 9.94483L 102.48 9.94483ZM 100.411 9.45209C 102.159 8.87875 103.808 8.18688 105.068 7.48882L 102.144 2.24994C 101.184 2.79097 100.07 3.25442 98.5489 3.7482L 100.411 9.45209ZM 105.072 7.48657C 106.954 6.43203 107.87 4.22058 107.271 2.14033L 101.505 3.79955C 101.331 3.19432 101.599 2.55489 102.14 2.25218L 105.072 7.48657ZM 107.271 2.14033C 106.66 0.0139218 104.675 -1.29221 102.614 -1.22339L 102.814 4.77327C 102.272 4.79138 101.693 4.45095 101.505 3.79955L 107.271 2.14033ZM 102.568 -1.2215C 94.9322 -0.848902 89.0696 -0.784052 79.4544 -0.784099L 79.4544 5.2159C 89.103 5.21585 95.1116 5.14841 102.86 4.77138L 102.568 -1.2215ZM 79.4544 -0.784099L 79.4489 -0.784099L 79.4489 5.2159L 79.4544 5.2159L 79.4544 -0.784099ZM 79.451 -0.784098L 65.2166 -0.79402L 65.2124 5.20598L 79.4468 5.2159L 79.451 -0.784098ZM 65.2145 -0.794021C 62.6242 -0.794015 59.8794 -0.782973 57.0345 -0.77195L 57.0577 5.228C 59.9031 5.21698 62.6362 5.20597 65.2145 5.20598L 65.2145 -0.794021ZM 57.0342 -0.771949C 53.9688 -0.759826 50.7858 -0.748818 47.5447 -0.748822L 47.5447 5.25118C 50.7962 5.25117 53.991 5.24013 57.0579 5.228L 57.0342 -0.771949ZM 47.5447 -0.748822C 32.29 -0.748733 15.4513 -0.99961 4.6857 -2.92803L 3.63301 2.9789C 14.8767 4.97281 32.2436 5.25109 47.5447 5.25118L 47.5447 -0.748822ZM 4.67782 -2.92943C 2.68567 -3.27897 0.685391 -2.30944 -0.260042 -0.504497L 5.05496 2.27952C 4.77936 2.80567 4.20054 3.07849 3.6409 2.98029L 4.67782 -2.92943ZM -0.261026 -0.502616C -1.20459 1.30186 -0.864949 3.51093 0.57969 4.94864L 4.81211 0.695802C 5.231 1.11268 5.32968 1.75415 5.05595 2.27763L -0.261026 -0.502616ZM 0.577397 4.94635C 2.96744 7.33007 7.47302 8.92727 12.3968 10.1057C 17.4887 11.3214 23.9091 12.2715 30.7129 12.9192L 31.2807 6.94616C 24.6315 6.31513 18.6263 5.43026 13.7934 4.27054C 8.79246 3.07361 5.87409 1.75496 4.8144 0.698086L 0.577397 4.94635ZM 27.9968 9.9327L 27.9968 14.3313L 33.9968 14.3313L 33.9968 9.9327L 27.9968 9.9327ZM 30.9968 11.3313L 18.2413 11.3313L 18.2413 17.3313L 30.9968 17.3313L 30.9968 11.3313ZM 18.2408 11.3313C 8.97082 11.3326 1.42132 18.85 1.42132 28.1146L 7.42132 28.1146C 7.42132 22.1792 12.2692 17.3321 18.2417 17.3313L 18.2408 11.3313ZM 1.42132 28.1146L 1.42132 34.1756L 7.42132 34.1756L 7.42132 28.1146L 1.42132 28.1146ZM 4.42132 37.1756L 24.3946 37.1756L 24.3946 31.1756L 4.42132 31.1756L 4.42132 37.1756ZM 21.3946 34.1756L 21.3946 37.4828L 27.3946 37.4828L 27.3946 34.1756L 21.3946 34.1756ZM 24.3946 34.4828L 4.42132 34.4828L 4.42132 40.4828L 24.3946 40.4828L 24.3946 34.4828ZM 1.42132 37.4828L 1.42132 52.9164L 7.42132 52.9164L 7.42132 37.4828L 1.42132 37.4828ZM 4.42132 49.9164L 2.76664 49.9164L 2.76664 55.9164L 4.42132 55.9164L 4.42132 49.9164ZM 2.76664 49.9164C -0.406491 49.9164 -3 52.4873 -3 55.6746L 3 55.6746C 3 55.8192 2.88906 55.9164 2.76664 55.9164L 2.76664 49.9164ZM -3 55.6746L -3 57.8739L 3 57.8739L 3 55.6746L -3 55.6746ZM -3 57.8739C -3 61.0595 -0.408053 63.6332 2.76664 63.6332L 2.76664 57.6332C 2.89062 57.6332 3 57.7308 3 57.8739L -3 57.8739ZM 2.76664 63.6332L 4.42132 63.6332L 4.42132 57.6332L 2.76664 57.6332L 2.76664 63.6332ZM 4.42132 63.6332L 12.855 63.6332L 12.855 57.6332L 4.42132 57.6332L 4.42132 63.6332ZM 9.89285 61.1083C 10.9223 67.5265 16.4885 72.4524 23.2119 72.4524L 23.2119 66.4524C 19.4878 66.4524 16.3882 63.7187 15.8171 60.1581L 9.89285 61.1083ZM 23.2119 72.4524C 29.9354 72.4524 35.5016 67.5265 36.531 61.1083L 30.6067 60.1581C 30.0356 63.7187 26.936 66.4524 23.2119 66.4524L 23.2119 72.4524ZM 33.5689 63.6332L 71.9901 63.6332L 71.9901 57.6332L 33.5689 57.6332L 33.5689 63.6332ZM 69.028 61.1083C 70.0574 67.5265 75.6236 72.4524 82.3471 72.4524L 82.3471 66.4524C 78.623 66.4524 75.5234 63.7187 74.9523 60.1581L 69.028 61.1083ZM 82.3471 72.4524C 89.0706 72.4524 94.6367 67.5265 95.6662 61.1083L 89.7419 60.1581C 89.1708 63.7187 86.0712 66.4524 82.3471 66.4524L 82.3471 72.4524ZM 92.704 63.6332L 95.0584 63.6332L 95.0584 57.6332L 92.704 57.6332L 92.704 63.6332ZM 95.0584 63.6332L 106.661 63.6332L 106.661 57.6332L 95.0584 57.6332L 95.0584 63.6332ZM 106.661 63.6332L 107.217 63.6332L 107.217 57.6332L 106.661 57.6332L 106.661 63.6332ZM 110.217 60.6332L 110.217 60.5769L 104.217 60.5769L 104.217 60.6332L 110.217 60.6332ZM 107.816 63.5165C 110.439 62.9818 112.428 60.6663 112.428 57.8739L 106.428 57.8739C 106.428 57.8129 106.452 57.7538 106.484 57.7151C 106.513 57.6806 106.557 57.6497 106.618 57.6374L 107.816 63.5165ZM 112.428 57.8739L 112.428 55.6746L 106.428 55.6746L 106.428 57.8739L 112.428 57.8739ZM 112.428 55.6746C 112.428 52.8807 110.438 50.5674 107.816 50.033L 106.618 55.9121C 106.558 55.9 106.514 55.8694 106.485 55.8345C 106.452 55.7953 106.428 55.7357 106.428 55.6746L 112.428 55.6746ZM 93.1637 9.94593C 93.1637 9.61097 93.2419 9.13798 93.537 8.6614C 93.8311 8.18626 94.2163 7.9086 94.5072 7.76196L 97.2078 13.1198C 98.415 12.5114 99.1637 11.3192 99.1637 9.94593L 93.1637 9.94593ZM 94.5072 7.76196C 94.7919 7.61847 95.2496 7.46845 95.819 7.51762C 96.3884 7.56679 96.8132 7.793 97.0684 7.9828L 93.4882 12.7976C 94.5866 13.6143 95.9889 13.7342 97.2078 13.1198L 94.5072 7.76196ZM 97.0622 7.97819L 94.2823 5.92221L 90.7146 10.7462L 93.4945 12.8022L 97.0622 7.97819ZM 93.0642 11.2804C 94.4018 11.0233 95.7007 10.7421 96.8822 10.451L 95.4452 4.6256C 94.3475 4.89669 93.2014 5.14463 91.9327 5.38805L 93.0642 11.2804ZM 93.1637 7.53829L 93.1637 9.94593L 99.1637 9.94593L 99.1637 7.53829L 93.1637 7.53829ZM 34.075 13.2142C 40.7886 13.7499 47.9291 14.0246 54.7138 14.0252L 54.7138 8.02518C 48.0445 8.02573 41.1429 7.76032 34.5527 7.23326L 34.075 13.2142ZM 54.7138 14.0252C 56.4149 14.0252 58.091 14.0129 59.7274 13.9907L 59.6461 7.99128C 58.0284 8.01321 56.3929 8.0252 54.7138 8.02518L 54.7138 14.0252ZM 56.6867 10.991L 56.6867 14.3324L 62.6867 14.3324L 62.6867 10.991L 56.6867 10.991ZM 59.6867 11.3324L 34.3139 11.3324L 34.3139 17.3324L 59.6867 17.3324L 59.6867 11.3324ZM 37.3139 14.3324L 37.3139 10.2237L 31.3139 10.2237L 31.3139 14.3324L 37.3139 14.3324ZM 23.2119 63.1452C 20.8998 63.1452 19.0273 61.2662 19.0273 58.9796L 13.0273 58.9796C 13.0273 64.5949 17.6011 69.1452 23.2119 69.1452L 23.2119 63.1452ZM 19.0273 58.9796C 19.0273 56.6929 20.8998 54.814 23.2119 54.814L 23.2119 48.814C 17.6011 48.814 13.0273 53.3642 13.0273 58.9796L 19.0273 58.9796ZM 23.2119 54.814C 25.5241 54.814 27.3966 56.6929 27.3966 58.9796L 33.3966 58.9796C 33.3966 53.3642 28.8228 48.814 23.2119 48.814L 23.2119 54.814ZM 27.3966 58.9796C 27.3966 61.2662 25.5241 63.1452 23.2119 63.1452L 23.2119 69.1452C 28.8228 69.1452 33.3966 64.5949 33.3966 58.9796L 27.3966 58.9796ZM 35.0557 33.9915L 35.0557 24.437L 29.0557 24.437L 29.0557 33.9915L 35.0557 33.9915ZM 35.0557 24.437C 35.0557 24.7866 34.7845 25.0481 34.4498 25.0481L 34.4498 19.0481C 31.4822 19.0481 29.0557 21.4615 29.0557 24.437L 35.0557 24.437ZM 34.4498 25.0481L 46.2393 25.0481L 46.2393 19.0481L 34.4498 19.0481L 34.4498 25.0481ZM 46.2393 25.0481C 45.9066 25.0481 45.6345 24.7875 45.6345 24.437L 51.6345 24.437C 51.6345 21.4606 49.2071 19.0481 46.2393 19.0481L 46.2393 25.0481ZM 45.6345 24.437L 45.6345 33.9915L 51.6345 33.9915L 51.6345 24.437L 45.6345 24.437ZM 45.6345 33.9915C 45.6345 33.6412 45.9075 33.3804 46.2393 33.3804L 46.2393 39.3804C 49.2062 39.3804 51.6345 36.9699 51.6345 33.9915L 45.6345 33.9915ZM 46.2393 33.3804L 34.4498 33.3804L 34.4498 39.3804L 46.2393 39.3804L 46.2393 33.3804ZM 34.4498 33.3804C 34.7836 33.3804 35.0557 33.6421 35.0557 33.9915L 29.0557 33.9915C 29.0557 36.969 31.4831 39.3804 34.4498 39.3804L 34.4498 33.3804ZM 67.2416 49.9164L 54.7138 49.9164L 54.7138 55.9164L 67.2416 55.9164L 67.2416 49.9164ZM 54.7138 49.9164L 35.3706 49.9164L 35.3706 55.9164L 54.7138 55.9164L 54.7138 49.9164ZM 35.3706 55.9164L 69.6358 55.9164L 69.6358 49.9164L 35.3706 49.9164L 35.3706 55.9164ZM 69.6358 49.9164L 67.2416 49.9164L 67.2416 55.9164L 69.6358 55.9164L 69.6358 49.9164ZM 66.6358 33.9915C 66.6358 33.6401 66.9088 33.3793 67.2416 33.3793L 67.2416 39.3793C 70.2074 39.3793 72.6358 36.9688 72.6358 33.9915L 66.6358 33.9915ZM 67.2416 33.3793L 55.4511 33.3793L 55.4511 39.3793L 67.2416 39.3793L 67.2416 33.3793ZM 55.4511 33.3793C 55.782 33.3793 56.0558 33.6392 56.0558 33.9915L 50.0558 33.9915C 50.0558 36.9697 52.4851 39.3793 55.4511 39.3793L 55.4511 33.3793ZM 56.0558 33.9915L 56.0558 24.437L 50.0558 24.437L 50.0558 33.9915L 56.0558 33.9915ZM 56.0558 24.437C 56.0558 24.7875 55.7838 25.0481 55.4511 25.0481L 55.4511 19.0481C 52.4833 19.0481 50.0558 21.4606 50.0558 24.437L 56.0558 24.437ZM 55.4511 25.0481L 67.2416 25.0481L 67.2416 19.0481L 55.4511 19.0481L 55.4511 25.0481ZM 67.2416 25.0481C 66.907 25.0481 66.6358 24.7866 66.6358 24.437L 72.6358 24.437C 72.6358 21.4615 70.2092 19.0481 67.2416 19.0481L 67.2416 25.0481ZM 66.6358 24.437L 66.6358 33.9915L 72.6358 33.9915L 72.6358 24.437L 66.6358 24.437ZM 82.3471 63.1452C 80.0349 63.1452 78.1624 61.2662 78.1624 58.9796L 72.1624 58.9796C 72.1624 64.5949 76.7362 69.1452 82.3471 69.1452L 82.3471 63.1452ZM 78.1624 58.9796C 78.1624 56.6929 80.0349 54.814 82.3471 54.814L 82.3471 48.814C 76.7362 48.814 72.1624 53.3642 72.1624 58.9796L 78.1624 58.9796ZM 82.3471 54.814C 84.6592 54.814 86.5317 56.6929 86.5317 58.9796L 92.5317 58.9796C 92.5317 53.3642 87.9579 48.814 82.3471 48.814L 82.3471 54.814ZM 86.5317 58.9796C 86.5317 61.2662 84.6592 63.1452 82.3471 63.1452L 82.3471 69.1452C 87.9579 69.1452 92.5317 64.5949 92.5317 58.9796L 86.5317 58.9796ZM 76.3098 33.3793C 76.5843 33.3793 76.791 33.5025 76.9011 33.6192C 77.0089 33.7335 77.0571 33.8694 77.0571 33.9915L 71.0571 33.9915C 71.0571 36.7939 73.2512 39.3793 76.3098 39.3793L 76.3098 33.3793ZM 77.0571 33.9915L 77.0571 24.437L 71.0571 24.437L 71.0571 33.9915L 77.0571 33.9915ZM 77.0571 24.437C 77.0571 24.5588 77.009 24.6942 76.9017 24.808C 76.7921 24.9243 76.5853 25.0481 76.3098 25.0481L 76.3098 19.0481C 73.2495 19.0481 71.0571 21.6364 71.0571 24.437L 77.0571 24.437ZM 76.3098 25.0481L 90.4889 25.0481L 90.4889 19.0481L 76.3098 19.0481L 76.3098 25.0481ZM 88.5658 24.3506C 92.7224 27.7889 95.7509 32.087 97.6497 37.4018L 103.29 35.3567C 101.071 29.3124 97.1357 23.7242 92.4121 19.7455L 88.5658 24.3506ZM 100.47 33.3793L 76.3098 33.3793L 76.3098 39.3793L 100.47 39.3793L 100.47 33.3793Z"/>
<path id="path6_fill" d="M 2.76333 0C 1.24129 0 0 1.23799 0 2.756C 0 4.2729 1.24129 5.5109 2.76333 5.5109C 4.28536 5.5109 5.52665 4.2729 5.52665 2.756C 5.52665 1.23799 4.28536 0 2.76333 0Z"/>
<path id="path7_fill" d="M 54.4701 7.20037C 19.8088 7.20037 11.7244 5.10026 0 0L 97.4026 1.50008C 88.3839 4.80025 83.0469 7.20037 54.4701 7.20037Z"/>
</defs>
</svg>
