<svg width="95" height="91" viewBox="0 0 95 91" version="1.1" xmlns="http://www.w3.org/2000/svg" xmlns:xlink="http://www.w3.org/1999/xlink">
<title>group_icon</title>
<desc>Created using Figma</desc>
<g id="Canvas" transform="translate(1095 1363)">
<g id="group_icon">
<g id="noun_1178185_cc">
<g id="Group">
<g id="Ellipse 4">
<use xlink:href="#path0_fill" transform="translate(-1093.56 -1363)" fill="#EFF8FF"/>
</g>
<g id="Vector 10">
<use xlink:href="#path1_fill" transform="translate(-1061.17 -1363)" fill="#D0E6F7"/>
</g>
<g id="Rectangle 25">
<use xlink:href="#path2_fill" transform="translate(-1090.44 -1334.58)" fill="#FFFFFF"/>
</g>
<g id="Ellipse 10">
<use xlink:href="#path3_fill" transform="translate(-1081.81 -1304.01)" fill="#FFFFFF"/>
</g>
<g id="Ellipse 10">
<use xlink:href="#path3_fill" transform="translate(-1030.95 -1304.01)" fill="#FFFFFF"/>
</g>
<g id="Vector">
<use xlink:href="#path4_fill" transform="translate(-1095 -1350.82)" fill="#CCE7FF"/>
<mask id="mask0_outline_ins">
<use xlink:href="#path4_fill" fill="white" transform="translate(-1095 -1350.82)"/>
</mask>
<g mask="url(#mask0_outline_ins)">
<use xlink:href="#path5_stroke_2x" transform="translate(-1095 -1350.82)" fill="#1078FF"/>
</g>
</g>
<g id="Vector">
<use xlink:href="#path6_fill" transform="translate(-1025.91 -1302.09)" fill="#1078FF"/>
</g>
<g id="Vector">
<use xlink:href="#path6_fill" transform="translate(-1077.25 -1302.09)" fill="#1078FF"/>
</g>
</g>
</g>
<g id="Vector 12">
<use xlink:href="#path7_fill" transform="translate(-1088.52 -1348.31)" fill="#1078FF"/>
</g>
</g>
</g>
<defs>
<path id="path0_fill" d="M 91.4015 45.5C 91.4015 70.629 70.9406 91 45.7008 91C 20.4609 91 0 70.629 0 45.5C 0 20.371 20.4609 0 45.7008 0C 70.9406 0 91.4015 20.371 91.4015 45.5Z"/>
<path id="path1_fill" d="M 26.2689 48.0163L 0 1.79973C 27.0606 -5.65224 45.8207 11.8312 51.8182 21.5045C 62.2538 38.7013 60.8144 64.8548 46.0606 77.0359L 26.2689 48.0163Z"/>
<path id="path2_fill" d="M 0 6.20987L 74.8485 0L 85.0443 18.5106L 74.8485 32.4824L 0 32.4824L 0 6.20987Z"/>
<path id="path3_fill" d="M 15.3535 7.64292C 15.3535 11.864 11.9165 15.2858 7.67677 15.2858C 3.43701 15.2858 0 11.864 0 7.64292C 0 3.42185 3.43701 0 7.67677 0C 11.9165 0 15.3535 3.42185 15.3535 7.64292Z"/>
<path id="path4_fill" d="M 93.0808 45.9072L 93.0808 40.6059C 93.0808 25.064 80.3806 12.4208 64.7699 12.4208L 54.696 12.4208L 54.696 9.4725C 63.1155 9.27665 70.4391 8.7321 76.356 7.87705L 81.0005 11.3068C 81.6012 11.7501 82.2921 11.9746 82.9916 11.9746C 83.505 11.9746 84.0232 11.8533 84.5145 11.6068C 85.6718 11.0259 86.3636 9.90911 86.3636 8.61841L 86.3636 5.71983C 87.7829 5.25744 88.9824 4.75683 89.9458 4.21991C 90.5283 3.89413 90.8094 3.21296 90.6252 2.57382C 90.441 1.93468 89.8307 1.51623 89.1714 1.5382C 82.4936 1.86303 77.3406 1.92035 68.9786 1.92035L 68.9738 1.92035L 56.6162 1.91175C 54.3726 1.91175 51.9947 1.9213 49.5247 1.93086C 46.8628 1.94137 44.0944 1.95092 41.2761 1.95092C 28.0125 1.95092 13.1647 1.72163 3.61096 0.0220394C 2.98914 -0.0868721 2.37212 0.215024 2.08136 0.769136C 1.79061 1.3242 1.8952 2.00347 2.34045 2.4458C 5.33535 5.42749 15.2307 7.49968 26.9099 8.6079L 26.9099 12.4198L 15.8362 12.4198C 9.2198 12.4208 3.83838 17.7784 3.83838 24.3647L 3.83838 29.6173L 21.1783 29.6173L 21.1783 32.4834L 3.83838 32.4834L 3.83838 45.8585L 2.40187 45.8585C 1.07763 45.8585 0 46.9304 0 48.2488L 0 50.1548C 0 51.4732 1.07763 52.5461 2.40187 52.5461L 3.83838 52.5461L 11.1601 52.5461C 11.8548 56.87 15.6165 60.189 20.1515 60.189C 24.6866 60.189 28.4482 56.87 29.1429 52.5461L 62.4985 52.5461C 63.1932 56.87 66.9548 60.189 71.4899 60.189C 76.0249 60.189 79.7866 56.87 80.4813 52.5461L 82.5253 52.5461L 92.5981 52.5461L 93.0808 52.5461L 93.0808 52.4973C 94.1747 52.2747 95 51.3089 95 50.1548L 95 48.2488C 95 47.0947 94.1747 46.1298 93.0808 45.9072ZM 83.4848 8.61936C 83.4848 8.81808 83.3975 8.95852 83.219 9.04832C 83.0406 9.13813 82.8784 9.12475 82.7162 9.00438L 80.3028 7.22262C 81.4342 7.00575 82.4955 6.77647 83.4848 6.53285L 83.4848 8.61936ZM 29.7897 8.86012C 35.5645 9.3206 41.6599 9.55467 47.5 9.55467C 48.9672 9.55467 50.4047 9.54416 51.8172 9.52505L 51.8172 12.4208L 29.7897 12.4208L 29.7897 8.86012ZM 20.1515 57.3229C 16.7123 57.3229 13.9141 54.537 13.9141 51.113C 13.9141 47.689 16.7123 44.9031 20.1515 44.9031C 23.5907 44.9031 26.3889 47.689 26.3889 51.113C 26.3889 54.537 23.5907 57.3229 20.1515 57.3229ZM 27.8292 29.4578L 27.8292 21.1776C 27.8292 20.0398 28.7648 19.1074 29.9077 19.1074L 40.1428 19.1074C 41.2866 19.1074 42.2222 20.0398 42.2222 21.1776L 42.2222 29.4578C 42.2222 30.5966 41.2866 31.528 40.1428 31.528L 29.9077 31.528C 28.7648 31.528 27.8292 30.5966 27.8292 29.4578ZM 58.3761 45.8585L 47.5 45.8585L 30.7071 45.8585L 60.4545 45.8585L 58.3761 45.8585ZM 60.4545 29.4578C 60.4545 30.5956 59.5189 31.5271 58.3761 31.5271L 48.14 31.5271C 46.9962 31.5271 46.0606 30.5956 46.0606 29.4578L 46.0606 21.1776C 46.0606 20.0398 46.9962 19.1074 48.14 19.1074L 58.3761 19.1074C 59.5189 19.1074 60.4545 20.0398 60.4545 21.1776L 60.4545 29.4578ZM 71.4899 57.3229C 68.0507 57.3229 65.2525 54.537 65.2525 51.113C 65.2525 47.689 68.0507 44.9031 71.4899 44.9031C 74.9291 44.9031 77.7273 47.689 77.7273 51.113C 77.7273 54.537 74.9291 57.3229 71.4899 57.3229ZM 66.2486 31.5271C 65.1729 31.5271 64.2929 30.5956 64.2929 29.4578L 64.2929 21.1776C 64.2929 20.0398 65.1729 19.1074 66.2486 19.1074L 78.5583 19.1074C 82.413 22.3212 85.4357 26.6051 87.2234 31.5271L 66.2486 31.5271Z"/>
<path id="path5_stroke_2x" d="M 93.0808 45.9072L 90.0808 45.9072L 90.0808 48.3583L 92.4826 48.847L 93.0808 45.9072ZM 54.696 12.4208L 51.696 12.4208L 51.696 15.4208L 54.696 15.4208L 54.696 12.4208ZM 54.696 9.4725L 54.6262 6.47332L 51.696 6.54148L 51.696 9.4725L 54.696 9.4725ZM 76.356 7.87705L 78.1381 5.46375L 77.1467 4.73162L 75.9269 4.90789L 76.356 7.87705ZM 81.0005 11.3068L 79.2183 13.7201L 79.2191 13.7207L 81.0005 11.3068ZM 84.5145 11.6068L 85.8597 14.2883L 85.8603 14.288L 84.5145 11.6068ZM 86.3636 5.71983L 85.4343 2.86741L 83.3636 3.54204L 83.3636 5.71983L 86.3636 5.71983ZM 89.9458 4.21991L 91.4062 6.84045L 91.4102 6.83821L 89.9458 4.21991ZM 89.1714 1.5382L 89.0715 -1.46013L 89.0486 -1.45937L 89.0257 -1.45825L 89.1714 1.5382ZM 68.9738 1.92035L 68.9717 4.92035L 68.9738 4.92035L 68.9738 1.92035ZM 56.6162 1.91175L 56.6182 -1.08825L 56.6162 -1.08825L 56.6162 1.91175ZM 49.5247 1.93086L 49.5131 -1.06912L 49.5129 -1.06912L 49.5247 1.93086ZM 3.61096 0.0220394L 4.13641 -2.9316L 4.12853 -2.93298L 3.61096 0.0220394ZM 2.08136 0.769136L -0.575128 -0.624799L -0.576115 -0.622917L 2.08136 0.769136ZM 2.34045 2.4458L 4.45708 0.319796L 4.45479 0.317515L 2.34045 2.4458ZM 26.9099 8.6079L 29.9099 8.6079L 29.9099 5.87909L 27.1933 5.62132L 26.9099 8.6079ZM 26.9099 12.4198L 26.9099 15.4198L 29.9099 15.4198L 29.9099 12.4198L 26.9099 12.4198ZM 15.8362 12.4198L 15.8362 9.4198L 15.8358 9.4198L 15.8362 12.4198ZM 3.83838 29.6173L 0.838384 29.6173L 0.838384 32.6173L 3.83838 32.6173L 3.83838 29.6173ZM 21.1783 29.6173L 24.1783 29.6173L 24.1783 26.6173L 21.1783 26.6173L 21.1783 29.6173ZM 21.1783 32.4834L 21.1783 35.4834L 24.1783 35.4834L 24.1783 32.4834L 21.1783 32.4834ZM 3.83838 32.4834L 3.83838 29.4834L 0.838384 29.4834L 0.838384 32.4834L 3.83838 32.4834ZM 3.83838 45.8585L 3.83838 48.8585L 6.83838 48.8585L 6.83838 45.8585L 3.83838 45.8585ZM 11.1601 52.5461L 14.1221 52.0701L 13.7166 49.5461L 11.1601 49.5461L 11.1601 52.5461ZM 29.1429 52.5461L 29.1429 49.5461L 26.5865 49.5461L 26.1809 52.0701L 29.1429 52.5461ZM 62.4985 52.5461L 65.4605 52.0701L 65.0549 49.5461L 62.4985 49.5461L 62.4985 52.5461ZM 80.4813 52.5461L 80.4813 49.5461L 77.9249 49.5461L 77.5193 52.0701L 80.4813 52.5461ZM 93.0808 52.5461L 93.0808 55.5461L 96.0808 55.5461L 96.0808 52.5461L 93.0808 52.5461ZM 93.0808 52.4973L 92.4826 49.5576L 90.0808 50.0463L 90.0808 52.4973L 93.0808 52.4973ZM 82.7162 9.00438L 84.5043 6.59546L 84.4981 6.59087L 82.7162 9.00438ZM 80.3028 7.22262L 79.738 4.27626L 73.0083 5.56626L 78.521 9.63613L 80.3028 7.22262ZM 83.4848 6.53285L 86.4848 6.53285L 86.4848 2.70451L 82.7675 3.61986L 83.4848 6.53285ZM 29.7897 8.86012L 30.0282 5.86961L 26.7897 5.61137L 26.7897 8.86012L 29.7897 8.86012ZM 51.8172 9.52505L 54.8172 9.52505L 54.8172 6.48419L 51.7766 6.52532L 51.8172 9.52505ZM 51.8172 12.4208L 51.8172 15.4208L 54.8172 15.4208L 54.8172 12.4208L 51.8172 12.4208ZM 29.7897 12.4208L 26.7897 12.4208L 26.7897 15.4208L 29.7897 15.4208L 29.7897 12.4208ZM 78.5583 19.1074L 80.4794 16.8032L 79.6448 16.1074L 78.5583 16.1074L 78.5583 19.1074ZM 87.2234 31.5271L 87.2234 34.5271L 91.5048 34.5271L 90.0432 30.5029L 87.2234 31.5271ZM 96.0808 45.9072L 96.0808 40.6059L 90.0808 40.6059L 90.0808 45.9072L 96.0808 45.9072ZM 96.0808 40.6059C 96.0808 23.3946 82.0248 9.42076 64.7699 9.42076L 64.7699 15.4208C 78.7364 15.4208 90.0808 26.7335 90.0808 40.6059L 96.0808 40.6059ZM 64.7699 9.42076L 54.696 9.42076L 54.696 15.4208L 64.7699 15.4208L 64.7699 9.42076ZM 57.696 12.4208L 57.696 9.4725L 51.696 9.4725L 51.696 12.4208L 57.696 12.4208ZM 54.7658 12.4717C 63.2617 12.2731 70.7651 11.7143 76.7851 10.8462L 75.9269 4.90789C 70.1132 5.74986 62.9693 6.28022 54.6262 6.47332L 54.7658 12.4717ZM 74.5739 10.2903L 79.2183 13.7201L 82.7826 8.89351L 78.1381 5.46375L 74.5739 10.2903ZM 79.2191 13.7207C 80.2292 14.418 81.8227 14.9377 82.9916 14.9746L 82.9916 8.9746C 82.9643 8.9746 82.9365 8.97047 82.906 8.96034C 82.8757 8.95025 82.8335 8.93106 82.7818 8.89291L 79.2191 13.7207ZM 82.9916 14.9746C 83.8493 14.9548 85.0448 14.674 85.8597 14.2883L 83.1692 8.92532C 83.0854 8.96739 83.0268 8.9746 82.9916 8.9746L 82.9916 14.9746ZM 85.8603 14.288C 88.0255 13.2012 89.3636 11.0506 89.3636 8.61841L 83.3636 8.61841C 83.3636 8.71966 83.3391 8.77257 83.3222 8.79986C 83.3051 8.82746 83.2661 8.8767 83.1687 8.92557L 85.8603 14.288ZM 89.3636 8.61841L 89.3636 5.71983L 83.3636 5.71983L 83.3636 8.61841L 89.3636 8.61841ZM 87.293 8.57226C 88.8261 8.0702 90.2924 7.45568 91.4062 6.84045L 88.4854 1.59937C 87.6723 2.05797 86.7396 2.44467 85.4343 2.86741L 87.293 8.57226ZM 91.4102 6.83821C 93.2035 5.83525 94.0801 3.72823 93.5078 1.74286L 87.7426 3.40478C 87.5387 2.69769 87.8531 1.95301 88.4814 1.60161L 91.4102 6.83821ZM 93.5078 1.74286C 92.9226 -0.287412 91.0287 -1.52537 89.0715 -1.46013L 89.2714 4.53654C 88.6326 4.55783 87.9594 4.15677 87.7426 3.40478L 93.5078 1.74286ZM 89.0257 -1.45825C 82.404 -1.13564 77.3239 -1.0796 68.9786 -1.07965L 68.9786 4.92035C 77.3572 4.9203 82.5832 4.86169 89.3172 4.53466L 89.0257 -1.45825ZM 68.9786 -1.07965L 68.9738 -1.07965L 68.9738 4.92035L 68.9786 4.92035L 68.9786 -1.07965ZM 68.9759 -1.07965L 56.6182 -1.08825L 56.6141 4.91175L 68.9717 4.92035L 68.9759 -1.07965ZM 56.6162 -1.08825C 54.3666 -1.08824 51.9829 -1.07867 49.5131 -1.06912L 49.5364 4.93084C 52.0066 4.92128 54.3787 4.91174 56.6162 4.91175L 56.6162 -1.08825ZM 49.5129 -1.06912C 46.8517 -1.05861 44.0892 -1.04907 41.2761 -1.04908L 41.2761 4.95092C 44.0996 4.95092 46.8739 4.94135 49.5366 4.93084L 49.5129 -1.06912ZM 41.2761 -1.04908C 28.0357 -1.04899 13.4515 -1.26463 4.1364 -2.93159L 3.08551 2.97567C 12.8779 4.70789 27.9894 4.95083 41.2761 4.95092L 41.2761 -1.04908ZM 4.12853 -2.93298C 2.23424 -3.26476 0.327574 -2.34512 -0.575128 -0.624799L 4.73785 2.16307C 4.41667 2.77517 3.74405 3.09102 3.09339 2.97706L 4.12853 -2.93298ZM -0.576115 -0.622917C -1.47762 1.09809 -1.15232 3.20468 0.226121 4.57408L 4.45479 0.317515C 4.94272 0.802251 5.05883 1.55032 4.73884 2.16119L -0.576115 -0.622917ZM 0.223827 4.5718C 2.38657 6.72501 6.40234 8.12731 10.6714 9.14728C 15.1088 10.2044 20.7098 11.032 26.6266 11.5945L 27.1933 5.62132C 21.4309 5.07554 16.2446 4.31292 12.0657 3.31152C 7.7186 2.27292 5.28923 1.14828 4.45708 0.319797L 0.223827 4.5718ZM 23.9099 8.6079L 23.9099 12.4198L 29.9099 12.4198L 29.9099 8.6079L 23.9099 8.6079ZM 26.9099 9.4198L 15.8362 9.4198L 15.8362 15.4198L 26.9099 15.4198L 26.9099 9.4198ZM 15.8358 9.4198C 7.5756 9.421 0.838384 16.1089 0.838384 24.3647L 6.83838 24.3647C 6.83838 19.448 10.864 15.4205 15.8366 15.4198L 15.8358 9.4198ZM 0.838384 24.3647L 0.838384 29.6173L 6.83838 29.6173L 6.83838 24.3647L 0.838384 24.3647ZM 3.83838 32.6173L 21.1783 32.6173L 21.1783 26.6173L 3.83838 26.6173L 3.83838 32.6173ZM 18.1783 29.6173L 18.1783 32.4834L 24.1783 32.4834L 24.1783 29.6173L 18.1783 29.6173ZM 21.1783 29.4834L 3.83838 29.4834L 3.83838 35.4834L 21.1783 35.4834L 21.1783 29.4834ZM 0.838384 32.4834L 0.838384 45.8585L 6.83838 45.8585L 6.83838 32.4834L 0.838384 32.4834ZM 3.83838 42.8585L 2.40187 42.8585L 2.40187 48.8585L 3.83838 48.8585L 3.83838 42.8585ZM 2.40187 42.8585C -0.565148 42.8585 -3 45.2595 -3 48.2488L 3 48.2488C 3 48.6013 2.7204 48.8585 2.40187 48.8585L 2.40187 42.8585ZM -3 48.2488L -3 50.1548L 3 50.1548L 3 48.2488L -3 48.2488ZM -3 50.1548C -3 53.1425 -0.566711 55.5461 2.40187 55.5461L 2.40187 49.5461C 2.72196 49.5461 3 49.8038 3 50.1548L -3 50.1548ZM 2.40187 55.5461L 3.83838 55.5461L 3.83838 49.5461L 2.40187 49.5461L 2.40187 55.5461ZM 3.83838 55.5461L 11.1601 55.5461L 11.1601 49.5461L 3.83838 49.5461L 3.83838 55.5461ZM 8.19809 53.022C 9.12297 58.7782 14.1209 63.189 20.1515 63.189L 20.1515 57.189C 17.112 57.189 14.5867 54.9618 14.1221 52.0701L 8.19809 53.022ZM 20.1515 63.189C 26.1821 63.189 31.1801 58.7782 32.1049 53.022L 26.1809 52.0701C 25.7163 54.9618 23.191 57.189 20.1515 57.189L 20.1515 63.189ZM 29.1429 55.5461L 62.4985 55.5461L 62.4985 49.5461L 29.1429 49.5461L 29.1429 55.5461ZM 59.5365 53.022C 60.4613 58.7782 65.4593 63.189 71.4899 63.189L 71.4899 57.189C 68.4504 57.189 65.9251 54.9618 65.4605 52.0701L 59.5365 53.022ZM 71.4899 63.189C 77.5205 63.189 82.5184 58.7782 83.4433 53.022L 77.5193 52.0701C 77.0547 54.9618 74.5294 57.189 71.4899 57.189L 71.4899 63.189ZM 80.4813 55.5461L 82.5253 55.5461L 82.5253 49.5461L 80.4813 49.5461L 80.4813 55.5461ZM 82.5253 55.5461L 92.5981 55.5461L 92.5981 49.5461L 82.5253 49.5461L 82.5253 55.5461ZM 92.5981 55.5461L 93.0808 55.5461L 93.0808 49.5461L 92.5981 49.5461L 92.5981 55.5461ZM 96.0808 52.5461L 96.0808 52.4973L 90.0808 52.4973L 90.0808 52.5461L 96.0808 52.5461ZM 93.679 55.4371C 96.1326 54.9378 98 52.7735 98 50.1548L 92 50.1548C 92 49.8442 92.2169 49.6117 92.4826 49.5576L 93.679 55.4371ZM 98 50.1548L 98 48.2488L 92 48.2488L 92 50.1548L 98 50.1548ZM 98 48.2488C 98 45.6286 96.1312 43.4665 93.679 42.9675L 92.4826 48.847C 92.2183 48.7932 92 48.5609 92 48.2488L 98 48.2488ZM 80.4848 8.61936C 80.4848 8.26817 80.5668 7.78139 80.8694 7.29352C 81.1709 6.80738 81.5666 6.5214 81.8707 6.36842L 84.5674 11.7282C 85.7467 11.1349 86.4848 9.96487 86.4848 8.61936L 80.4848 8.61936ZM 81.8707 6.36842C 82.1686 6.2185 82.6384 6.06619 83.2191 6.11625C 83.8 6.16632 84.2366 6.39678 84.5043 6.59547L 80.9281 11.4133C 82.0014 12.2099 83.3771 12.3271 84.5674 11.7282L 81.8707 6.36842ZM 84.4981 6.59087L 82.0847 4.80911L 78.521 9.63613L 80.9344 11.4179L 84.4981 6.59087ZM 80.8676 10.169C 82.0334 9.94531 83.171 9.69943 84.2021 9.44583L 82.7675 3.61986C 81.82 3.8535 80.835 4.0662 79.738 4.27626L 80.8676 10.169ZM 80.4848 6.53285L 80.4848 8.61936L 86.4848 8.61936L 86.4848 6.53285L 80.4848 6.53285ZM 29.5512 11.8506C 35.3877 12.3154 41.6023 12.5541 47.5 12.5547L 47.5 6.55467C 41.7175 6.55522 35.7414 6.32582 30.0282 5.86961L 29.5512 11.8506ZM 47.5 12.5547C 48.9782 12.5546 50.436 12.544 51.8578 12.5248L 51.7766 6.52532C 50.3734 6.54432 48.9563 6.55469 47.5 6.55467L 47.5 12.5547ZM 48.8172 9.52505L 48.8172 12.4208L 54.8172 12.4208L 54.8172 9.52505L 48.8172 9.52505ZM 51.8172 9.42076L 29.7897 9.42076L 29.7897 15.4208L 51.8172 15.4208L 51.8172 9.42076ZM 32.7897 12.4208L 32.7897 8.86012L 26.7897 8.86012L 26.7897 12.4208L 32.7897 12.4208ZM 20.1515 54.3229C 18.3567 54.3229 16.9141 52.8677 16.9141 51.113L 10.9141 51.113C 10.9141 56.2064 15.068 60.3229 20.1515 60.3229L 20.1515 54.3229ZM 16.9141 51.113C 16.9141 49.3583 18.3567 47.9031 20.1515 47.9031L 20.1515 41.9031C 15.068 41.9031 10.9141 46.0196 10.9141 51.113L 16.9141 51.113ZM 20.1515 47.9031C 21.9464 47.9031 23.3889 49.3583 23.3889 51.113L 29.3889 51.113C 29.3889 46.0196 25.235 41.9031 20.1515 41.9031L 20.1515 47.9031ZM 23.3889 51.113C 23.3889 52.8677 21.9464 54.3229 20.1515 54.3229L 20.1515 60.3229C 25.235 60.3229 29.3889 56.2064 29.3889 51.113L 23.3889 51.113ZM 30.8292 29.4578L 30.8292 21.1776L 24.8292 21.1776L 24.8292 29.4578L 30.8292 29.4578ZM 30.8292 21.1776C 30.8292 21.7073 30.411 22.1074 29.9077 22.1074L 29.9077 16.1074C 27.1187 16.1074 24.8292 18.3722 24.8292 21.1776L 30.8292 21.1776ZM 29.9077 22.1074L 40.1428 22.1074L 40.1428 16.1074L 29.9077 16.1074L 29.9077 22.1074ZM 40.1428 22.1074C 39.6414 22.1074 39.2222 21.7082 39.2222 21.1776L 45.2222 21.1776C 45.2222 18.3713 42.9319 16.1074 40.1428 16.1074L 40.1428 22.1074ZM 39.2222 21.1776L 39.2222 29.4578L 45.2222 29.4578L 45.2222 21.1776L 39.2222 21.1776ZM 39.2222 29.4578C 39.2222 28.9272 39.6423 28.528 40.1428 28.528L 40.1428 34.528C 42.931 34.528 45.2222 32.2659 45.2222 29.4578L 39.2222 29.4578ZM 40.1428 28.528L 29.9077 28.528L 29.9077 34.528L 40.1428 34.528L 40.1428 28.528ZM 29.9077 28.528C 30.4101 28.528 30.8292 28.9281 30.8292 29.4578L 24.8292 29.4578C 24.8292 32.265 27.1196 34.528 29.9077 34.528L 29.9077 28.528ZM 58.3761 42.8585L 47.5 42.8585L 47.5 48.8585L 58.3761 48.8585L 58.3761 42.8585ZM 47.5 42.8585L 30.7071 42.8585L 30.7071 48.8585L 47.5 48.8585L 47.5 42.8585ZM 30.7071 48.8585L 60.4545 48.8585L 60.4545 42.8585L 30.7071 42.8585L 30.7071 48.8585ZM 60.4545 42.8585L 58.3761 42.8585L 58.3761 48.8585L 60.4545 48.8585L 60.4545 42.8585ZM 57.4545 29.4578C 57.4545 28.9263 57.8746 28.5271 58.3761 28.5271L 58.3761 34.5271C 61.1633 34.5271 63.4545 32.265 63.4545 29.4578L 57.4545 29.4578ZM 58.3761 28.5271L 48.14 28.5271L 48.14 34.5271L 58.3761 34.5271L 58.3761 28.5271ZM 48.14 28.5271C 48.6396 28.5271 49.0606 28.9254 49.0606 29.4578L 43.0606 29.4578C 43.0606 32.2659 45.3528 34.5271 48.14 34.5271L 48.14 28.5271ZM 49.0606 29.4578L 49.0606 21.1776L 43.0606 21.1776L 43.0606 29.4578L 49.0606 29.4578ZM 49.0606 21.1776C 49.0606 21.7082 48.6415 22.1074 48.14 22.1074L 48.14 16.1074C 45.351 16.1074 43.0606 18.3713 43.0606 21.1776L 49.0606 21.1776ZM 48.14 22.1074L 58.3761 22.1074L 58.3761 16.1074L 48.14 16.1074L 48.14 22.1074ZM 58.3761 22.1074C 57.8728 22.1074 57.4545 21.7073 57.4545 21.1776L 63.4545 21.1776C 63.4545 18.3722 61.1651 16.1074 58.3761 16.1074L 58.3761 22.1074ZM 57.4545 21.1776L 57.4545 29.4578L 63.4545 29.4578L 63.4545 21.1776L 57.4545 21.1776ZM 71.4899 54.3229C 69.695 54.3229 68.2525 52.8677 68.2525 51.113L 62.2525 51.113C 62.2525 56.2064 66.4064 60.3229 71.4899 60.3229L 71.4899 54.3229ZM 68.2525 51.113C 68.2525 49.3583 69.695 47.9031 71.4899 47.9031L 71.4899 41.9031C 66.4064 41.9031 62.2525 46.0196 62.2525 51.113L 68.2525 51.113ZM 71.4899 47.9031C 73.2848 47.9031 74.7273 49.3583 74.7273 51.113L 80.7273 51.113C 80.7273 46.0196 76.5734 41.9031 71.4899 41.9031L 71.4899 47.9031ZM 74.7273 51.113C 74.7273 52.8677 73.2848 54.3229 71.4899 54.3229L 71.4899 60.3229C 76.5734 60.3229 80.7273 56.2064 80.7273 51.113L 74.7273 51.113ZM 66.2486 28.5271C 66.9875 28.5271 67.2929 29.1011 67.2929 29.4578L 61.2929 29.4578C 61.2929 32.0902 63.3582 34.5271 66.2486 34.5271L 66.2486 28.5271ZM 67.2929 29.4578L 67.2929 21.1776L 61.2929 21.1776L 61.2929 29.4578L 67.2929 29.4578ZM 67.2929 21.1776C 67.2929 21.5325 66.9893 22.1074 66.2486 22.1074L 66.2486 16.1074C 63.3565 16.1074 61.2929 18.5471 61.2929 21.1776L 67.2929 21.1776ZM 66.2486 22.1074L 78.5583 22.1074L 78.5583 16.1074L 66.2486 16.1074L 66.2486 22.1074ZM 76.6372 21.4115C 80.208 24.3554 82.7767 27.9942 84.4037 32.5513L 90.0432 30.5029C 88.0947 25.2159 84.6179 20.287 80.4794 16.8032L 76.6372 21.4115ZM 87.2234 28.5271L 66.2486 28.5271L 66.2486 34.5271L 87.2234 34.5271L 87.2234 28.5271Z"/>
<path id="path6_fill" d="M 2.39899 0C 1.07763 0 0 1.07287 0 2.38841C 0 3.70299 1.07763 4.77587 2.39899 4.77587C 3.72035 4.77587 4.79798 3.70299 4.79798 2.38841C 4.79798 1.07287 3.72035 0 2.39899 0Z"/>
<path id="path7_fill" d="M 47.1401 5.73228C 18.7121 5.73228 8.27652 2.26903 0 0L 79.8864 1.0748C 72.8093 2.26903 70.5779 5.73228 47.1401 5.73228Z"/>
</defs>
</svg>
