<svg width="101" height="94" viewBox="0 0 101 94" version="1.1" xmlns="http://www.w3.org/2000/svg" xmlns:xlink="http://www.w3.org/1999/xlink">
<title>individual_icon</title>
<desc>Created using Figma</desc>
<g id="Canvas" transform="translate(1245 1361)">
<g id="individual_icon">
<g id="Ellipse 4">
<use xlink:href="#path0_fill" transform="translate(-1238.32 -1360.99)" fill="#EFF8FF"/>
</g>
<g id="Vector 10">
<use xlink:href="#path1_fill" transform="translate(-1204.53 -1361)" fill="#D0E6F7"/>
</g>
<g id="noun_1143270_cc">
<g id="Vector">
<use xlink:href="#path2_fill" transform="translate(-1227.69 -1333.59)" fill="#FFFFFF"/>
<mask id="mask0_outline_ins">
<use xlink:href="#path2_fill" fill="white" transform="translate(-1227.69 -1333.59)"/>
</mask>
<g mask="url(#mask0_outline_ins)">
<use xlink:href="#path3_stroke_2x" transform="translate(-1227.69 -1333.59)" fill="#1078FF"/>
</g>
</g>
<g id="Vector">
<use xlink:href="#path4_fill" transform="translate(-1201.96 -1347.67)" fill="#FFFFFF"/>
<mask id="mask1_outline_ins">
<use xlink:href="#path4_fill" fill="white" transform="translate(-1201.96 -1347.67)"/>
</mask>
<g mask="url(#mask1_outline_ins)">
<use xlink:href="#path5_stroke_2x" transform="translate(-1201.96 -1347.67)" fill="#1078FF"/>
</g>
</g>
<clipPath id="clip-0" clip-rule="evenodd">
<path d="M -1165.64 -1318.02L -1159.91 -1318.02L -1159.91 -1311.06L -1165.64 -1311.06L -1165.64 -1318.02Z" fill="#FFFFFF"/>
</clipPath>
<g id="Group" clip-path="url(#clip-0)">
</g>
<g id="Vector">
<use xlink:href="#path6_fill" transform="translate(-1245 -1327.42)" fill="#EFF8FF"/>
<mask id="mask2_outline_ins">
<use xlink:href="#path6_fill" fill="white" transform="translate(-1245 -1327.42)"/>
</mask>
<g mask="url(#mask2_outline_ins)">
<use xlink:href="#path7_stroke_2x" transform="translate(-1245 -1327.42)" fill="#1078FF"/>
</g>
</g>
<g id="Vector">
<use xlink:href="#path8_fill" transform="translate(-1240.47 -1309.92)" fill="#1078FF"/>
</g>
<g id="Vector">
<use xlink:href="#path9_fill" transform="translate(-1164.07 -1309.92)" fill="#1078FF"/>
</g>
<g id="Vector">
<use xlink:href="#path10_fill" transform="translate(-1213.6 -1298.06)" fill="#1078FF"/>
</g>
<g id="Vector">
<use xlink:href="#path11_fill" transform="translate(-1194.59 -1337.12)" fill="#FFFFFF"/>
<mask id="mask3_outline_ins">
<use xlink:href="#path11_fill" fill="white" transform="translate(-1194.59 -1337.12)"/>
</mask>
<g mask="url(#mask3_outline_ins)">
<use xlink:href="#path12_stroke_2x" transform="translate(-1194.59 -1337.12)" fill="#1078FF"/>
</g>
</g>
<g id="Vector">
<use xlink:href="#path13_fill" transform="translate(-1227.03 -1304.73)" fill="#1078FF"/>
</g>
</g>
<g id="Vector 11">
<use xlink:href="#path14_fill" transform="translate(-1206.75 -1353.22)" fill="#1078FF"/>
<use xlink:href="#path15_stroke" transform="translate(-1206.75 -1353.22)" fill="#1078FF"/>
</g>
</g>
</g>
<defs>
<path id="path0_fill" d="M 94.3161 46.9957C 94.3161 72.9507 73.2027 93.9913 47.1581 93.9913C 21.1134 93.9913 0 72.9507 0 46.9957C 0 21.0407 21.1134 0 47.1581 0C 73.2027 0 94.3161 21.0407 94.3161 46.9957Z"/>
<path id="path1_fill" d="M 27.1066 49.5947L 0 1.85889C 27.9235 -5.83804 47.2818 12.2201 53.4706 22.2113C 64.2389 39.9735 62.7536 66.9867 47.5294 79.5683L 27.1066 49.5947Z"/>
<path id="path2_fill" d="M 33.9685 7.82056L 22.1426 13.2132L 21.7655 13.3829C 21.3402 13.576 20.8778 13.6363 20.4402 13.5638L 1.49151 10.5655C 0.530894 10.4203 -0.125603 9.51394 0.0202856 8.55842C 0.166174 7.66429 0.956216 7.03471 1.84389 7.07155L 17.9971 7.65201C 19.2248 7.70001 20.4525 7.36178 21.4737 6.68532L 31.659 3.74723e-07C 31.4772 0.520181 31.3549 1.0638 31.3066 1.63198C 31.1484 3.45708 31.7319 5.23529 32.935 6.62504L 33.9685 7.82056Z"/>
<path id="path3_stroke_2x" d="M 33.9685 7.82056L 35.2132 10.5502L 38.8574 8.8884L 36.238 5.85854L 33.9685 7.82056ZM 22.1426 13.2132L 23.3736 15.949L 23.3805 15.9459L 23.3873 15.9428L 22.1426 13.2132ZM 21.7655 13.3829L 20.5345 10.6471L 20.5252 10.6513L 21.7655 13.3829ZM 20.4402 13.5638L 20.9308 10.6041L 20.9199 10.6023L 20.909 10.6006L 20.4402 13.5638ZM 1.49151 10.5655L 1.96038 7.60233L 1.95 7.60069L 1.93962 7.59912L 1.49151 10.5655ZM 0.0202856 8.55842L -2.94056 8.07532L -2.94303 8.09046L -2.94535 8.10563L 0.0202856 8.55842ZM 1.84389 7.07155L 1.7195 10.069L 1.72783 10.0693L 1.73616 10.0696L 1.84389 7.07155ZM 17.9971 7.65201L 18.1143 4.65428L 18.1048 4.65394L 17.9971 7.65201ZM 21.4737 6.68532L 19.8275 4.17729L 19.817 4.18426L 21.4737 6.68532ZM 31.659 3.74723e-07L 34.491 0.989773L 37.4105 -7.36362L 30.0128 -2.508L 31.659 3.74723e-07ZM 31.3066 1.63198L 34.2954 1.8911L 34.2959 1.88586L 31.3066 1.63198ZM 32.935 6.62504L 35.2044 4.66302L 35.2032 4.66159L 32.935 6.62504ZM 32.7238 5.09097L 20.8979 10.4836L 23.3873 15.9428L 35.2132 10.5502L 32.7238 5.09097ZM 20.9115 10.4775L 20.5345 10.6471L 22.9966 16.1187L 23.3736 15.949L 20.9115 10.4775ZM 20.5252 10.6513C 20.6296 10.6039 20.7689 10.5773 20.9308 10.6041L 19.9495 16.5234C 20.8259 16.6359 22.1633 16.4609 23.0058 16.1145L 20.5252 10.6513ZM 20.909 10.6006L 1.96038 7.60233L 1.02265 13.5286L 19.9713 16.5269L 20.909 10.6006ZM 1.93962 7.59912C 2.64088 7.70505 3.08704 8.34889 2.98592 9.01121L -2.94535 8.10563C -3.33825 10.679 -1.57909 13.1356 1.04341 13.5318L 1.93962 7.59912ZM 2.98113 9.04151C 2.87994 9.66168 2.33145 10.0944 1.7195 10.069L 1.96828 4.07413C -0.419023 3.97506 -2.5476 5.66689 -2.94056 8.07532L 2.98113 9.04151ZM 1.73616 10.0696L 17.8894 10.6501L 18.1048 4.65394L 1.95163 4.07348L 1.73616 10.0696ZM 17.8799 10.6497C 19.5687 10.6802 21.6948 10.0925 23.1304 9.18638L 19.817 4.18426C 19.2103 4.63106 18.8809 4.71978 18.1143 4.6543L 17.8799 10.6497ZM 23.1199 9.19332L 33.3052 2.508L 30.0128 -2.508L 19.8276 4.17732L 23.1199 9.19332ZM 28.827 -0.989772C 28.593 -0.305353 28.3899 0.606511 28.3174 1.3781L 34.2959 1.88586C 34.3198 1.52109 34.3614 1.34571 34.491 0.989773L 28.827 -0.989772ZM 28.3178 1.37286C 28.0887 4.01533 28.9394 6.59302 30.6667 8.5885L 35.2032 4.66159C 34.5245 3.87757 34.208 2.89882 34.2954 1.8911L 28.3178 1.37286ZM 30.6655 8.58707L 31.6991 9.78259L 36.238 5.85854L 35.2044 4.66302L 30.6655 8.58707Z"/>
<path id="path4_fill" d="M 10.5996 9.20851C 10.5996 9.20851 13.376 6.52054 12.513 3.76336C 11.6388 0.968231 8.56953 -0.139104 5.87621 0.0138242C 4.33764 0.100893 2.88662 0.738281 1.89682 1.91259C 0.696046 3.33695 0.15177 5.24353 0.0664809 7.17356C 0.0664809 7.17356 -0.0592074 10.5491 0.0350589 11.5415C 0.0956588 12.18 1.04169 12.4368 1.83622 12.564C 1.83622 12.564 4.0728 13.0429 6.67298 12.4702C 7.83111 12.2146 10.5996 9.20851 10.5996 9.20851Z"/>
<path id="path5_stroke_2x" d="M 10.5996 9.20851L 8.51289 7.05315L 8.45113 7.11295L 8.39289 7.17619L 10.5996 9.20851ZM 12.513 3.76336L 9.64978 4.65887L 9.64997 4.65948L 12.513 3.76336ZM 5.87621 0.0138242L 6.04571 3.00903L 6.04627 3.009L 5.87621 0.0138242ZM 1.89682 1.91259L 4.19051 3.84624L 4.19069 3.84603L 1.89682 1.91259ZM 0.0664809 7.17356L -2.93059 7.04112L -2.93105 7.05152L -2.93144 7.06193L 0.0664809 7.17356ZM 0.0350589 11.5415L 3.02164 11.2581L 3.02161 11.2578L 0.0350589 11.5415ZM 1.83622 12.564L 2.46432 9.6305L 2.38787 9.61413L 2.31066 9.60176L 1.83622 12.564ZM 6.67298 12.4702L 7.31822 15.4L 7.31958 15.3997L 6.67298 12.4702ZM 10.5996 9.20851C 12.6864 11.3639 12.6871 11.3632 12.6878 11.3625C 12.688 11.3622 12.6888 11.3615 12.6893 11.361C 12.6899 11.3605 12.6914 11.359 12.6925 11.3579C 12.6938 11.3566 12.6972 11.3534 12.6997 11.3508C 12.703 11.3477 12.7108 11.34 12.7173 11.3336C 12.7264 11.3245 12.7462 11.3048 12.7643 11.2866C 12.7927 11.2578 12.8477 11.2011 12.902 11.1435C 12.9946 11.0449 13.1583 10.8639 13.3211 10.6701C 13.6133 10.3195 14.0865 9.68702 14.4788 9.01846C 15.2305 7.71492 16.1773 5.42721 15.376 2.86724L 9.64997 4.65948C 9.7117 4.85669 9.70183 5.29156 9.28104 6.02129C 9.08716 6.36938 8.9202 6.58121 8.71875 6.82073C 8.63479 6.92207 8.58829 6.97256 8.53245 7.03173C 8.51254 7.05304 8.50875 7.05681 8.49692 7.06875C 8.49489 7.07084 8.49657 7.06911 8.49786 7.06784C 8.49659 7.06909 8.50413 7.06168 8.50354 7.06226C 8.5023 7.06347 8.50836 7.05755 8.50775 7.05815C 8.50697 7.05891 8.51059 7.05539 8.5102 7.05576C 8.51063 7.05535 8.5113 7.05469 8.51152 7.05449C 8.5122 7.05383 8.51289 7.05315 10.5996 9.20851ZM 15.3762 2.86786C 13.8975 -1.86028 8.99312 -3.16799 5.70614 -2.98135L 6.04627 3.009C 6.95799 2.95723 7.86219 3.12961 8.53429 3.46593C 9.16647 3.78227 9.50106 4.18335 9.64978 4.65887L 15.3762 2.86786ZM 5.7067 -2.98138C 3.4632 -2.85442 1.19694 -1.91198 -0.397045 -0.0208445L 4.19069 3.84603C 4.57629 3.38854 5.21209 3.05621 6.04571 3.00903L 5.7067 -2.98138ZM -0.396869 -0.0210534C -2.15609 2.06574 -2.82659 4.68752 -2.93059 7.04112L 3.06356 7.306C 3.13013 5.79955 3.54818 4.60816 4.19051 3.84624L -0.396869 -0.0210534ZM 0.0664809 7.17356C -2.93144 7.06193 -2.93144 7.062 -2.93145 7.06209C -2.93145 7.06213 -2.93145 7.06223 -2.93146 7.06232C -2.93146 7.06246 -2.93147 7.06272 -2.93148 7.06301C -2.9315 7.06349 -2.93153 7.06434 -2.93157 7.06531C -2.93163 7.06709 -2.93174 7.06999 -2.93187 7.07352C -2.93212 7.08026 -2.9325 7.09078 -2.93297 7.10393C -2.93389 7.12958 -2.93527 7.16848 -2.93695 7.21706C -2.94026 7.31288 -2.94497 7.45379 -2.95024 7.62337C -2.96068 7.95965 -2.97388 8.42874 -2.98396 8.92454C -3.00394 9.91212 -3.0092 11.1766 -2.9515 11.8252L 3.02161 11.2578C 2.99443 10.9716 2.99392 10.0755 3.0148 9.04625C 3.02436 8.57411 3.03669 8.13729 3.04687 7.80963C 3.05191 7.64724 3.05628 7.51668 3.05948 7.42403C 3.06105 7.37837 3.06228 7.34377 3.06316 7.3195C 3.06358 7.30768 3.06389 7.29913 3.06411 7.29303C 3.06422 7.29014 3.06429 7.28818 3.06435 7.28671C 3.06437 7.28606 3.06439 7.28568 3.0644 7.28534C 3.0644 7.28522 3.0644 7.28518 3.06441 7.28511C 3.06441 7.2851 3.06441 7.28512 3.06441 7.28511C 3.06441 7.28514 3.0644 7.28519 0.0664809 7.17356ZM -2.95152 11.825C -2.76633 13.7762 -1.24435 14.6668 -0.605981 14.9641C 0.041718 15.2459 0.878341 15.4475 1.36178 15.5263L 2.31066 9.60176C 1.99957 9.55323 1.88771 9.48691 1.92681 9.52487C 1.96013 9.54039 2.17161 9.63952 2.40934 9.89074C 2.68123 10.178 2.96354 10.6459 3.02164 11.2581L -2.95152 11.825ZM 1.83622 12.564C 1.20812 15.4975 1.20882 15.4977 1.20953 15.4978C 1.20978 15.4979 1.2105 15.498 1.21099 15.4981C 1.21152 15.4982 1.21302 15.4986 1.21408 15.4988C 1.21528 15.499 1.21849 15.4997 1.2209 15.5002C 1.22386 15.5009 1.23115 15.5024 1.23709 15.5036C 1.24523 15.5053 1.26326 15.5089 1.27954 15.5122C 1.3045 15.5171 1.35411 15.5266 1.40363 15.5356C 1.48696 15.5506 1.63812 15.576 1.79985 15.5994C 2.09007 15.6408 2.5825 15.6969 3.11644 15.7274C 4.11119 15.7795 5.7263 15.7357 7.31822 15.4L 6.02774 9.54045C 5.01948 9.77745 4.21621 9.78047 3.44263 9.7363C 3.0924 9.71865 2.86317 9.69084 2.65278 9.66035C 2.5642 9.64786 2.52031 9.64027 2.47117 9.63133C 2.45446 9.62836 2.45348 9.62814 2.4444 9.62633C 2.44367 9.62619 2.44785 9.62703 2.44834 9.62713C 2.44671 9.62679 2.45559 9.62864 2.4548 9.62848C 2.45347 9.6282 2.45983 9.62954 2.45917 9.6294C 2.45838 9.62923 2.46205 9.63001 2.46165 9.62993C 2.46208 9.63002 2.46275 9.63016 2.46296 9.63021C 2.46364 9.63035 2.46432 9.6305 1.83622 12.564ZM 7.31958 15.3997C 8.30922 15.1813 9.16034 14.5648 9.5786 14.2501C 10.0911 13.8619 10.668 13.3571 11.1209 12.9336C 11.5772 12.5057 12.01 12.0718 12.3008 11.7725C 12.4505 11.6184 12.5786 11.4838 12.6613 11.3961C 12.7046 11.3502 12.7412 11.311 12.7638 11.2867C 12.776 11.2736 12.7867 11.2621 12.7929 11.2553C 12.7965 11.2515 12.7999 11.2479 12.8017 11.2459C 12.8028 11.2447 12.804 11.2434 12.8045 11.2428C 12.8049 11.2424 12.8054 11.2419 12.8056 11.2417C 12.8057 11.2415 12.8059 11.2413 12.806 11.2412C 12.8062 11.241 12.8064 11.2408 10.5996 9.20851C 8.39289 7.17619 8.39304 7.17602 8.39319 7.17587C 8.39322 7.17583 8.39336 7.17568 8.39342 7.17561C 8.3934 7.17564 8.39377 7.17524 8.39371 7.1753C 8.39383 7.17518 8.39377 7.17523 8.39355 7.17547C 8.39267 7.17642 8.39206 7.17709 8.39034 7.17894C 8.38601 7.18362 8.38105 7.18897 8.37271 7.19792C 8.35417 7.21784 8.33019 7.24349 8.29552 7.28026C 8.22225 7.35799 8.12507 7.46018 7.99708 7.59188C 7.7326 7.86423 7.40086 8.19783 7.02032 8.55346C 6.63632 8.91345 6.30394 9.2081 5.97161 9.45538C 5.54505 9.77627 5.6158 9.63138 6.02638 9.54075L 7.31958 15.3997Z"/>
<path id="path6_fill" d="M 56.2829 15.6535C 54.0217 16.052 52.5145 16.8379 51.2262 17.5032C 50.3026 17.9865 49.5002 18.3973 48.3937 18.6396C 47.5431 18.4464 46.7048 18.2522 45.8654 18.0468C 40.6515 16.7899 35.4366 15.5799 30.2228 14.1656C 24.9966 12.7144 19.8422 11.0099 14.8473 8.91799C 9.85338 6.8395 4.97846 4.50651 0.384096 1.54505C -0.0053144 1.29166 -0.11417 0.771478 0.129352 0.384133C 0.348184 0.0459044 0.773505 -0.0869311 1.13823 0.0581835L 1.17526 0.0704642C 11.1181 3.75749 21.2304 6.98573 31.4404 9.6458C 39.6438 11.7488 47.9819 13.6833 56.2829 15.6535Z"/>
<path id="path7_stroke_2x" d="M 56.2829 15.6535L 57.1507 20.5777L 57.4376 10.7887L 56.2829 15.6535ZM 51.2262 17.5032L 48.932 13.0606L 48.9199 13.0669L 48.9078 13.0732L 51.2262 17.5032ZM 48.3937 18.6396L 47.2868 23.5155L 48.374 23.7623L 49.463 23.5239L 48.3937 18.6396ZM 45.8654 18.0468L 47.0537 13.1901L 47.0455 13.1881L 47.0372 13.1861L 45.8654 18.0468ZM 30.2228 14.1656L 28.885 18.9833L 28.8994 18.9873L 28.9138 18.9912L 30.2228 14.1656ZM 14.8473 8.91799L 16.7787 4.30609L 16.7685 4.30185L 14.8473 8.91799ZM 0.384096 1.54505L -2.34293 5.73591L -2.33389 5.74179L -2.32483 5.74764L 0.384096 1.54505ZM 0.129352 0.384133L -4.06862 -2.33194L -4.08629 -2.30463L -4.1036 -2.2771L 0.129352 0.384133ZM 1.13823 0.0581835L -0.710227 4.70396L -0.574359 4.75802L -0.435563 4.80404L 1.13823 0.0581835ZM 1.17526 0.0704642L 2.91369 -4.61759L 2.83188 -4.64793L 2.74905 -4.6754L 1.17526 0.0704642ZM 31.4404 9.6458L 30.1798 14.4843L 30.1892 14.4867L 30.1987 14.4892L 31.4404 9.6458ZM 55.4151 10.7294C 52.4131 11.3179 50.2116 12.3998 48.932 13.0606L 53.5204 21.9458C 54.8175 21.276 55.6302 20.7862 57.1507 20.5777L 55.4151 10.7294ZM 48.9078 13.0732C 48.0041 13.5462 47.8124 13.6908 47.3245 13.7552L 49.463 23.5239C 51.1881 23.1038 52.6011 22.4269 53.5446 21.9332L 48.9078 13.0732ZM 49.5007 13.7636C 48.6609 13.573 47.8633 13.3883 47.0537 13.1901L 44.677 22.9035C 45.5463 23.1162 46.4253 23.3199 47.2868 23.5155L 49.5007 13.7636ZM 47.0372 13.1861C 41.8025 11.9242 36.6564 10.7309 31.5318 9.33995L 28.9138 18.9912C 34.2168 20.4288 39.5006 21.6556 44.6936 22.9076L 47.0372 13.1861ZM 31.5605 9.34783C 26.4508 7.93056 21.5942 6.32686 16.7787 4.3061L 12.9158 13.5299C 18.0903 15.6929 23.5424 17.4983 28.885 18.9833L 31.5605 9.34783ZM 16.7685 4.30185C 11.8939 2.27483 7.41698 0.141462 3.09302 -2.65754L -2.32483 5.74764C 2.53994 8.87155 7.81284 11.4042 12.926 13.5341L 16.7685 4.30185ZM 3.11113 -2.64581C 5.0368 -1.39275 5.55572 1.14712 4.3623 3.04537L -4.1036 -2.2771C -5.78406 0.395838 -5.04743 3.97607 -2.34293 5.73591L 3.11113 -2.64581ZM 4.32732 3.1002C 3.25276 4.76105 1.14816 5.44337 -0.710227 4.70396L 2.98668 -4.58759C 0.398847 -5.61723 -2.55639 -4.66924 -4.06862 -2.33194L 4.32732 3.1002ZM -0.435563 4.80404L -0.39853 4.81632L 2.74905 -4.6754L 2.71202 -4.68768L -0.435563 4.80404ZM -0.563173 4.75852C 9.48817 8.48436 19.8393 11.7883 30.1798 14.4843L 32.701 4.80732C 22.6215 2.18315 12.7481 -0.969376 2.91369 -4.61759L -0.563173 4.75852ZM 30.1987 14.4892C 38.4579 16.6062 46.8395 18.5511 55.1283 20.5184L 57.4376 10.7887C 49.1242 8.81557 40.8297 6.89152 32.682 4.80242L 30.1987 14.4892Z"/>
<path id="path8_fill" d="M 69.4272 5.86486C 69.0995 5.88942 68.7584 5.9017 68.3936 5.9017C 64.7352 5.9017 62.8151 4.89818 61.1127 4.01521C 59.5202 3.19364 58.0254 2.41895 54.9629 2.41895C 53.4558 2.41895 52.3257 2.59978 51.3774 2.89001C 50.4056 3.19252 49.6155 3.59103 48.8132 4.01409C 47.1119 4.89706 45.1794 5.90059 41.5322 5.90059C 37.8738 5.90059 35.9413 4.89706 34.2512 4.01409C 32.6588 3.19252 31.1517 2.41783 28.0891 2.41783C 25.0266 2.41783 23.5307 3.19141 21.9394 4.01409C 20.2381 4.89706 18.3169 5.90059 14.6584 5.90059C 11 5.90059 9.07987 4.89706 7.37747 4.01409C 5.78504 3.19252 4.2779 2.41783 1.21536 2.41783C 0.546521 2.41783 -1.71237e-07 1.87421 -1.71237e-07 1.20892C -1.71237e-07 0.531342 0.546521 -1.22637e-06 1.21536 -1.22637e-06C 4.8738 -1.22637e-06 6.79391 0.991244 8.49632 1.87421C 10.0887 2.69578 11.5959 3.48275 14.6584 3.48275C 17.721 3.48275 19.2169 2.6969 20.8082 1.87421C 22.5095 0.991244 24.4307 -1.22637e-06 28.0891 -1.22637e-06C 31.7476 -1.22637e-06 33.6677 0.991244 35.3701 1.87421C 36.9625 2.69578 38.4697 3.48275 41.5322 3.48275C 44.4488 3.48275 45.9448 2.76946 47.4631 1.9836C 47.5361 1.94677 47.609 1.91105 47.682 1.87421C 49.3832 0.991244 51.3045 -1.22637e-06 54.9629 -1.22637e-06C 58.6213 -1.22637e-06 60.5415 0.991244 62.2439 1.87421C 63.824 2.69578 65.3311 3.48275 68.3936 3.48275C 68.5036 3.48275 68.6125 3.48275 68.7101 3.47047L 69.4272 5.86486Z"/>
<path id="path9_fill" d="M 20.0675 4.69167C 20.0675 5.35696 19.521 5.90059 18.8522 5.90059C 15.1937 5.90059 13.2736 4.89706 11.5712 4.01409C 10.477 3.44591 9.43225 2.90229 7.88808 2.62323C 7.87573 2.62323 7.87573 2.62323 7.87573 2.62323C 7.17098 2.49039 6.36859 2.41783 5.42031 2.41783C 3.71903 2.41783 2.50367 2.66006 1.49479 3.01057C 1.10538 3.13113 0.765355 3.28852 0.425323 3.44591L 0.291775 2.70806L -4.24668e-06 0.991243C 1.33656 0.435343 3.00193 -1.83955e-06 5.42144 -1.83955e-06C 5.67618 -1.83955e-06 5.9197 -6.75743e-08 6.15088 0.0122789C 9.34808 0.132836 11.1223 1.05152 12.7024 1.87421C 14.2948 2.69578 15.7896 3.48275 18.8522 3.48275C 19.521 3.48275 20.0675 4.0141 20.0675 4.69167Z"/>
<path id="path10_fill" d="M 42.7352 4.69055C 42.7352 5.35585 42.1887 5.89947 41.5199 5.89947C 37.8614 5.89947 35.9413 4.90822 34.2389 4.02526C 32.6465 3.20369 31.1517 2.41783 28.0891 2.41783C 25.0266 2.41783 23.5195 3.20369 21.9394 4.02526C 20.2381 4.90822 18.3056 5.89947 14.6584 5.89947C 11 5.89947 9.06753 4.90822 7.37747 4.02526C 5.78504 3.20369 4.2779 2.41783 1.21537 2.41783C 0.546523 2.41783 1.91785e-06 1.87421 1.91785e-06 1.20891C 1.91785e-06 0.543619 0.546523 -2.65713e-06 1.21537 -2.65713e-06C 4.8738 -2.65713e-06 6.79391 1.00352 8.49632 1.87421C 10.0887 2.70806 11.5959 3.48164 14.6584 3.48164C 17.721 3.48164 19.2169 2.70806 20.8082 1.87421C 22.5095 1.00352 24.4307 -2.65713e-06 28.0891 -2.65713e-06C 31.7476 -2.65713e-06 33.6677 1.00352 35.3701 1.88649C 36.9502 2.70806 38.4573 3.48275 41.5199 3.48275C 42.1876 3.48164 42.7352 4.02637 42.7352 4.69055Z"/>
<path id="path11_fill" d="M 25.6691 15.4405L 15.9698 4.40289C 8.17823 -3.74586 1.82198 1.9125 1.82198 1.9125C -0.341655 3.67732 -0.621087 6.86984 1.21374 8.97289L 14.2315 23.9889C 16.7845 26.697 19.4823 27.0843 19.4823 27.0843L 21.9254 27.7005L 19.9907 21.2674C 19.865 20.8511 19.6125 20.4838 19.268 20.217L 7.1817 10.8705C 6.92471 10.625 6.50051 10.1729 6.9696 9.59241C 7.5453 8.88024 8.29943 9.44395 8.29943 9.44395L 20.9839 19.247C 21.2397 19.4446 21.4271 19.717 21.5203 20.0262L 25.3886 32.8509C 25.3987 32.8565 25.4054 32.861 25.4155 32.8666C 26.7397 32.6054 27.7722 32.2124 28.6699 31.7871C 28.8641 31.69 29.0594 31.594 29.2412 31.5092L 26.7251 17.0134C 26.7263 17.0122 26.4412 16.0913 25.6691 15.4405Z"/>
<path id="path12_stroke_2x" d="M 25.6691 15.4405L 23.4156 17.4208L 23.5639 17.5896L 23.7357 17.7344L 25.6691 15.4405ZM 15.9698 4.40289L 18.2233 2.42259L 18.1817 2.37521L 18.1381 2.32962L 15.9698 4.40289ZM 1.82198 1.9125L 3.7182 4.23723L 3.76837 4.19631L 3.81672 4.15326L 1.82198 1.9125ZM 1.21374 8.97289L 3.48053 7.00775L 3.47431 7.00062L 1.21374 8.97289ZM 14.2315 23.9889L 11.9647 25.954L 12.0057 26.0013L 12.0486 26.0468L 14.2315 23.9889ZM 19.4823 27.0843L 20.216 24.1754L 20.0639 24.137L 19.9087 24.1148L 19.4823 27.0843ZM 21.9254 27.7005L 21.1917 30.6094L 26.3221 31.9034L 24.7983 26.8365L 21.9254 27.7005ZM 19.9907 21.2674L 22.8636 20.4034L 22.8627 20.4005L 19.9907 21.2674ZM 19.268 20.217L 21.1048 17.8451L 21.1032 17.8439L 19.268 20.217ZM 7.1817 10.8705L 5.10907 13.0395L 5.22244 13.1478L 5.34649 13.2437L 7.1817 10.8705ZM 6.9696 9.59241L 4.63654 7.70646L 4.63628 7.70678L 6.9696 9.59241ZM 8.29943 9.44395L 10.1339 7.07022L 10.1149 7.05549L 10.0956 7.04106L 8.29943 9.44395ZM 20.9839 19.247L 19.1494 21.6207L 19.1503 21.6215L 20.9839 19.247ZM 21.5203 20.0262L 18.6478 20.8915L 18.6481 20.8925L 21.5203 20.0262ZM 25.3886 32.8509L 22.5164 33.7173L 22.869 34.8862L 23.9376 35.4767L 25.3886 32.8509ZM 25.4155 32.8666L 23.9645 35.4923L 24.9224 36.0216L 25.9961 35.8099L 25.4155 32.8666ZM 28.6699 31.7871L 29.9543 34.4983L 29.9833 34.4846L 30.0121 34.4702L 28.6699 31.7871ZM 29.2412 31.5092L 30.5098 34.2278L 32.5894 33.2573L 32.197 30.9962L 29.2412 31.5092ZM 26.7251 17.0134L 24.6095 14.8864L 23.5023 15.9877L 23.7693 17.5264L 26.7251 17.0134ZM 27.9227 13.4602L 18.2233 2.42259L 13.7163 6.38319L 23.4156 17.4208L 27.9227 13.4602ZM 18.1381 2.32962C 13.634 -2.38092 9.14217 -3.42317 5.51597 -2.86291C 3.857 -2.58138 2.3186 -1.93357 1.46756 -1.45984C 0.999554 -1.19386 0.568769 -0.904056 0.334655 -0.732776C 0.199301 -0.632843 0.0681715 -0.52994 0.00110689 -0.475459C -0.0408518 -0.441183 -0.0852894 -0.403945 -0.106025 -0.386292C -0.120429 -0.373984 -0.137343 -0.359368 -0.144472 -0.353162C -0.150011 -0.348328 -0.157138 -0.342076 -0.159888 -0.339656C -0.162239 -0.337583 -0.16547 -0.334728 -0.16664 -0.333692C -0.167711 -0.332743 -0.169243 -0.331384 -0.169777 -0.33091C -0.171278 -0.329577 -0.172754 -0.328263 1.82198 1.9125C 3.81672 4.15326 3.81529 4.15453 3.81389 4.15578C 3.81345 4.15617 3.81206 4.1574 3.81119 4.15818C 3.81197 4.15748 3.8046 4.16399 3.80618 4.1626C 3.80738 4.16155 3.79526 4.17217 3.79771 4.17002C 3.79867 4.16919 3.78479 4.18118 3.78693 4.17933C 3.78314 4.18259 3.78293 4.18252 3.78943 4.17735C 3.81928 4.15292 3.83232 4.14222 3.88599 4.10334C 4.02991 3.99701 4.15658 3.90842 4.40622 3.77125C 4.99046 3.43869 5.5281 3.18121 6.43213 3.06674C 7.93195 2.83501 10.514 3.03795 13.8015 6.47616L 18.1381 2.32962ZM -0.0742324 -0.412229C -3.54409 2.41804 -4.00324 7.55657 -1.04683 10.9451L 3.47431 7.00062C 2.76106 6.18311 2.86078 4.9366 3.7182 4.23723L -0.0742324 -0.412229ZM -1.05304 10.938L 11.9647 25.954L 16.4983 22.0238L 3.48052 7.00776L -1.05304 10.938ZM 12.0486 26.0468C 13.6362 27.6874 15.4545 28.7877 16.6103 29.2999C 17.2517 29.5765 17.8829 29.7813 18.2429 29.8788C 18.4519 29.9342 18.6598 29.9811 18.7684 30.0032C 18.8365 30.0168 18.9096 30.0301 18.944 30.0361C 18.9679 30.0401 18.9962 30.0448 19.0082 30.0466C 19.0175 30.0481 19.0295 30.0499 19.0341 30.0506C 19.0381 30.0512 19.0436 30.0521 19.0456 30.0523C 19.0474 30.0526 19.05 30.053 19.0509 30.0531C 19.0518 30.0533 19.053 30.0534 19.0535 30.0535C 19.0547 30.0537 19.056 30.0539 19.4823 27.0843C 19.9087 24.1148 19.9099 24.1149 19.9111 24.1151C 19.9115 24.1152 19.9127 24.1153 19.9135 24.1155C 19.9128 24.1153 19.9196 24.1163 19.9181 24.1161C 19.9168 24.1159 19.9293 24.1178 19.9266 24.1174C 19.9246 24.1171 19.945 24.1202 19.9409 24.1196C 19.9393 24.1193 19.9624 24.1231 19.9589 24.1225C 19.9652 24.1236 19.9651 24.1239 19.9544 24.1216C 19.9055 24.1119 19.8828 24.1074 19.7989 24.0841C 19.5733 24.0244 19.3704 23.9631 19.0183 23.8043C 18.1869 23.4459 17.3798 22.9985 16.4144 21.931L 12.0486 26.0468ZM 18.7487 29.9932L 21.1917 30.6094L 22.6591 24.7916L 20.216 24.1754L 18.7487 29.9932ZM 24.7983 26.8365L 22.8636 20.4034L 17.1178 22.1315L 19.0525 28.5645L 24.7983 26.8365ZM 22.8627 20.4005C 22.5693 19.5523 21.793 18.4234 21.1048 17.8451L 17.4312 22.589C 17.2827 22.474 17.1733 22.3152 17.1187 22.1344L 22.8627 20.4005ZM 21.1032 17.8439L 9.01691 8.49735L 5.34649 13.2437L 17.4328 22.5902L 21.1032 17.8439ZM 9.25433 8.70162C 9.12576 8.57875 9.43538 8.82227 9.619 9.32157C 9.73368 9.6334 9.80521 10.0504 9.72455 10.5153C 9.64498 10.9739 9.44887 11.2974 9.30292 11.478L 4.63628 7.70678C 3.76196 8.78868 3.531 10.1506 3.98774 11.3925C 4.33044 12.3244 4.98066 12.9167 5.10907 13.0395L 9.25433 8.70162ZM 9.30266 11.4784C 9.10538 11.7224 8.77397 11.9891 8.31352 12.1327C 7.87957 12.268 7.50312 12.2409 7.26415 12.1933C 7.0345 12.1475 6.87163 12.0722 6.78123 12.0248C 6.73004 11.998 6.68331 11.9702 6.64003 11.9423C 6.66061 11.9559 6.56453 11.8914 6.57332 11.8975C 6.58429 11.9052 6.53379 11.8693 6.53896 11.8731C 6.54471 11.8773 6.51851 11.8581 6.52132 11.8602C 6.52427 11.8624 6.51089 11.8525 6.51235 11.8536C 6.51385 11.8547 6.50708 11.8497 6.50783 11.8502C 6.50708 11.8497 6.50594 11.8488 6.50556 11.8485C 6.50442 11.8477 6.50328 11.8468 8.29943 9.44395C 10.0956 7.04106 10.0944 7.04021 10.0933 7.03935C 10.0929 7.03906 10.0917 7.0382 10.091 7.03762C 10.0902 7.03703 10.0878 7.03529 10.0862 7.03411C 10.0846 7.03289 10.0798 7.02932 10.0764 7.02688C 10.0729 7.02428 10.0627 7.01684 10.0555 7.01163C 10.0475 7.0058 10.0249 6.98974 10.0083 6.97807C 9.9882 6.96409 9.9341 6.92748 9.89178 6.8999C 9.83533 6.86384 9.68696 6.77523 9.56397 6.70916C 9.38143 6.61609 8.87052 6.41208 8.43665 6.30895C 7.29533 6.08154 5.75226 6.32623 4.63654 7.70646L 9.30266 11.4784ZM 6.46492 11.8177L 19.1494 21.6207L 22.8184 16.8733L 10.1339 7.07022L 6.46492 11.8177ZM 19.1503 21.6215C 18.9108 21.4365 18.7351 21.1811 18.6478 20.8915L 24.3928 19.1609C 24.1316 18.4185 23.4185 17.3823 22.8174 16.8725L 19.1503 21.6215ZM 18.6481 20.8925L 22.5164 33.7173L 28.2608 31.9846L 24.3925 19.1598L 18.6481 20.8925ZM 23.9376 35.4767C 23.8938 35.4525 23.8587 35.4313 23.8648 35.4349C 23.8672 35.4364 23.9106 35.4625 23.9645 35.4923L 26.8665 30.2408C 26.9103 30.265 26.9453 30.2862 26.9393 30.2826C 26.9369 30.2811 26.8935 30.255 26.8396 30.2252L 23.9376 35.4767ZM 25.9961 35.8099C 27.5665 35.4892 28.9488 34.9721 29.9543 34.4983L 27.3856 29.076C 26.5956 29.4528 25.913 29.7215 24.8349 29.9233L 25.9961 35.8099ZM 30.0121 34.4702C 30.1969 34.3777 30.3555 34.2996 30.5098 34.2278L 27.9725 28.7906C 27.7632 28.8885 27.5312 29.0024 27.3278 29.1041L 30.0121 34.4702ZM 32.197 30.9962L 29.6809 16.5003L 23.7693 17.5264L 26.2854 32.0222L 32.197 30.9962ZM 28.8408 19.1403C 29.3728 18.424 29.7114 17.3006 29.7251 17.0156C 29.7225 16.8864 29.7071 16.6849 29.6983 16.6126C 29.6867 16.5346 29.665 16.4155 29.6562 16.374C 29.6465 16.331 29.6302 16.2646 29.6241 16.2411C 29.6175 16.2168 29.6063 16.1772 29.6016 16.1611C 29.5965 16.1439 29.5865 16.1115 29.5809 16.0936C 29.574 16.072 29.5586 16.0255 29.5467 15.9907C 29.5296 15.9416 29.4912 15.837 29.455 15.7454C 29.3968 15.601 29.267 15.3108 29.1293 15.0497C 28.8883 14.6094 28.2881 13.7625 27.6026 13.1467L 23.7357 17.7344C 23.6926 17.707 23.7167 17.6993 23.7722 17.7768C 23.8194 17.8326 23.8023 17.8096 23.8449 17.8914C 23.8748 17.9421 23.8643 17.923 23.8834 17.9719C 23.8858 17.977 23.8781 17.9576 23.8768 17.9536C 23.8796 17.9618 23.8605 17.9039 23.863 17.9117C 23.8664 17.9225 23.8431 17.8464 23.8472 17.8601C 23.8513 17.8743 23.8196 17.7608 23.8259 17.7842C 23.8319 17.8073 23.7843 17.6095 23.794 17.6523C 23.7889 17.6288 23.7684 17.5353 23.752 17.414C 23.7432 17.3417 23.7278 17.1402 23.7251 17.011C 23.7389 16.7261 24.0775 15.6027 24.6095 14.8864L 28.8408 19.1403Z"/>
<path id="path13_fill" d="M 54.9472 5.89947C 51.2921 5.89947 49.3686 4.90152 47.6707 4.02191C 46.0805 3.19699 44.5779 2.41783 41.5176 2.41783C 38.4573 2.41783 36.9547 3.19699 35.3634 4.02191C 33.6654 4.90152 31.7408 5.89947 28.0846 5.89947C 24.4273 5.89947 22.5027 4.90152 20.8048 4.02191C 19.2135 3.19699 17.7097 2.41783 14.6483 2.41783C 11.588 2.41783 10.0854 3.19699 8.49407 4.02191C 6.79616 4.90152 4.87155 5.89947 1.21536 5.89947C 0.544276 5.89947 -6.84948e-07 5.35919 -6.84948e-07 4.69055C -6.84948e-07 4.0219 0.544276 3.48163 1.21536 3.48163C 4.27565 3.48163 5.77943 2.70248 7.37073 1.87756C 9.06865 0.997943 10.9933 1.70329e-06 14.6483 1.70329e-06C 18.3045 1.70329e-06 20.2302 0.997943 21.9282 1.87756C 23.5195 2.70248 25.0232 3.48163 28.0858 3.48163C 31.1461 3.48163 32.6487 2.70248 34.24 1.87756C 35.9379 0.997943 37.8625 1.70329e-06 41.5187 1.70329e-06C 45.1738 1.70329e-06 47.0984 0.997942 48.7952 1.87868C 50.3854 2.70248 51.888 3.48163 54.9472 3.48163C 58.0075 3.48163 59.5113 2.70248 61.1026 1.87756C 62.8005 0.997943 64.7251 1.70329e-06 68.3801 1.70329e-06C 69.0512 1.70329e-06 69.5955 0.540275 69.5955 1.20892C 69.5955 1.87756 69.0512 2.41783 68.3801 2.41783C 65.3199 2.41783 63.8172 3.19699 62.2259 4.02191C 60.528 4.90152 58.6034 5.89947 54.9472 5.89947Z"/>
<path id="path14_fill" d="M 17.2139 2.23213L 17.4499 2.53453C 18.348 3.68527 18.4535 5.26737 17.7161 6.52714C 16.9029 7.91631 15.2595 8.58788 13.7062 8.1657L 6.80759 6.29076L 7.237 4.04415C 7.58014 2.24883 8.91652 0.806076 10.6804 0.326687C 11.4685 0.112469 12.2984 0.103667 13.091 0.301122L 14.9572 0.766061C 15.852 0.989006 16.6465 1.50512 17.2139 2.23213Z"/>
<path id="path15_stroke" d="M 17.4499 2.53453L 16.2674 3.45742L 16.2674 3.45742L 17.4499 2.53453ZM 17.2139 2.23213L 18.3964 1.30924L 18.3964 1.30924L 17.2139 2.23213ZM 14.9572 0.766061L 15.3198 -0.689447L 15.3198 -0.689447L 14.9572 0.766061ZM 13.091 0.301122L 12.7284 1.75663L 12.7284 1.75663L 13.091 0.301122ZM 6.80759 6.29076L 6.41418 7.73825L 6.41418 7.73825L 6.80759 6.29076ZM 13.7062 8.1657L 14.0996 6.71821L 14.0996 6.71821L 13.7062 8.1657ZM 7.237 4.04415L 5.76367 3.76255L 5.76367 3.76255L 7.237 4.04415ZM 17.7161 6.52714L 19.0106 7.28489L 19.0106 7.28489L 17.7161 6.52714ZM 10.6804 0.326687L 10.2869 -1.1208L 10.2869 -1.1208L 10.6804 0.326687ZM 18.6324 1.61165L 18.3964 1.30924L 16.0314 3.15501L 16.2674 3.45742L 18.6324 1.61165ZM 15.3198 -0.689447L 13.4536 -1.15439L 12.7284 1.75663L 14.5946 2.22157L 15.3198 -0.689447ZM -0.393411 5.88803L 6.41418 7.73825L 7.201 4.84327L 0.393411 2.99304L -0.393411 5.88803ZM 6.41418 7.73825L 13.3127 9.6132L 14.0996 6.71821L 7.201 4.84327L 6.41418 7.73825ZM 5.76367 3.76255L 5.33426 6.00915L 8.28092 6.57236L 8.71033 4.32576L 5.76367 3.76255ZM 16.4216 5.76938C 15.9507 6.5738 14.999 6.96268 14.0996 6.71821L 13.3127 9.6132C 15.5199 10.2131 17.8552 9.25882 19.0106 7.28489L 16.4216 5.76938ZM 19.0106 7.28489C 20.0584 5.49484 19.9086 3.24676 18.6324 1.61164L 16.2674 3.45742C 16.7875 4.12377 16.8486 5.0399 16.4216 5.76938L 19.0106 7.28489ZM 18.3964 1.30924C 17.6603 0.399548 16.4502 -0.386588 15.3198 -0.689447L 14.5946 2.22157C 15.2539 2.3646 15.6327 2.6107 16.0314 3.15502L 18.3964 1.30924ZM 13.4536 -1.15439C 12.4732 -1.38612 11.2622 -1.37327 10.2869 -1.1208L 11.0738 1.77418C 11.6749 1.59821 12.1237 1.59345 12.7284 1.75663L 13.4536 -1.15439ZM 10.2869 -1.1208C 7.96993 -0.491066 6.21443 1.40417 5.76367 3.76255L 8.71033 4.32576C 8.94585 3.09349 9.86311 2.10322 11.0738 1.77418L 10.2869 -1.1208Z"/>
</defs>
</svg>
