<svg width="135" height="125" viewBox="0 0 135 125" version="1.1" xmlns="http://www.w3.org/2000/svg" xmlns:xlink="http://www.w3.org/1999/xlink">
<title>Group</title>
<desc>Created using Figma</desc>
<g id="Canvas" transform="translate(11653 1304)">
<g id="Group">
<g id="Ellipse 4">
<use xlink:href="#path0_fill" transform="translate(-11644.1 -1303.99)" fill="#EFF8FF"/>
</g>
<g id="Vector 10">
<use xlink:href="#path1_fill" transform="translate(-11598.9 -1304)" fill="#D0E6F7"/>
</g>
<g id="noun_1143270_cc">
<g id="Vector">
<use xlink:href="#path2_fill" transform="translate(-11629.9 -1267.55)" fill="#FFFFFF"/>
<mask id="mask0_outline_ins">
<use xlink:href="#path2_fill" fill="white" transform="translate(-11629.9 -1267.55)"/>
</mask>
<g mask="url(#mask0_outline_ins)">
<use xlink:href="#path3_stroke_2x" transform="translate(-11629.9 -1267.55)" fill="#1078FF"/>
</g>
</g>
<g id="Vector">
<use xlink:href="#path4_fill" transform="translate(-11595.5 -1286.27)" fill="#FFFFFF"/>
<mask id="mask1_outline_ins">
<use xlink:href="#path4_fill" fill="white" transform="translate(-11595.5 -1286.27)"/>
</mask>
<g mask="url(#mask1_outline_ins)">
<use xlink:href="#path5_stroke_2x" transform="translate(-11595.5 -1286.27)" fill="#1078FF"/>
</g>
</g>
<clipPath id="clip-0" clip-rule="evenodd">
<path d="M -11546.9 -1246.84L -11539.3 -1246.84L -11539.3 -1237.6L -11546.9 -1237.6L -11546.9 -1246.84Z" fill="#FFFFFF"/>
</clipPath>
<g id="Group" clip-path="url(#clip-0)">
</g>
<g id="Vector">
<use xlink:href="#path6_fill" transform="translate(-11653 -1259.34)" fill="#EFF8FF"/>
<mask id="mask2_outline_ins">
<use xlink:href="#path6_fill" fill="white" transform="translate(-11653 -1259.34)"/>
</mask>
<g mask="url(#mask2_outline_ins)">
<use xlink:href="#path7_stroke_2x" transform="translate(-11653 -1259.34)" fill="#1078FF"/>
</g>
</g>
<g id="Vector">
<use xlink:href="#path8_fill" transform="translate(-11646.9 -1236.07)" fill="#1078FF"/>
</g>
<g id="Vector">
<use xlink:href="#path9_fill" transform="translate(-11544.8 -1236.07)" fill="#1078FF"/>
</g>
<g id="Vector">
<use xlink:href="#path10_fill" transform="translate(-11611 -1220.31)" fill="#1078FF"/>
</g>
<g id="Vector">
<use xlink:href="#path11_fill" transform="translate(-11585.6 -1272.24)" fill="#FFFFFF"/>
<mask id="mask3_outline_ins">
<use xlink:href="#path11_fill" fill="white" transform="translate(-11585.6 -1272.24)"/>
</mask>
<g mask="url(#mask3_outline_ins)">
<use xlink:href="#path12_stroke_2x" transform="translate(-11585.6 -1272.24)" fill="#1078FF"/>
</g>
</g>
<g id="Vector">
<use xlink:href="#path13_fill" transform="translate(-11629 -1229.17)" fill="#1078FF"/>
</g>
</g>
<g id="Vector 11">
<use xlink:href="#path14_fill" transform="translate(-11601.9 -1293.65)" fill="#1078FF"/>
<use xlink:href="#path15_stroke" transform="translate(-11601.9 -1293.65)" fill="#1078FF"/>
</g>
</g>
</g>
<defs>
<path id="path0_fill" d="M 126.065 62.4942C 126.065 97.0088 97.8447 124.988 63.0327 124.988C 28.2207 124.988 0 97.0088 0 62.4942C 0 27.9796 28.2207 0 63.0327 0C 97.8447 0 126.065 27.9796 126.065 62.4942Z"/>
<path id="path1_fill" d="M 36.2314 65.9503L 0 2.47192C 37.3233 -7.76334 63.1981 16.2502 71.4701 29.5363C 85.8634 53.1562 83.8781 89.078 63.529 105.809L 36.2314 65.9503Z"/>
<path id="path2_fill" d="M 45.4032 10.3997L 29.5963 17.5708L 29.0924 17.7964C 28.5239 18.0532 27.9059 18.1334 27.3209 18.0369L 1.9936 14.0498C 0.709607 13.8568 -0.167884 12.6515 0.0271143 11.3809C 0.222113 10.1919 1.2781 9.35466 2.46459 9.40365L 24.0554 10.1755C 25.6964 10.2394 27.3374 9.78959 28.7024 8.89004L 42.3162 4.98302e-07C 42.0732 0.691729 41.9097 1.41463 41.8452 2.17018C 41.6337 4.59717 42.4137 6.96182 44.0217 8.80989L 45.4032 10.3997Z"/>
<path id="path3_stroke_2x" d="M 45.4032 10.3997L 46.6426 13.1317L 50.3071 11.4692L 47.6677 8.4319L 45.4032 10.3997ZM 29.5963 17.5708L 30.8222 20.3089L 30.829 20.3059L 30.8358 20.3028L 29.5963 17.5708ZM 29.0924 17.7964L 27.8665 15.0583L 27.8574 15.0624L 29.0924 17.7964ZM 27.3209 18.0369L 27.8091 15.0769L 27.7982 15.0751L 27.7874 15.0734L 27.3209 18.0369ZM 1.9936 14.0498L 2.46012 11.0863L 2.44979 11.0847L 2.43946 11.0831L 1.9936 14.0498ZM 0.0271143 11.3809L -2.93334 10.8953L -2.93583 10.9106L -2.93817 10.9258L 0.0271143 11.3809ZM 2.46459 9.40365L 2.34084 12.4011L 2.34912 12.4014L 2.35741 12.4017L 2.46459 9.40365ZM 24.0554 10.1755L 24.172 7.17778L 24.1626 7.17745L 24.0554 10.1755ZM 28.7024 8.89004L 27.0621 6.37815L 27.0516 6.38508L 28.7024 8.89004ZM 42.3162 4.98302e-07L 45.1467 0.994306L 48.0759 -7.34412L 40.676 -2.51187L 42.3162 4.98302e-07ZM 41.8452 2.17018L 44.8339 2.43063L 44.8344 2.42536L 41.8452 2.17018ZM 44.0217 8.80989L 46.2862 6.84211L 46.285 6.84068L 44.0217 8.80989ZM 44.1638 7.66768L 28.3569 14.8388L 30.8358 20.3028L 46.6426 13.1317L 44.1638 7.66768ZM 28.3705 14.8327L 27.8665 15.0583L 30.3182 20.5346L 30.8222 20.3089L 28.3705 14.8327ZM 27.8574 15.0624C 27.817 15.0807 27.7977 15.075 27.8091 15.0769L 26.8327 20.9969C 27.8542 21.1329 29.3432 20.9392 30.3274 20.5304L 27.8574 15.0624ZM 27.7874 15.0734L 2.46012 11.0863L 1.52707 17.0133L 26.8543 21.0004L 27.7874 15.0734ZM 2.43946 11.0831C 2.80563 11.1382 3.04803 11.4734 2.9924 11.8359L -2.93817 10.9258C -3.3838 13.8296 -1.38641 16.5755 1.54773 17.0165L 2.43946 11.0831ZM 2.98757 11.8664C 2.93254 12.2019 2.64099 12.4135 2.34084 12.4011L 2.58834 6.4062C -0.0847873 6.29584 -2.48832 8.18184 -2.93334 10.8953L 2.98757 11.8664ZM 2.35741 12.4017L 23.9482 13.1736L 24.1626 7.17745L 2.57178 6.40556L 2.35741 12.4017ZM 23.9388 13.1733C 26.0386 13.2198 28.5746 12.5226 30.3532 11.395L 27.0516 6.38508C 26.1001 7.0566 25.3542 7.25894 24.172 7.1778L 23.9388 13.1733ZM 30.3426 11.4019L 43.9565 2.51187L 40.676 -2.51187L 27.0621 6.37818L 30.3426 11.4019ZM 39.4858 -0.994305C 39.1902 -0.137701 38.9451 0.955062 38.8561 1.91501L 44.8344 2.42536C 44.8743 1.87419 44.9563 1.52116 45.1467 0.994306L 39.4858 -0.994305ZM 38.8566 1.90974C 38.5734 5.15919 39.6239 8.32584 41.7585 10.7791L 46.285 6.84068C 45.2035 5.5978 44.6941 4.03515 44.8339 2.43063L 38.8566 1.90974ZM 41.7572 10.7777L 43.1387 12.3675L 47.6677 8.4319L 46.2862 6.84211L 41.7572 10.7777Z"/>
<path id="path4_fill" d="M 14.1677 12.2453C 14.1677 12.2453 17.8787 8.67092 16.7252 5.00447C 15.5567 1.28754 11.4543 -0.184979 7.85429 0.0183832C 5.79781 0.134166 3.85833 0.981756 2.53534 2.54334C 0.930353 4.43743 0.202859 6.97278 0.0888601 9.5393C 0.0888601 9.5393 -0.0791382 14.0281 0.0468607 15.3477C 0.12786 16.1968 1.39235 16.5382 2.45434 16.7074C 2.45434 16.7074 5.44381 17.3442 8.91928 16.5828C 10.4673 16.2428 14.1677 12.2453 14.1677 12.2453Z"/>
<path id="path5_stroke_2x" d="M 14.1677 12.2453L 12.0865 10.0846L 12.0246 10.1443L 11.9662 10.2074L 14.1677 12.2453ZM 16.7252 5.00447L 13.8633 5.90417L 13.8635 5.90478L 16.7252 5.00447ZM 7.85429 0.0183832L 8.02293 3.01364L 8.02349 3.01361L 7.85429 0.0183832ZM 2.53534 2.54334L 4.82413 4.48278L 4.82431 4.48257L 2.53534 2.54334ZM 0.0888601 9.5393L -2.90818 9.40618L -2.90865 9.41664L -2.90904 9.4271L 0.0888601 9.5393ZM 0.0468607 15.3477L 3.0333 15.0628L 3.03328 15.0626L 0.0468607 15.3477ZM 2.45434 16.7074L 3.07936 13.7733L 3.00326 13.7571L 2.92641 13.7448L 2.45434 16.7074ZM 8.91928 16.5828L 9.56136 19.5132L 9.56273 19.5129L 8.91928 16.5828ZM 14.1677 12.2453C 16.2489 14.406 16.2496 14.4054 16.2504 14.4046C 16.2506 14.4044 16.2514 14.4037 16.2519 14.4032C 16.2525 14.4026 16.2541 14.4011 16.2553 14.3999C 16.2567 14.3986 16.2602 14.3951 16.263 14.3924C 16.2667 14.3888 16.2752 14.3805 16.2826 14.3733C 16.2935 14.3625 16.3159 14.3403 16.3374 14.3187C 16.3726 14.2832 16.4376 14.2166 16.5044 14.1461C 16.6221 14.0215 16.8213 13.8024 17.0259 13.5601C 17.4013 13.1122 17.983 12.3405 18.4746 11.5042C 19.4242 9.86573 20.5372 7.12463 19.5869 4.10415L 13.8635 5.90478C 14.0667 6.55076 13.901 7.4301 13.2835 8.49547C 12.9915 9.0111 12.7176 9.36216 12.4332 9.69905C 12.3079 9.84911 12.2262 9.93789 12.1454 10.0231C 12.1131 10.0575 12.0995 10.0713 12.0809 10.0899C 12.0755 10.0954 12.0711 10.0997 12.0741 10.0967C 12.0737 10.0971 12.078 10.0929 12.0778 10.0931C 12.0768 10.0941 12.082 10.089 12.0815 10.0895C 12.0808 10.0902 12.0842 10.0869 12.0839 10.0872C 12.0843 10.0868 12.085 10.0862 12.0852 10.086C 12.0858 10.0853 12.0865 10.0846 14.1677 12.2453ZM 19.5871 4.10477C 17.8102 -1.54758 11.8685 -3.21316 7.68509 -2.97684L 8.02349 3.01361C 11.04 2.8432 13.3032 4.12266 13.8633 5.90417L 19.5871 4.10477ZM 7.68565 -2.97687C 4.92906 -2.82167 2.17528 -1.67267 0.246372 0.604106L 4.82431 4.48257C 5.54138 3.63618 6.66655 3.09001 8.02293 3.01364L 7.68565 -2.97687ZM 0.246549 0.603897C -1.91982 3.16049 -2.77523 6.41299 -2.90818 9.40618L 3.08591 9.67242C 3.18095 7.53257 3.78053 5.71437 4.82413 4.48278L 0.246549 0.603897ZM 0.0888601 9.5393C -2.90904 9.4271 -2.90904 9.42717 -2.90905 9.42726C -2.90905 9.42732 -2.90905 9.42743 -2.90906 9.42753C -2.90906 9.42771 -2.90908 9.42803 -2.90909 9.42838C -2.90911 9.429 -2.90915 9.43005 -2.9092 9.43128C -2.90928 9.4336 -2.90942 9.43731 -2.90959 9.44189C -2.90991 9.45075 -2.91041 9.46443 -2.91104 9.48169C -2.91226 9.51558 -2.91408 9.56661 -2.91631 9.63074C -2.92071 9.75765 -2.92695 9.94335 -2.93396 10.1677C -2.94787 10.6135 -2.96537 11.232 -2.97877 11.8875C -3.00535 13.1944 -3.01324 14.8198 -2.93956 15.6329L 3.03328 15.0626C 2.98096 14.556 2.99408 13.2772 3.01999 12.0098C 3.03285 11.3781 3.04947 10.792 3.06312 10.3549C 3.06989 10.1378 3.07579 9.9625 3.08008 9.83877C 3.08221 9.77758 3.08387 9.73088 3.08505 9.69837C 3.08562 9.68244 3.08605 9.67074 3.08635 9.66254C 3.0865 9.65859 3.0866 9.65584 3.08667 9.65383C 3.08671 9.6529 3.08673 9.65232 3.08675 9.65186C 3.08676 9.65166 3.08676 9.65157 3.08676 9.65147C 3.08676 9.65144 3.08676 9.65145 3.08676 9.65143C 3.08676 9.65146 3.08676 9.6515 0.0888601 9.5393ZM -2.93958 15.6326C -2.74278 17.6956 -1.1269 18.6578 -0.378335 19.0046C 0.383944 19.3382 1.3655 19.5705 1.98226 19.6701L 2.92641 13.7448C 2.70604 13.7101 2.56497 13.6843 2.38724 13.6372C 2.29932 13.615 2.27597 13.6085 2.2107 13.5856C 2.14796 13.5652 2.11294 13.5446 2.14379 13.5605C 2.15726 13.5663 2.16075 13.5685 2.16454 13.5712C 2.16673 13.5718 2.23588 13.6145 2.2276 13.6099C 2.28136 13.6457 2.37468 13.7146 2.48159 13.827C 2.71749 14.075 2.97953 14.4992 3.0333 15.0628L -2.93958 15.6326ZM 2.45434 16.7074C 1.82931 19.6416 1.83001 19.6418 1.83073 19.6419C 1.83098 19.642 1.8317 19.6421 1.83221 19.6422C 1.83276 19.6423 1.83428 19.6427 1.83539 19.6429C 1.83668 19.6432 1.84001 19.6439 1.84259 19.6444C 1.84591 19.6451 1.85372 19.6467 1.86037 19.6481C 1.86994 19.65 1.89009 19.6541 1.9092 19.6579C 1.93984 19.6639 1.99786 19.675 2.05845 19.6859C 2.16401 19.7049 2.34773 19.7356 2.55142 19.7649C 2.92571 19.8181 3.53895 19.8879 4.22124 19.9263C 5.51307 19.9942 7.53321 19.9428 9.56136 19.5132L 8.27719 13.6523C 6.82988 13.9842 5.61755 13.9951 4.54577 13.935C 4.04627 13.9094 3.69492 13.8676 3.40007 13.8252C 3.26919 13.8067 3.19222 13.7936 3.12071 13.7807C 3.09277 13.7757 3.08316 13.7739 3.06832 13.7709C 3.06469 13.7702 3.06371 13.77 3.06567 13.7704C 3.06478 13.7702 3.07086 13.7715 3.07044 13.7714C 3.06931 13.7712 3.07494 13.7723 3.07438 13.7722C 3.07364 13.7721 3.07711 13.7728 3.07674 13.7727C 3.07716 13.7728 3.07781 13.7729 3.07802 13.773C 3.07869 13.7731 3.07936 13.7733 2.45434 16.7074ZM 9.56273 19.5129C 10.6473 19.2748 11.6288 18.5835 12.19 18.1634C 12.8447 17.6707 13.5748 17.0344 14.1687 16.4819C 14.766 15.9249 15.3275 15.3646 15.7118 14.9711C 15.9083 14.7699 16.0744 14.5962 16.1833 14.4813C 16.2397 14.4217 16.2866 14.3719 16.3161 14.3403C 16.3318 14.3236 16.3452 14.3092 16.3532 14.3007C 16.3576 14.2959 16.3616 14.2915 16.3639 14.2891C 16.3652 14.2877 16.3666 14.2862 16.3673 14.2855C 16.3677 14.285 16.3682 14.2844 16.3684 14.2842C 16.3686 14.284 16.3688 14.2838 16.3689 14.2837C 16.3691 14.2835 16.3693 14.2833 14.1677 12.2453C 11.9662 10.2074 11.9664 10.2072 11.9665 10.2071C 11.9665 10.207 11.9666 10.2069 11.9667 10.2069C 11.9667 10.2069 11.9669 10.2067 11.9669 10.2067C 11.9666 10.2069 11.9666 10.2069 11.9662 10.2074C 11.9649 10.2088 11.9636 10.2102 11.961 10.213C 11.9549 10.2196 11.9473 10.2277 11.9355 10.2403C 11.91 10.2675 11.8759 10.3039 11.8281 10.3543C 11.7286 10.4593 11.5935 10.6006 11.4189 10.7794C 11.0609 11.1461 10.6006 11.6064 10.0793 12.0913C 9.55453 12.5806 9.06927 13.0074 8.59482 13.3598C 8.02681 13.7849 7.96524 13.7208 8.27583 13.6526L 9.56273 19.5129Z"/>
<path id="path6_fill" d="M 75.2292 20.8159C 72.2068 21.3458 70.1923 22.3908 68.4703 23.2755C 67.2358 23.9182 66.1633 24.4645 64.6843 24.7866C 63.5473 24.5298 62.4268 24.2715 61.3049 23.9984C 54.3359 22.327 47.3655 20.7179 40.3965 18.8372C 33.4111 16.9074 26.5217 14.6408 19.8452 11.859C 13.1703 9.09507 6.65434 5.99269 0.513392 2.05459C -0.00710337 1.71763 -0.152602 1.0259 0.172895 0.510815C 0.465392 0.061043 1.03389 -0.1156 1.52138 0.0773717L 1.57088 0.0937024C 14.8608 4.99666 28.3771 9.28953 42.024 12.8268C 52.9889 15.6234 64.1338 18.1959 75.2292 20.8159Z"/>
<path id="path7_stroke_2x" d="M 75.2292 20.8159L 76.0927 25.7407L 76.3783 15.9497L 75.2292 20.8159ZM 68.4703 23.2755L 66.1854 18.8281L 66.1733 18.8343L 66.1612 18.8406L 68.4703 23.2755ZM 64.6843 24.7866L 63.5828 29.6638L 64.6646 29.9081L 65.7484 29.6721L 64.6843 24.7866ZM 61.3049 23.9984L 62.4875 19.1403L 62.4792 19.1383L 62.471 19.1363L 61.3049 23.9984ZM 40.3965 18.8372L 39.0652 23.6566L 39.0795 23.6606L 39.0938 23.6645L 40.3965 18.8372ZM 19.8452 11.859L 21.7682 7.2436L 21.7581 7.2394L 19.8452 11.859ZM 0.513392 2.05459L -2.20381 6.25183L -2.19478 6.25768L -2.18571 6.26349L 0.513392 2.05459ZM 0.172895 0.510815L -4.0187 -2.21508L -4.03647 -2.18776L -4.05388 -2.16021L 0.172895 0.510815ZM 1.52138 0.0773717L -0.318895 4.72639L -0.183466 4.78L -0.0451454 4.82563L 1.52138 0.0773717ZM 1.57088 0.0937024L 3.30149 -4.59725L 3.21995 -4.62733L 3.13741 -4.65456L 1.57088 0.0937024ZM 42.024 12.8268L 40.7695 17.6669L 40.7789 17.6693L 40.7883 17.6717L 42.024 12.8268ZM 74.3658 15.891C 70.6052 16.6092 67.8986 17.9479 66.1854 18.8281L 70.7552 27.7229C 72.4859 26.8337 73.8083 26.0824 76.0927 25.7407L 74.3658 15.891ZM 66.1612 18.8406C 64.9466 19.4731 64.4828 19.7554 63.6203 19.9011L 65.7484 29.6721C 67.8438 29.1736 69.525 28.3634 70.7793 27.7104L 66.1612 18.8406ZM 65.7859 19.9095C 64.6597 19.6551 63.5797 19.4063 62.4875 19.1403L 60.1222 28.8565C 61.274 29.1368 62.435 29.4045 63.5828 29.6638L 65.7859 19.9095ZM 62.471 19.1363C 55.4813 17.4599 48.5794 15.8675 41.6993 14.0099L 39.0938 23.6645C 46.1516 25.5683 53.1905 27.194 60.1387 28.8605L 62.471 19.1363ZM 41.7279 14.0177C 34.8585 12.1215 28.2658 9.95483 21.7682 7.24361L 17.9222 16.4744C 24.7775 19.3267 31.9637 21.6934 39.0652 23.6566L 41.7279 14.0177ZM 21.7581 7.2394C 15.2021 4.52652 9.08341 1.62238 3.2125 -2.15431L -2.18571 6.26349C 4.22527 10.363 11.1384 13.6636 17.9323 16.4786L 21.7581 7.2394ZM 3.2306 -2.14265C 5.02816 -0.978947 5.52647 1.39872 4.39967 3.18184L -4.05388 -2.16021C -5.83168 0.653079 -5.04236 4.41421 -2.20381 6.25183L 3.2306 -2.14265ZM 4.36449 3.23671C 3.35751 4.78514 1.40153 5.40741 -0.318895 4.72639L 3.36166 -4.57165C 0.66624 -5.63861 -2.42672 -4.66306 -4.0187 -2.21508L 4.36449 3.23671ZM -0.0451454 4.82563L 0.00435415 4.84196L 3.13741 -4.65456L 3.08791 -4.67089L -0.0451454 4.82563ZM -0.159722 4.78465C 13.2383 9.72609 26.9926 14.094 40.7695 17.6669L 43.2786 7.98679C 29.7617 4.48505 16.4833 0.267229 3.30149 -4.59725L -0.159722 4.78465ZM 40.7883 17.6717C 51.8087 20.4822 62.997 23.065 74.0802 25.682L 76.3783 15.9497C 65.2706 13.3268 54.1691 10.7647 43.2597 7.98194L 40.7883 17.6717Z"/>
<path id="path8_fill" d="M 92.7982 7.79901C 92.3602 7.83167 91.9042 7.848 91.4167 7.848C 86.5267 7.848 83.9603 6.51353 81.6848 5.33937C 79.5563 4.24685 77.5583 3.21668 73.4649 3.21668C 71.4504 3.21668 69.9399 3.45716 68.6724 3.8431C 67.3734 4.24537 66.3174 4.7753 65.2449 5.33788C 62.9709 6.51204 60.388 7.84652 55.513 7.84652C 50.6231 7.84652 48.0401 6.51204 45.7811 5.33788C 43.6526 4.24537 41.6381 3.2152 37.5447 3.2152C 33.4512 3.2152 31.4517 4.24389 29.3247 5.33788C 27.0508 6.51204 24.4828 7.84652 19.5928 7.84652C 14.7029 7.84652 12.1364 6.51204 9.86091 5.33788C 7.73243 4.24537 5.71795 3.2152 1.62449 3.2152C 0.730494 3.2152 -2.2888e-07 2.4923 -2.2888e-07 1.6076C -2.2888e-07 0.706571 0.730494 -1.63081e-06 1.62449 -1.63081e-06C 6.51444 -1.63081e-06 9.08092 1.31814 11.3564 2.4923C 13.4849 3.58481 15.4994 4.63132 19.5928 4.63132C 23.6863 4.63132 25.6858 3.5863 27.8128 2.4923C 30.0867 1.31814 32.6547 -1.63081e-06 37.5447 -1.63081e-06C 42.4346 -1.63081e-06 45.0011 1.31814 47.2766 2.4923C 49.4051 3.58481 51.4195 4.63132 55.513 4.63132C 59.4115 4.63132 61.411 3.68278 63.4404 2.63777C 63.5379 2.58878 63.6354 2.54128 63.7329 2.4923C 66.0069 1.31814 68.5749 -1.63081e-06 73.4649 -1.63081e-06C 78.3548 -1.63081e-06 80.9213 1.31814 83.1968 2.4923C 85.3087 3.58481 87.3232 4.63132 91.4167 4.63132C 91.5637 4.63132 91.7092 4.63131 91.8397 4.61498L 92.7982 7.79901Z"/>
<path id="path9_fill" d="M 26.8228 6.23892C 26.8228 7.12362 26.0923 7.84652 25.1983 7.84652C 20.3083 7.84652 17.7418 6.51204 15.4664 5.33789C 14.0039 4.58233 12.6074 3.85943 10.5434 3.48833C 10.5269 3.48833 10.5269 3.48833 10.5269 3.48833C 9.58492 3.31169 8.51242 3.2152 7.24493 3.2152C 4.97095 3.2152 3.34647 3.53732 1.99798 4.00342C 1.47748 4.16373 1.02299 4.37303 0.568497 4.58233L 0.389994 3.60115L -5.67622e-06 1.31814C 1.78648 0.578913 4.01246 -2.44621e-06 7.24643 -2.44621e-06C 7.58693 -2.44621e-06 7.91243 -8.98593e-08 8.22143 0.0163283C 12.4949 0.176643 14.8664 1.3983 16.9783 2.4923C 19.1068 3.58481 21.1048 4.63132 25.1983 4.63132C 26.0923 4.63132 26.8228 5.33789 26.8228 6.23892Z"/>
<path id="path10_fill" d="M 57.121 6.23743C 57.121 7.12213 56.3905 7.84503 55.4965 7.84503C 50.6066 7.84503 48.0401 6.52689 45.7646 5.35273C 43.6361 4.26022 41.6381 3.2152 37.5447 3.2152C 33.4512 3.2152 31.4367 4.26022 29.3247 5.35273C 27.0508 6.52689 24.4678 7.84503 19.5928 7.84503C 14.7029 7.84503 12.1199 6.52689 9.86091 5.35273C 7.73243 4.26022 5.71795 3.2152 1.62449 3.2152C 0.730496 3.2152 2.56345e-06 2.4923 2.56345e-06 1.6076C 2.56345e-06 0.722897 0.730496 -3.53341e-06 1.62449 -3.53341e-06C 6.51445 -3.53341e-06 9.08092 1.33447 11.3564 2.4923C 13.4849 3.60114 15.4994 4.62983 19.5928 4.62983C 23.6863 4.62983 25.6858 3.60114 27.8128 2.4923C 30.0867 1.33447 32.6547 -3.53341e-06 37.5447 -3.53341e-06C 42.4346 -3.53341e-06 45.0011 1.33447 47.2766 2.50863C 49.3886 3.60114 51.4031 4.63131 55.4965 4.63131C 56.389 4.62983 57.121 5.35422 57.121 6.23743Z"/>
<path id="path11_fill" d="M 34.31 20.5326L 21.3456 5.8549C 10.9312 -4.98119 2.43531 2.54322 2.43531 2.54322C -0.456666 4.89005 -0.830163 9.13542 1.62232 11.932L 19.0222 31.9001C 22.4346 35.5012 26.0406 36.0163 26.0406 36.0163L 29.3061 36.8357L 26.7201 28.2811C 26.5521 27.7275 26.2146 27.2391 25.7541 26.8843L 9.59925 14.4555C 9.25575 14.1289 8.68875 13.5277 9.31574 12.7559C 10.0852 11.8088 11.0932 12.5584 11.0932 12.5584L 28.0476 25.5944C 28.3896 25.8571 28.6401 26.2193 28.7646 26.6305L 33.935 43.6847C 33.9485 43.6921 33.9575 43.6981 33.971 43.7055C 35.741 43.3581 37.121 42.8356 38.321 42.2701C 38.5805 42.1409 38.8415 42.0133 39.0845 41.9005L 35.7215 22.6241C 35.723 22.6226 35.342 21.398 34.31 20.5326Z"/>
<path id="path12_stroke_2x" d="M 34.31 20.5326L 32.0615 22.5186L 32.2102 22.687L 32.3824 22.8313L 34.31 20.5326ZM 21.3456 5.8549L 23.5941 3.86888L 23.5524 3.82158L 23.5086 3.77608L 21.3456 5.8549ZM 2.43531 2.54322L 4.32568 4.8727L 4.37591 4.83194L 4.42433 4.78905L 2.43531 2.54322ZM 1.62232 11.932L 3.88411 9.96113L 3.87786 9.95401L 1.62232 11.932ZM 19.0222 31.9001L 16.7604 33.871L 16.8015 33.9182L 16.8446 33.9636L 19.0222 31.9001ZM 26.0406 36.0163L 26.7707 33.1065L 26.6193 33.0685L 26.4648 33.0465L 26.0406 36.0163ZM 29.3061 36.8357L 28.5759 39.7455L 33.7091 41.0336L 32.1777 35.9676L 29.3061 36.8357ZM 26.7201 28.2811L 29.5918 27.4131L 29.5909 27.4101L 26.7201 28.2811ZM 25.7541 26.8843L 27.585 24.5078L 27.5834 24.5066L 25.7541 26.8843ZM 9.59925 14.4555L 7.53218 16.6297L 7.64574 16.7377L 7.76993 16.8332L 9.59925 14.4555ZM 9.31574 12.7559L 6.98743 10.8641L 6.98716 10.8644L 9.31574 12.7559ZM 11.0932 12.5584L 12.9218 10.1802L 12.9028 10.1655L 12.8835 10.1511L 11.0932 12.5584ZM 28.0476 25.5944L 26.219 27.9727L 26.2199 27.9734L 28.0476 25.5944ZM 28.7646 26.6305L 25.8933 27.4999L 25.8936 27.5009L 28.7646 26.6305ZM 33.935 43.6847L 31.0641 44.5551L 31.4187 45.7248L 32.4897 46.3136L 33.935 43.6847ZM 33.971 43.7055L 32.5257 46.3344L 33.4801 46.8591L 34.5487 46.6493L 33.971 43.7055ZM 38.321 42.2701L 39.6 44.9838L 39.6289 44.9701L 39.6576 44.9559L 38.321 42.2701ZM 39.0845 41.9005L 40.3478 44.6215L 42.4354 43.6523L 42.0398 41.3849L 39.0845 41.9005ZM 35.7215 22.6241L 33.6113 20.4917L 32.4966 21.5948L 32.7662 23.1397L 35.7215 22.6241ZM 36.5585 18.5466L 23.5941 3.86888L 19.0971 7.84093L 32.0615 22.5186L 36.5585 18.5466ZM 23.5086 3.77608C 17.6915 -2.27661 12.0116 -3.51864 7.52928 -2.82965C 5.44044 -2.48358 3.55427 -1.6881 2.46192 -1.08191C 1.87323 -0.749843 1.34871 -0.398219 1.05096 -0.181328C 0.883774 -0.0586503 0.728342 0.0627791 0.644949 0.130208C 0.594815 0.170931 0.544179 0.213157 0.519305 0.234232C 0.502825 0.248237 0.484339 0.264131 0.476166 0.271212C 0.470101 0.276477 0.462575 0.283045 0.459561 0.285684C 0.457077 0.287863 0.453744 0.290793 0.452506 0.291883C 0.451401 0.292857 0.449843 0.294232 0.449291 0.294719C 0.447772 0.296063 0.446285 0.297378 2.43531 2.54322C 4.42433 4.78905 4.42291 4.79031 4.42152 4.79154C 4.4211 4.79191 4.41973 4.79312 4.41889 4.79386C 4.41961 4.79323 4.41271 4.79929 4.41416 4.79802C 4.4151 4.79719 4.4049 4.80609 4.40685 4.8044C 4.40677 4.80447 4.4006 4.80979 4.40069 4.80969C 4.39278 4.81643 4.40694 4.80425 4.42158 4.79251C 4.46772 4.75501 4.50499 4.72536 4.59045 4.66346C 4.79801 4.51119 5.01859 4.35963 5.38912 4.1556C 6.21521 3.68958 7.10392 3.28122 8.44086 3.1007C 10.8101 2.73651 14.5854 3.15032 19.1826 7.93372L 23.5086 3.77608ZM 0.544938 0.213731C -3.65849 3.6248 -4.21624 9.82426 -0.633234 13.91L 3.87786 9.95401C 2.55592 8.44658 2.74516 6.15529 4.32568 4.8727L 0.544938 0.213731ZM -0.639464 13.9029L 16.7604 33.871L 21.2839 29.9292L 3.8841 9.96114L -0.639464 13.9029ZM 16.8446 33.9636C 18.8622 36.0496 21.1223 37.4034 22.6123 38.0587C 23.4205 38.4066 24.1913 38.6547 24.6495 38.7779C 24.9075 38.8461 25.1539 38.9013 25.2889 38.9286C 25.3701 38.9447 25.4531 38.9598 25.4943 38.9669C 25.5216 38.9715 25.5524 38.9765 25.5661 38.9786C 25.5763 38.9802 25.5889 38.9821 25.594 38.9829C 25.5982 38.9835 25.6038 38.9844 25.6059 38.9847C 25.6077 38.9849 25.6104 38.9853 25.6113 38.9855C 25.6122 38.9856 25.6134 38.9858 25.6139 38.9858C 25.6151 38.986 25.6164 38.9862 26.0406 36.0163C 26.4648 33.0465 26.466 33.0466 26.4672 33.0468C 26.4676 33.0469 26.4688 33.047 26.4696 33.0472C 26.4689 33.0471 26.4754 33.048 26.474 33.0478C 26.4728 33.0476 26.4844 33.0493 26.482 33.049C 26.4804 33.0487 26.4974 33.0513 26.4942 33.0508C 26.4943 33.0509 26.5043 33.0524 26.5042 33.0525C 26.5175 33.0547 26.4931 33.0507 26.4691 33.0458C 26.3935 33.0308 26.3315 33.0176 26.1981 32.9812C 25.8736 32.8954 25.5297 32.7896 25.0098 32.5586C 23.8437 32.056 22.5945 31.3517 21.1998 29.8366L 16.8446 33.9636ZM 25.3105 38.9261L 28.5759 39.7455L 30.0362 33.9259L 26.7707 33.1065L 25.3105 38.9261ZM 32.1777 35.9676L 29.5918 27.4131L 23.8484 29.1492L 26.4344 37.7038L 32.1777 35.9676ZM 29.5909 27.4101C 29.2539 26.4235 28.3901 25.1734 27.585 24.5078L 23.9232 29.2608C 23.8904 29.2355 23.8633 29.1983 23.8493 29.1522L 29.5909 27.4101ZM 27.5834 24.5066L 11.4286 12.0778L 7.76993 16.8332L 23.9248 29.2621L 27.5834 24.5066ZM 11.6663 12.2813C 11.4936 12.1171 11.7487 12.303 11.9075 12.7325C 12.0101 13.0102 12.0769 13.3907 12.0026 13.8165C 11.9295 14.2358 11.7518 14.5151 11.6443 14.6473L 6.98716 10.8644C 6.03043 12.0422 5.79217 13.4941 6.27966 14.8128C 6.65103 15.8175 7.36139 16.4673 7.53218 16.6297L 11.6663 12.2813ZM 11.6441 14.6477C 11.4937 14.8327 11.2142 15.0644 10.8072 15.1907C 10.4269 15.3087 10.103 15.2831 9.90969 15.2447C 9.72545 15.2082 9.6013 15.1499 9.53794 15.1169C 9.56769 15.134 9.42283 15.0498 9.42843 15.0531C 9.44534 15.0642 9.36327 15.0094 9.37015 15.0141C 9.38016 15.0211 9.33326 14.9879 9.33795 14.9913C 9.34346 14.9953 9.31817 14.9769 9.32085 14.9789C 9.32375 14.981 9.31059 14.9714 9.31202 14.9724C 9.31351 14.9735 9.3068 14.9685 9.30753 14.9691C 9.30678 14.9685 9.30565 14.9677 9.30527 14.9674C 9.30414 14.9666 9.303 14.9657 11.0932 12.5584C 12.8835 10.1511 12.8823 10.1503 12.8812 10.1494C 12.8808 10.1491 12.8796 10.1483 12.8788 10.1477C 12.878 10.1471 12.8757 10.1454 12.8741 10.1442C 12.8724 10.1429 12.8675 10.1394 12.8641 10.1369C 12.8605 10.1342 12.8501 10.1267 12.8427 10.1213C 12.8341 10.1152 12.8109 10.0987 12.7933 10.0864C 12.7713 10.0712 12.7144 10.0328 12.6684 10.0031C 12.6047 9.96251 12.4458 9.86799 12.3095 9.79534C 12.1003 9.68888 11.5529 9.47027 11.0764 9.35927C 9.85412 9.11696 8.20197 9.36926 6.98743 10.8641L 11.6441 14.6477ZM 9.26461 14.9367L 26.219 27.9727L 29.8762 23.2161L 12.9218 10.1802L 9.26461 14.9367ZM 26.2199 27.9734C 26.0662 27.8553 25.9509 27.6902 25.8933 27.4999L 31.6358 25.7611C 31.342 24.9157 30.5633 23.7895 29.8752 23.2154L 26.2199 27.9734ZM 25.8936 27.5009L 31.0641 44.5551L 36.806 42.8143L 31.6355 25.7601L 25.8936 27.5009ZM 32.4897 46.3136C 32.4478 46.2905 32.4142 46.2704 32.4217 46.2748C 32.4255 46.2771 32.4703 46.3039 32.5257 46.3344L 35.4163 41.0766C 35.4583 41.0997 35.4918 41.1198 35.4844 41.1154C 35.4806 41.1131 35.4358 41.0863 35.3803 41.0558L 32.4897 46.3136ZM 34.5487 46.6493C 36.5639 46.2431 38.2925 45.5974 39.6 44.9838L 37.042 39.5564C 35.9495 40.0738 34.9181 40.4732 33.3933 40.7616L 34.5487 46.6493ZM 39.6576 44.9559C 39.9079 44.8313 40.1323 44.7214 40.3478 44.6215L 37.8212 39.1794C 37.5507 39.3052 37.2531 39.4506 36.9844 39.5843L 39.6576 44.9559ZM 42.0398 41.3849L 38.6769 22.1085L 32.7662 23.1397L 36.1291 42.4161L 42.0398 41.3849ZM 37.8317 24.7565C 38.3667 24.0394 38.7076 22.9128 38.7215 22.6264C 38.7188 22.4965 38.7033 22.294 38.6944 22.2213C 38.6827 22.143 38.6607 22.0233 38.6519 21.9816C 38.6421 21.9383 38.6257 21.8716 38.6194 21.8479C 38.6127 21.8234 38.6014 21.7833 38.5966 21.7669C 38.5912 21.7491 38.5809 21.7157 38.5749 21.6966C 38.5671 21.6726 38.5505 21.6226 38.537 21.5834C 38.5167 21.5254 38.4734 21.4079 38.4305 21.3002C 38.3592 21.1238 38.2088 20.7885 38.0425 20.4758C 37.7446 19.9325 37.0541 18.9564 36.2377 18.2339L 32.3824 22.8313C 32.598 22.9742 32.6139 23.0431 32.7642 23.3289C 32.8219 23.4307 32.831 23.4559 32.8629 23.5366C 32.8717 23.5575 32.8746 23.5679 32.8703 23.5553C 32.8715 23.5592 32.8578 23.5176 32.8596 23.5231C 32.8627 23.5329 32.8406 23.4608 32.8445 23.4739C 32.8486 23.488 32.8169 23.3751 32.8232 23.3984C 32.8198 23.3857 32.8058 23.3336 32.791 23.2661C 32.7859 23.2426 32.7652 23.1486 32.7487 23.0268C 32.7397 22.9541 32.7242 22.7516 32.7215 22.6218C 32.7354 22.3354 33.0764 21.2088 33.6113 20.4917L 37.8317 24.7565Z"/>
<path id="path13_fill" d="M 73.4438 7.84503C 68.5584 7.84503 65.9874 6.51798 63.7179 5.34827C 61.5924 4.25131 59.584 3.2152 55.4935 3.2152C 51.403 3.2152 49.3946 4.25131 47.2676 5.34827C 44.9981 6.51798 42.4256 7.84503 37.5387 7.84503C 32.6502 7.84503 30.0777 6.51798 27.8083 5.34827C 25.6813 4.25131 23.6713 3.2152 19.5793 3.2152C 15.4889 3.2152 13.4804 4.25131 11.3534 5.34827C 9.08392 6.51798 6.51144 7.84503 1.62448 7.84503C 0.727493 7.84503 -9.15519e-07 7.12658 -9.15519e-07 6.23743C -9.15519e-07 5.34827 0.727493 4.62983 1.62448 4.62983C 5.71495 4.62983 7.72493 3.59372 9.85191 2.49675C 12.1214 1.32705 14.6939 2.26501e-06 19.5793 2.26501e-06C 24.4663 2.26501e-06 27.0403 1.32705 29.3097 2.49675C 31.4367 3.59372 33.4467 4.62983 37.5402 4.62983C 41.6306 4.62983 43.6391 3.59372 45.7661 2.49675C 48.0356 1.32705 50.608 2.26501e-06 55.495 2.26501e-06C 60.3805 2.26501e-06 62.9529 1.32705 65.2209 2.49824C 67.3464 3.59372 69.3549 4.62983 73.4438 4.62983C 77.5343 4.62983 79.5443 3.59372 81.6713 2.49675C 83.9407 1.32705 86.5132 2.26501e-06 91.3987 2.26501e-06C 92.2957 2.26501e-06 93.0232 0.71845 93.0232 1.6076C 93.0232 2.49676 92.2957 3.2152 91.3987 3.2152C 87.3082 3.2152 85.2997 4.25131 83.1728 5.34827C 80.9033 6.51798 78.3308 7.84503 73.4438 7.84503Z"/>
<path id="path14_fill" d="M 25.3123 5.90496L 21.8381 11.8099L 9.09921 8.36536L 10.4227 1.47624L 15.8823 0L 21.8381 1.47624L 25.3123 5.90496Z"/>
<path id="path15_stroke" d="M 21.8381 11.8099L 21.4466 13.2579L 22.5508 13.5565L 23.1309 12.5706L 21.8381 11.8099ZM 25.3123 5.90496L 26.6052 6.66561L 27.1239 5.78396L 26.4925 4.97913L 25.3123 5.90496ZM 21.8381 1.47624L 23.0183 0.550409L 22.6998 0.144436L 22.199 0.0202978L 21.8381 1.47624ZM 15.8823 0L 16.2431 -1.45594L 15.8659 -1.54945L 15.4907 -1.448L 15.8823 0ZM 10.4227 1.47624L 10.0312 0.0282415L 9.12648 0.272872L 8.94967 1.19324L 10.4227 1.47624ZM 23.1309 12.5706L 26.6052 6.66561L 24.0195 5.14431L 20.5453 11.0493L 23.1309 12.5706ZM 26.4925 4.97913L 23.0183 0.550409L 20.6579 2.40207L 24.1322 6.83079L 26.4925 4.97913ZM 22.199 0.0202978L 16.2431 -1.45594L 15.5214 1.45594L 21.4772 2.93218L 22.199 0.0202978ZM 15.4907 -1.448L 10.0312 0.0282415L 10.8143 2.92424L 16.2738 1.448L 15.4907 -1.448ZM -0.391535 7.35296L 8.70767 9.81336L 9.49074 6.91736L 0.391535 4.45696L -0.391535 7.35296ZM 8.70767 9.81336L 21.4466 13.2579L 22.2296 10.3619L 9.49074 6.91736L 8.70767 9.81336ZM 8.94967 1.19324L 7.62615 8.08236L 10.5723 8.64836L 11.8958 1.75924L 8.94967 1.19324Z"/>
</defs>
</svg>
