<svg width="38" height="25" viewBox="0 0 38 25" version="1.1" xmlns="http://www.w3.org/2000/svg" xmlns:xlink="http://www.w3.org/1999/xlink">
<title>mail_icon</title>
<desc>Created using Figma</desc>
<g id="Canvas" transform="translate(1760 1383)">
<g id="mail_icon">
<g id="Vector">
<use xlink:href="#path0_fill" transform="translate(-1760 -1383)" fill="#2D9CDB"/>
</g>
</g>
</g>
<defs>
<path id="path0_fill" d="M 34.2259 4.1208e-08L 3.77407 4.1208e-08C 1.693 4.1208e-08 8.13003e-08 1.71624 8.13003e-08 3.82586L 8.13003e-08 21.1741C 8.13003e-08 23.2838 1.693 25 3.77407 25L 34.2259 25C 36.307 25 38 23.2838 38 21.1741L 38 3.82586C 38 1.71624 36.307 4.1208e-08 34.2259 4.1208e-08ZM 25.7347 11.6135L 36.4193 2.74472C 36.5765 3.07194 36.668 3.43788 36.668 3.82541L 36.668 21.1737C 36.668 21.5419 36.5858 21.8911 36.4429 22.2053L 25.7347 11.6135ZM 34.2259 1.35031C 34.7063 1.35031 35.1535 1.49344 35.5313 1.73739L 19 15.4587L 2.46869 1.73739C 2.84698 1.49344 3.29365 1.35031 3.77407 1.35031L 34.2259 1.35031ZM 1.55714 22.2053C 1.41417 21.8911 1.33202 21.5419 1.33202 21.1737L 1.33202 3.82586C 1.33202 3.43833 1.42305 3.07194 1.58067 2.74517L 12.2653 11.614L 1.55714 22.2053ZM 3.77407 23.6492C 3.275 23.6492 2.81102 23.4962 2.42384 23.2347L 13.3025 12.4746L 19 17.2038L 24.6975 12.4746L 35.5762 23.2347C 35.189 23.4962 34.725 23.6492 34.2259 23.6492L 3.77407 23.6492Z"/>
</defs>
</svg>
