<svg width="19" height="32" viewBox="0 0 19 32" version="1.1" xmlns="http://www.w3.org/2000/svg" xmlns:xlink="http://www.w3.org/1999/xlink">
<title>name_icon</title>
<desc>Created using Figma</desc>
<g id="Canvas" transform="translate(1750 1463)">
<g id="name_icon">
<g id="Group">
<g id="Vector">
<use xlink:href="#path0_fill" transform="translate(-1745.78 -1463)" fill="#2D9CDB"/>
</g>
<g id="Vector">
<use xlink:href="#path1_fill" transform="translate(-1750 -1450.66)" fill="#2D9CDB"/>
</g>
</g>
</g>
</g>
<defs>
<path id="path0_fill" d="M 5.21569 1.54217C 3.22876 1.54217 1.4902 3.34137 1.4902 5.39759C 1.4902 7.58233 3.22876 9.25301 5.21569 9.25301C 7.3268 9.25301 8.94118 7.58233 8.94118 5.39759C 8.94118 3.34137 7.3268 1.54217 5.21569 1.54217ZM 5.21569 0C 8.19608 0 10.5556 2.44177 10.5556 5.39759C 10.5556 8.48193 8.19608 10.9237 5.21569 10.9237C 2.35948 10.9237 0 8.48193 0 5.39759C 0 2.44177 2.35948 0 5.21569 0Z"/>
<path id="path1_fill" d="M 17.5098 17.992L 17.5098 6.04016C 17.5098 3.59839 15.5229 1.54217 13.1634 1.54217L 5.8366 1.54217C 3.47712 1.54217 1.4902 3.59839 1.4902 6.04016L 1.4902 17.992L 17.5098 17.992ZM 19 6.04016L 19 19.6627C 12.6667 19.6627 6.33333 19.6627 0 19.6627L 0 6.04016C 0 2.6988 2.60784 0 5.8366 0L 13.1634 0C 16.3922 0 19 2.6988 19 6.04016Z"/>
</defs>
</svg>
