<svg width="31" height="31" viewBox="0 0 31 31" version="1.1" xmlns="http://www.w3.org/2000/svg" xmlns:xlink="http://www.w3.org/1999/xlink">
<title>phone_icon</title>
<desc>Created using Figma</desc>
<g id="Canvas" transform="translate(1756 1309)">
<g id="phone_icon">
<use xlink:href="#path0_fill" transform="translate(-1756 -1309)" fill="#2D9CDB"/>
</g>
</g>
<defs>
<path id="path0_fill" d="M 30.2661 24.3091L 25.5296 19.5558C 25.2926 19.3242 25.0123 19.1417 24.7049 19.019C 24.3974 18.8962 24.0689 18.8355 23.738 18.8403C 23.023 18.8384 22.3361 19.1189 21.8258 19.6211L 19.5227 21.9308L 19.1514 21.725C 17.055 20.641 15.1332 19.2468 13.4507 17.5891C 11.7912 15.895 10.3954 13.9601 9.31039 11.8492L 9.12145 11.4997L 11.4278 9.18998C 11.9262 8.70314 12.2125 8.03835 12.2241 7.34066C 12.2357 6.64296 11.9717 5.96898 11.4897 5.46575L 6.74346 0.718989C 6.50703 0.486353 6.22694 0.303048 5.91941 0.179682C 5.61188 0.0563165 5.283 -0.00466124 4.95182 0.000277734C 4.23409 -0.00280279 3.54431 0.279067 3.03313 0.784326L 1.87019 1.9604C 1.84279 1.98795 1.81874 2.01865 1.79853 2.05187L 1.70406 2.20868C 1.24453 2.80639 0.871649 3.46631 0.596501 4.1688C 0.346857 4.81485 0.179403 5.48988 0.0980996 6.17793C -0.533861 11.4343 1.85065 16.2301 8.32336 22.7214C 15.9851 30.405 22.4415 30.9996 24.2364 30.9996C 24.4332 31.0019 24.63 30.9943 24.826 30.9767C 25.5147 30.8925 26.19 30.7213 26.8359 30.4671C 27.544 30.1911 28.208 29.8124 28.8067 29.3433L 29.0738 29.1342L 29.1129 29.0983L 30.2042 28.0235C 30.702 27.5383 30.988 26.8752 30.9996 26.1791C 31.0112 25.483 30.7475 24.8106 30.2661 24.3091ZM 29.5201 27.3309L 28.4516 28.3828L 28.2073 28.5756C 27.6836 28.9848 27.1031 29.315 26.4841 29.5556C 25.9167 29.7787 25.3234 29.9291 24.7185 30.0032C 24.7022 30.0032 24.5361 30.0228 24.2364 30.0228C 22.5359 30.0228 16.4183 29.4478 9.01395 22.032C 2.77905 15.776 0.475973 11.2187 1.06884 6.29227C 1.14031 5.68826 1.28695 5.0956 1.50535 4.52816C 1.74654 3.90393 2.07563 3.31756 2.48261 2.78692L 2.51518 2.74118L 2.6064 2.61377L 3.73024 1.48017C 4.05579 1.15855 4.49484 0.978911 4.95182 0.980339C 5.15466 0.975637 5.35641 1.01133 5.54541 1.08535C 5.7344 1.15937 5.90688 1.27025 6.05286 1.41157L 10.7893 6.15833C 11.0874 6.47759 11.248 6.90177 11.2364 7.33897C 11.2248 7.77617 11.042 8.1912 10.7274 8.49414L 8.14419 11.0717C 8.06833 11.1473 8.01928 11.2457 8.00457 11.3519C 7.98986 11.4582 8.0103 11.5663 8.06275 11.6597L 8.44063 12.3131C 9.56882 14.514 11.023 16.5307 12.7536 18.2947C 14.5007 20.0135 16.4961 21.4585 18.6725 22.5809L 19.3664 22.9664C 19.4605 23.0154 19.568 23.0323 19.6726 23.0146C 19.7772 22.9969 19.8733 22.9456 19.9462 22.8684L 22.5099 20.2973C 22.8375 19.9776 23.2776 19.8004 23.7347 19.804C 23.9394 19.802 24.1424 19.8409 24.332 19.9182C 24.5216 19.9956 24.6939 20.1101 24.839 20.2549L 29.5722 25.0049C 29.7197 25.153 29.8358 25.3295 29.9136 25.5237C 29.9914 25.718 30.0293 25.926 30.025 26.1352C 30.0179 26.5851 29.8355 27.0142 29.5168 27.3309L 29.5201 27.3309Z"/>
</defs>
</svg>
