<svg width="256" height="254" viewBox="0 0 256 254" version="1.1" xmlns="http://www.w3.org/2000/svg" xmlns:xlink="http://www.w3.org/1999/xlink">
<title>Speed</title>
<desc>Created using Figma</desc>
<g id="Canvas" transform="matrix(2 0 0 2 -1400 8368)">
<g id="Speed">
<g id="Ellipse 4">
<use xlink:href="#path0_fill" transform="translate(700 -4184)" fill="#EFF8FF"/>
</g>
<g id="Vector 10">
<use xlink:href="#path1_fill" transform="translate(746 -4184)" fill="#D0E6F7"/>
</g>
<g id="Vector">
<use xlink:href="#path2_stroke" transform="translate(712 -4103)" fill="#1078FF"/>
</g>
<g id="noun_554759_cc">
<g id="Group">
<g id="Vector">
<use xlink:href="#path3_fill" transform="translate(770.223 -4143.25)" fill="#FFFFFF"/>
<mask id="mask0_outline_ins">
<use xlink:href="#path3_fill" fill="white" transform="translate(770.223 -4143.25)"/>
</mask>
<g mask="url(#mask0_outline_ins)">
<use xlink:href="#path4_stroke_2x" transform="translate(770.223 -4143.25)" fill="#1078FF"/>
</g>
</g>
<g id="Vector">
<use xlink:href="#path5_fill" transform="translate(752.147 -4111)" fill="#FFFFFF"/>
<mask id="mask1_outline_ins">
<use xlink:href="#path5_fill" fill="white" transform="translate(752.147 -4111)"/>
</mask>
<g mask="url(#mask1_outline_ins)">
<use xlink:href="#path6_stroke_2x" transform="translate(752.147 -4111)" fill="#1078FF"/>
</g>
</g>
<g id="Vector">
<use xlink:href="#path7_fill" transform="translate(762.458 -4160)" fill="#FFFFFF"/>
<mask id="mask2_outline_ins">
<use xlink:href="#path7_fill" fill="white" transform="translate(762.458 -4160)"/>
</mask>
<g mask="url(#mask2_outline_ins)">
<use xlink:href="#path8_stroke_2x" transform="translate(762.458 -4160)" fill="#1078FF"/>
</g>
</g>
<g id="Vector">
<use xlink:href="#path9_fill" transform="translate(746.747 -4145.75)" fill="#FFFFFF"/>
<mask id="mask3_outline_ins">
<use xlink:href="#path9_fill" fill="white" transform="translate(746.747 -4145.75)"/>
</mask>
<g mask="url(#mask3_outline_ins)">
<use xlink:href="#path10_stroke_2x" transform="translate(746.747 -4145.75)" fill="#1078FF"/>
</g>
</g>
<g id="Vector">
<use xlink:href="#path11_fill" transform="translate(714 -4143.34)" fill="#FFFFFF"/>
<mask id="mask4_outline_ins">
<use xlink:href="#path11_fill" fill="white" transform="translate(714 -4143.34)"/>
</mask>
<g mask="url(#mask4_outline_ins)">
<use xlink:href="#path12_stroke_2x" transform="translate(714 -4143.34)" fill="#1078FF"/>
</g>
</g>
</g>
</g>
</g>
</g>
<defs>
<path id="path0_fill" d="M 127 63.5C 127 98.5701 98.5701 127 63.5 127C 28.4299 127 0 98.5701 0 63.5C 0 28.4299 28.4299 0 63.5 0C 98.5701 0 127 28.4299 127 63.5Z"/>
<path id="path1_fill" d="M 36.5 67.0117L 0 2.51171C 37.6 -7.88829 63.6667 16.5117 72 30.0117C 86.5 54.0117 84.5 90.5117 64 107.512L 36.5 67.0117Z"/>
<path id="path2_stroke" d="M -0.573462 6.18077C -1.02591 6.49748 -1.13595 7.12101 -0.819232 7.57346C -0.502517 8.02591 0.121013 8.13595 0.573462 7.81923L -0.573462 6.18077ZM 10 0L 10.5735 -0.819232C 10.2291 -1.06026 9.77086 -1.06026 9.42654 -0.819232L 10 0ZM 20 7L 19.4265 7.81923C 19.7709 8.06026 20.2291 8.06026 20.5735 7.81923L 20 7ZM 30 0L 30.5735 -0.819232C 30.2291 -1.06026 29.7709 -1.06026 29.4265 -0.819232L 30 0ZM 40 7L 39.4265 7.81923C 39.7709 8.06026 40.2291 8.06026 40.5735 7.81923L 40 7ZM 50 0L 50.5735 -0.819232C 50.2291 -1.06026 49.7709 -1.06026 49.4265 -0.819232L 50 0ZM 60 7L 59.4265 7.81923C 59.7709 8.06026 60.2291 8.06026 60.5735 7.81923L 60 7ZM 70 0L 70.5735 -0.819232C 70.2291 -1.06026 69.7709 -1.06026 69.4265 -0.819232L 70 0ZM 80 7L 79.4265 7.81923C 79.7709 8.06026 80.2291 8.06026 80.5735 7.81923L 80 7ZM 90 0L 90.5735 -0.819232C 90.2291 -1.06026 89.7709 -1.06026 89.4265 -0.819232L 90 0ZM 99.4265 7.81923C 99.879 8.13595 100.503 8.02591 100.819 7.57346C 101.136 7.12101 101.026 6.49748 100.573 6.18077L 99.4265 7.81923ZM 0.573462 7.81923L 10.5735 0.819232L 9.42654 -0.819232L -0.573462 6.18077L 0.573462 7.81923ZM 9.42654 0.819232L 19.4265 7.81923L 20.5735 6.18077L 10.5735 -0.819232L 9.42654 0.819232ZM 20.5735 7.81923L 30.5735 0.819232L 29.4265 -0.819232L 19.4265 6.18077L 20.5735 7.81923ZM 29.4265 0.819232L 39.4265 7.81923L 40.5735 6.18077L 30.5735 -0.819232L 29.4265 0.819232ZM 40.5735 7.81923L 50.5735 0.819232L 49.4265 -0.819232L 39.4265 6.18077L 40.5735 7.81923ZM 49.4265 0.819232L 59.4265 7.81923L 60.5735 6.18077L 50.5735 -0.819232L 49.4265 0.819232ZM 60.5735 7.81923L 70.5735 0.819232L 69.4265 -0.819232L 59.4265 6.18077L 60.5735 7.81923ZM 69.4265 0.819232L 79.4265 7.81923L 80.5735 6.18077L 70.5735 -0.819232L 69.4265 0.819232ZM 80.5735 7.81923L 90.5735 0.819232L 89.4265 -0.819232L 79.4265 6.18077L 80.5735 7.81923ZM 89.4265 0.819232L 99.4265 7.81923L 100.573 6.18077L 90.5735 -0.819232L 89.4265 0.819232Z"/>
<path id="path3_fill" d="M 40.831 11.697C 40.831 11.697 26.469 3.173 6.706 6.86646e-07L 1.49536e-06 24.234C 23.139 22.199 40.831 11.697 40.831 11.697Z"/>
<path id="path4_stroke_2x" d="M 40.831 11.697L 42.3623 14.2767L 46.7086 11.6968L 42.3622 9.11717L 40.831 11.697ZM 6.706 6.86646e-07L 7.18157 -2.96207L 4.53069 -3.38767L 3.81466 -0.800087L 6.706 6.86646e-07ZM 1.49536e-06 24.234L -2.89134 23.4339L -4.04453 27.6013L 0.262827 27.2225L 1.49536e-06 24.234ZM 40.831 11.697C 42.3622 9.11717 42.3615 9.1168 42.3609 9.11641C 42.3606 9.11623 42.3599 9.11581 42.3593 9.11546C 42.3585 9.11498 42.3567 9.11393 42.3551 9.11297C 42.3526 9.1115 42.3477 9.10862 42.3427 9.10568C 42.3342 9.10069 42.3192 9.09188 42.3023 9.08199C 42.2715 9.06398 42.2206 9.03445 42.1594 8.99924C 42.043 8.93238 41.8595 8.82819 41.6306 8.70119C 41.1855 8.45432 40.5041 8.08574 39.6469 7.64601C 37.9594 6.78102 35.4399 5.56587 32.3344 4.26951C 26.183 1.70589 17.3143 -1.32412 7.18157 -2.96207L 6.23043 2.96207C 15.8607 4.49713 24.0545 7.31562 30.0249 9.80724C 32.9802 11.0385 35.2864 12.1527 36.9094 12.9851C 37.7074 13.3941 38.3024 13.7162 38.7199 13.9479C 38.9224 14.0602 39.0668 14.1422 39.1704 14.2018C 39.2192 14.2298 39.2514 14.2485 39.2761 14.2629C 39.2869 14.2692 39.2928 14.2727 39.2983 14.2759C 39.3003 14.2771 39.3007 14.2773 39.3017 14.2779C 39.3018 14.278 39.3015 14.2778 39.3014 14.2778C 39.3013 14.2777 39.3009 14.2774 39.3008 14.2774C 39.3003 14.2771 39.2998 14.2768 40.831 11.697ZM 3.81466 -0.800087L -2.89134 23.4339L 2.89134 25.0341L 9.59734 0.800089L 3.81466 -0.800087ZM 0.262827 27.2225C 12.1444 26.1609 22.7677 22.914 30.1916 19.9939C 33.9373 18.5176 36.9961 17.0844 39.0534 16.0497C 40.0971 15.5243 40.9277 15.0801 41.4722 14.7804C 41.7515 14.6266 41.9748 14.5005 42.1171 14.419C 42.1917 14.3763 42.2532 14.3407 42.2908 14.3187C 42.3113 14.3068 42.3292 14.2963 42.3395 14.2902C 42.3454 14.2867 42.3512 14.2833 42.3541 14.2816C 42.3561 14.2805 42.3581 14.2792 42.3591 14.2787C 42.3597 14.2783 42.3606 14.2778 42.3609 14.2776C 42.3616 14.2771 42.3623 14.2767 40.831 11.697C 39.2997 9.11727 39.3002 9.11694 39.3007 9.11666C 39.3008 9.11662 39.3012 9.11637 39.3013 9.11628C 39.3015 9.11621 39.3016 9.1161 39.3014 9.11625C 39.3001 9.11703 39.2993 9.11747 39.2967 9.11901C 39.2898 9.12308 39.282 9.12766 39.2683 9.13565C 39.2375 9.15359 39.1968 9.17719 39.1362 9.21189C 39.0081 9.28523 38.8287 9.38668 38.579 9.52403C 38.0656 9.80668 37.3332 10.1988 36.3568 10.6898C 34.3737 11.6878 31.5633 13.0073 27.9937 14.4109C 20.7868 17.2505 10.9946 20.2721 -0.262824 21.2455L 0.262827 27.2225Z"/>
<path id="path5_fill" d="M 4.64079 -1.77002e-06L 0.14279 18.604C -0.39621 20.834 0.637792 22.999 2.45179 23.438C 4.26579 23.876 6.17379 22.422 6.71279 20.192L 10.3218 5.264L 4.64079 -1.77002e-06Z"/>
<path id="path6_stroke_2x" d="M 4.64079 -1.77002e-06L 6.67981 -2.20055L 2.92711 -5.67779L 1.72481 -0.705016L 4.64079 -1.77002e-06ZM 0.14279 18.604L -2.77319 17.899L -2.77324 17.8992L 0.14279 18.604ZM 2.45179 23.438L 1.74614 26.3538L 1.74766 26.3542L 2.45179 23.438ZM 6.71279 20.192L 3.7968 19.487L 3.79676 19.4872L 6.71279 20.192ZM 10.3218 5.264L 13.2378 5.96897L 13.6512 4.25909L 12.3608 3.06345L 10.3218 5.264ZM 1.72481 -0.705016L -2.77319 17.899L 3.05877 19.309L 7.55677 0.705013L 1.72481 -0.705016ZM -2.77324 17.8992C -3.55848 21.1479 -2.21153 25.396 1.74614 26.3538L 3.15744 20.5222C 3.27553 20.5508 3.22146 20.6079 3.12197 20.3996C 3.01923 20.1845 2.94123 19.7953 3.05882 19.3088L -2.77324 17.8992ZM 1.74766 26.3542C 5.70665 27.3101 8.84386 24.1444 9.62882 20.8968L 3.79676 19.4872C 3.67908 19.9741 3.43186 20.2848 3.24233 20.4292C 3.05887 20.5689 3.03734 20.4932 3.15592 20.5218L 1.74766 26.3542ZM 9.62878 20.897L 13.2378 5.96897L 7.4058 4.55903L 3.7968 19.487L 9.62878 20.897ZM 12.3608 3.06345L 6.67981 -2.20055L 2.60177 2.20054L 8.28277 7.46454L 12.3608 3.06345Z"/>
<path id="path7_fill" d="M 6.768 13.536C 10.5059 13.536 13.536 10.5059 13.536 6.768C 13.536 3.03014 10.5059 0 6.768 0C 3.03014 0 0 3.03014 0 6.768C 0 10.5059 3.03014 13.536 6.768 13.536Z"/>
<path id="path8_stroke_2x" d="M 10.536 6.768C 10.536 8.84901 8.84901 10.536 6.768 10.536L 6.768 16.536C 12.1627 16.536 16.536 12.1627 16.536 6.768L 10.536 6.768ZM 6.768 10.536C 4.68699 10.536 3 8.84901 3 6.768L -3 6.768C -3 12.1627 1.37328 16.536 6.768 16.536L 6.768 10.536ZM 3 6.768C 3 4.68699 4.68699 3 6.768 3L 6.768 -3C 1.37328 -3 -3 1.37328 -3 6.768L 3 6.768ZM 6.768 3C 8.84901 3 10.536 4.68699 10.536 6.768L 16.536 6.768C 16.536 1.37328 12.1627 -3 6.768 -3L 6.768 3Z"/>
<path id="path9_fill" d="M 19.8415 28.2564C 20.1225 27.7584 20.3475 27.2174 20.5035 26.6394L 25.3215 8.8584C 25.4895 8.2424 25.5695 7.6254 25.5695 7.0144C 25.5695 3.9254 23.5105 1.0944 20.3835 0.2454C 19.8365 0.0984 19.2855 0.0184013 18.7425 0.0034013C 18.2055 -0.0135987 17.6735 0.0334015 17.1565 0.138402C 16.4895 0.272402 15.8475 0.5064 15.2535 0.8214L 6.09751 4.1014C 5.85351 4.1884 5.62851 4.3024 5.41951 4.4324C 4.71451 4.7654 4.14851 5.4114 3.92451 6.2464L 0.0985111 20.5874C -0.293489 22.0514 0.519513 23.5414 1.91351 23.9134C 3.30751 24.2854 4.75351 23.4004 5.14551 21.9344L 8.30351 10.1104L 10.6655 9.2644L 6.95151 22.9654C 6.78451 23.5814 6.70551 24.1994 6.70551 24.8074C 6.70551 25.1284 6.72951 25.4494 6.77151 25.7634C 6.72751 27.1694 7.31351 28.6634 8.49251 29.8044L 18.2255 39.2164C 18.3795 39.3664 18.5405 39.5034 18.7065 39.6324L 14.1835 58.3474C 13.6435 60.5774 14.6765 62.7424 16.4905 63.1814C 18.3035 63.6194 20.2125 62.1654 20.7535 59.9354L 26.0305 38.0974C 26.0945 37.8314 26.1355 37.5684 26.1575 37.3064C 26.3845 35.7594 25.8095 34.0274 24.4835 32.7434L 19.8415 28.2564Z"/>
<path id="path10_stroke_2x" d="M 19.8415 28.2564L 17.2287 26.7821L 16.0892 28.8018L 17.7565 30.4134L 19.8415 28.2564ZM 20.5035 26.6394L 17.6079 25.8548L 17.6072 25.8577L 20.5035 26.6394ZM 25.3215 8.8584L 22.4272 8.06905L 22.4259 8.0738L 25.3215 8.8584ZM 20.3835 0.2454L 21.1696 -2.6498L 21.1621 -2.6518L 20.3835 0.2454ZM 18.7425 0.0034013L 18.6476 3.00192L 18.6597 3.00226L 18.7425 0.0034013ZM 17.1565 0.138402L 17.7474 3.07964L 17.7536 3.07838L 17.1565 0.138402ZM 15.2535 0.8214L 16.2653 3.64565L 16.4684 3.57288L 16.659 3.47179L 15.2535 0.8214ZM 6.09751 4.1014L 7.10505 6.92715L 7.10926 6.92565L 6.09751 4.1014ZM 5.41951 4.4324L 6.7008 7.14502L 6.85717 7.07116L 7.00403 6.97981L 5.41951 4.4324ZM 3.92451 6.2464L 1.02696 5.46909L 1.02589 5.47309L 3.92451 6.2464ZM 0.0985111 20.5874L 2.99643 21.3633L 2.99713 21.3607L 0.0985111 20.5874ZM 5.14551 21.9344L 8.04369 22.7094L 8.04392 22.7085L 5.14551 21.9344ZM 8.30351 10.1104L 7.29193 7.2861L 5.81101 7.81652L 5.40511 9.33628L 8.30351 10.1104ZM 10.6655 9.2644L 13.561 10.0493L 15.0647 4.5021L 9.65393 6.44009L 10.6655 9.2644ZM 6.95151 22.9654L 9.84699 23.7504L 9.84701 23.7503L 6.95151 22.9654ZM 6.77151 25.7634L 9.77004 25.8572L 9.77777 25.6104L 9.74503 25.3657L 6.77151 25.7634ZM 8.49251 29.8044L 6.40622 31.9602L 6.40705 31.961L 8.49251 29.8044ZM 18.2255 39.2164L 20.3188 37.0673L 20.311 37.0598L 18.2255 39.2164ZM 18.7065 39.6324L 21.6226 40.3371L 22.0779 38.453L 20.5473 37.2636L 18.7065 39.6324ZM 14.1835 58.3474L 17.0992 59.0535L 17.0996 59.0521L 14.1835 58.3474ZM 16.4905 63.1814L 15.7849 66.0972L 15.786 66.0975L 16.4905 63.1814ZM 20.7535 59.9354L 23.6689 60.6427L 23.6696 60.6401L 20.7535 59.9354ZM 26.0305 38.0974L 28.9466 38.802L 28.9473 38.7992L 26.0305 38.0974ZM 26.1575 37.3064L 23.1893 36.8709L 23.1758 36.9628L 23.168 37.0554L 26.1575 37.3064ZM 24.4835 32.7434L 26.5704 30.5882L 26.5685 30.5864L 24.4835 32.7434ZM 22.4543 29.7307C 22.8187 29.0739 23.1867 28.1863 23.3999 27.4211L 17.6072 25.8577C 17.5083 26.2485 17.4263 26.4429 17.2287 26.7821L 22.4543 29.7307ZM 23.3991 27.424L 28.2171 9.643L 22.4259 8.0738L 17.6079 25.8548L 23.3991 27.424ZM 28.2158 9.64775C 28.4311 8.83134 28.5633 7.81868 28.5695 7.0144L 22.5695 7.0144C 22.5757 7.43212 22.5479 7.65346 22.4272 8.06905L 28.2158 9.64775ZM 28.5695 7.0144C 28.5695 2.60337 25.6341 -1.43764 21.1696 -2.64979L 19.5975 3.14059C 21.3869 3.62644 22.5695 5.24743 22.5695 7.0144L 28.5695 7.0144ZM 21.1621 -2.6518C 20.4424 -2.83978 19.5429 -2.97054 18.8254 -2.99545L 18.6597 3.00226C 19.0281 3.00734 19.2306 3.03658 19.6049 3.1426L 21.1621 -2.6518ZM 18.8374 -2.9951C 18.1208 -3.0124 17.2423 -2.93544 16.5594 -2.80158L 17.7536 3.07838C 18.1047 3.00225 18.2902 2.98521 18.6476 3.0019L 18.8374 -2.9951ZM 16.5656 -2.80283C 15.6781 -2.61578 14.6282 -2.23463 13.848 -1.82899L 16.659 3.47179C 17.0668 3.24743 17.3009 3.16058 17.7474 3.07963L 16.5656 -2.80283ZM 14.2418 -2.00285L 5.08577 1.27715L 7.10926 6.92565L 16.2653 3.64565L 14.2418 -2.00285ZM 5.08997 1.27565C 4.66942 1.43197 4.1569 1.68814 3.835 1.88499L 7.00403 6.97981C 7.061 6.94438 7.09334 6.93133 7.10505 6.92715L 5.08997 1.27565ZM 4.13823 1.71978C 2.64262 2.42622 1.48109 3.77625 1.02696 5.46909L 6.82206 7.02371C 6.81593 7.04655 6.78641 7.10458 6.7008 7.14502L 4.13823 1.71978ZM 1.02589 5.47309L -2.80011 19.8141L 2.99713 21.3607L 6.82313 7.01972L 1.02589 5.47309ZM -2.7994 19.8115C -3.58364 22.7403 -1.98902 25.977 1.14001 26.812L 2.68702 21.0148C 2.83875 21.0553 2.93255 21.1548 2.9697 21.2229C 3.00514 21.2878 3.00245 21.3408 2.99643 21.3633L -2.7994 19.8115ZM 1.14001 26.812C 4.26913 27.647 7.26081 25.6372 8.04369 22.7094L 2.24733 21.1594C 2.25243 21.1404 2.27512 21.0936 2.33883 21.0546C 2.40564 21.0137 2.53655 20.9747 2.68702 21.0148L 1.14001 26.812ZM 8.04392 22.7085L 11.2019 10.8845L 5.40511 9.33628L 2.24711 21.1603L 8.04392 22.7085ZM 9.3151 12.9347L 11.6771 12.0887L 9.65393 6.44009L 7.29193 7.2861L 9.3151 12.9347ZM 7.77001 8.4795L 4.05601 22.1805L 9.84701 23.7503L 13.561 10.0493L 7.77001 8.4795ZM 4.05603 22.1804C 3.84192 22.9973 3.71157 24.0088 3.70551 24.8074L 9.70551 24.8074C 9.69945 24.39 9.72711 24.1655 9.84699 23.7504L 4.05603 22.1804ZM 3.70551 24.8074C 3.7076 25.2403 3.74566 25.7602 3.79799 26.1611L 9.74503 25.3657C 9.71337 25.1386 9.70343 25.0165 9.70551 24.8074L 3.70551 24.8074ZM 3.77298 25.6696C 3.70123 27.9622 4.65047 30.261 6.40622 31.9602L 10.5788 27.6486C 9.97655 27.0658 9.75379 26.3766 9.77004 25.8572L 3.77298 25.6696ZM 6.40705 31.961L 16.1401 41.373L 20.311 37.0598L 10.578 27.6478L 6.40705 31.961ZM 16.1323 41.3655C 16.3597 41.5846 16.6475 41.8308 16.8657 42.0012L 20.5473 37.2636C 20.4335 37.176 20.3994 37.1483 20.3187 37.0674L 16.1323 41.3655ZM 15.7905 38.9277L 11.2675 57.6427L 17.0996 59.0521L 21.6226 40.3371L 15.7905 38.9277ZM 11.2678 57.6413C 10.4812 60.8895 11.8259 65.1391 15.7849 66.0972L 17.1962 60.2656C 17.3146 60.2942 17.2609 60.3518 17.1618 60.144C 17.0593 59.9293 16.9814 59.5402 17.0992 59.0535L 11.2678 57.6413ZM 15.786 66.0975C 19.7441 67.0537 22.8816 63.888 23.6689 60.6427L 17.8381 59.2281C 17.7198 59.7156 17.4719 60.0271 17.2815 60.1721C 17.097 60.3127 17.0753 60.2364 17.195 60.2653L 15.786 66.0975ZM 23.6696 60.6401L 28.9466 38.802L 23.1144 37.3928L 17.8374 59.2308L 23.6696 60.6401ZM 28.9473 38.7992C 29.0374 38.4138 29.1142 37.9252 29.147 37.5574L 23.168 37.0554C 23.1568 37.2116 23.1516 37.249 23.1138 37.3956L 28.9473 38.7992ZM 29.1257 37.7419C 29.5027 35.1731 28.54 32.4954 26.5704 30.5882L 22.3966 34.8986C 23.0791 35.5594 23.2664 36.3457 23.1893 36.8709L 29.1257 37.7419ZM 26.5685 30.5864L 21.9265 26.0994L 17.7565 30.4134L 22.3985 34.9004L 26.5685 30.5864Z"/>
<path id="path11_fill" d="M 1.52588e-08 11.78C 1.52588e-08 11.78 12.027 18.917 29.214 22.563L 34.644 5.0354e-07C 14.612 3.11 1.52588e-08 11.78 1.52588e-08 11.78Z"/>
<path id="path12_stroke_2x" d="M 1.52588e-08 11.78L -1.53085 9.19998L -5.87885 11.7799L -1.53098 14.3599L 1.52588e-08 11.78ZM 29.214 22.563L 28.5914 25.4977L 31.4476 26.1036L 32.1307 23.2649L 29.214 22.563ZM 34.644 5.0354e-07L 37.5607 0.701938L 38.6084 -3.65142L 34.1838 -2.96449L 34.644 5.0354e-07ZM 1.52588e-08 11.78C -1.53098 14.3599 -1.53042 14.3603 -1.52982 14.3606C -1.52956 14.3608 -1.52891 14.3612 -1.52839 14.3615C -1.52769 14.3619 -1.52611 14.3628 -1.5247 14.3637C -1.52255 14.3649 -1.51831 14.3674 -1.51401 14.37C -1.50679 14.3742 -1.49388 14.3818 -1.47947 14.3902C -1.45339 14.4055 -1.41009 14.4307 -1.35825 14.4606C -1.26017 14.517 -1.10485 14.6056 -0.911667 14.7134C -0.536811 14.9226 0.0389817 15.2367 0.763555 15.6137C 2.18833 16.3545 4.32283 17.4061 6.96631 18.5557C 12.1994 20.8283 19.7876 23.6221 28.5914 25.4977L 29.8366 19.6283C 21.4534 17.8579 14.4346 15.2602 9.35744 13.0528C 6.8458 11.9624 4.89936 11.0019 3.53198 10.2906C 2.86047 9.94149 2.36238 9.66953 2.01237 9.47415C 1.84312 9.37973 1.72327 9.31137 1.63678 9.26154C 1.59633 9.23824 1.57 9.22291 1.54952 9.21093C 1.54065 9.20575 1.53605 9.20304 1.53158 9.20041C 1.53002 9.19949 1.52988 9.19941 1.5291 9.19895C 1.52905 9.19891 1.52947 9.19916 1.52949 9.19918C 1.52965 9.19927 1.53002 9.19949 1.5301 9.19954C 1.53051 9.19978 1.53098 9.20006 1.52588e-08 11.78ZM 32.1307 23.2649L 37.5607 0.701938L 31.7273 -0.701937L 26.2973 21.8611L 32.1307 23.2649ZM 34.1838 -2.96449C 23.9123 -1.35837 14.9084 1.69299 8.65967 4.28556C 5.5051 5.59651 2.94467 6.82839 1.22919 7.70623C 0.35787 8.15245 -0.334807 8.52669 -0.787375 8.77749C -1.02004 8.9065 -1.20652 9.01232 -1.32486 9.08026C -1.38712 9.11602 -1.43877 9.146 -1.47012 9.1643C -1.48732 9.17435 -1.50254 9.18328 -1.51116 9.18835C -1.51622 9.19133 -1.52115 9.19424 -1.52368 9.19574C -1.52532 9.19671 -1.52712 9.19777 -1.52794 9.19826C -1.52854 9.19861 -1.52926 9.19904 -1.52956 9.19922C -1.53023 9.19962 -1.53085 9.19998 1.52588e-08 11.78C 1.53085 14.36 1.53034 14.3603 1.5299 14.3606C 1.52982 14.3606 1.52943 14.3609 1.52927 14.361C 1.5292 14.361 1.52889 14.3612 1.52903 14.3611C 1.53005 14.3605 1.53045 14.3603 1.53249 14.3591C 1.53807 14.3558 1.54412 14.3522 1.55518 14.3458C 1.58034 14.3311 1.61319 14.312 1.66284 14.2835C 1.76832 14.2229 1.91534 14.1394 2.12134 14.0253C 2.54612 13.7898 3.15151 13.4624 3.96306 13.0472C 5.61333 12.2022 7.9579 11.0722 10.9603 9.82694C 17.0256 7.30701 25.3437 4.46838 35.1042 2.96449L 34.1838 -2.96449Z"/>
</defs>
</svg>
