<svg width="100" height="119" viewBox="0 0 100 119" version="1.1" xmlns="http://www.w3.org/2000/svg" xmlns:xlink="http://www.w3.org/1999/xlink">
<title>surf_icon</title>
<desc>Created using Figma</desc>
<g id="Canvas" transform="translate(1100 1502)">
<g id="surf_icon">
<g id="Ellipse 4">
<use xlink:href="#path0_fill" transform="translate(-1100 -1483.4)" fill="#EFF8FF"/>
</g>
<g id="Vector">
<use xlink:href="#path1_stroke" transform="translate(-1088.19 -1416.99)" fill="#1078FF"/>
</g>
<g id="Vector">
<use xlink:href="#path2_stroke" transform="translate(-1085.04 -1433.59)" fill="#1078FF"/>
</g>
<g id="Vector">
<use xlink:href="#path2_stroke" transform="translate(-1048.03 -1421.74)" fill="#1078FF"/>
</g>
<g id="Vector">
<use xlink:href="#path3_stroke" transform="translate(-1078.74 -1426.48)" fill="#1078FF"/>
</g>
<g id="Vector">
<use xlink:href="#path3_stroke" transform="translate(-1040.94 -1428.85)" fill="#1078FF"/>
</g>
<g id="Vector 9">
<use xlink:href="#path4_fill" transform="translate(-1046.85 -1498.02)" fill="#FFFFFF"/>
</g>
<g id="Vector 8">
<use xlink:href="#path5_fill" transform="translate(-1060.63 -1498.42)" fill="#CCE7FF"/>
</g>
<g id="Vector">
<use xlink:href="#path6_stroke" transform="translate(-1060.63 -1500)" fill="#1078FF"/>
</g>
<g id="Vector">
<use xlink:href="#path7_stroke" transform="translate(-1040.8 -1412.99)" fill="#1078FF"/>
</g>
<g id="Vector 6">
<use xlink:href="#path8_fill" transform="translate(-1046.85 -1414.62)" fill="#CCE7FF"/>
</g>
<g id="Vector">
<use xlink:href="#path9_stroke" transform="translate(-1048.04 -1414.99)" fill="#1078FF"/>
</g>
</g>
</g>
<defs>
<path id="path0_fill" d="M 100 50.1993C 100 77.9236 77.6142 100.399 50 100.399C 22.3858 100.399 0 77.9236 0 50.1993C 0 22.475 22.3858 0 50 0C 77.6142 0 100 22.475 100 50.1993Z"/>
<path id="path1_stroke" d="M -0.574994 4.71563C -1.02685 5.03319 -1.13572 5.65692 -0.818158 6.10878C -0.500598 6.56063 0.123138 6.6695 0.574994 6.35194L -0.574994 4.71563ZM 7.87402 0L 8.44901 -0.818158C 8.10402 -1.06061 7.64401 -1.06061 7.29902 -0.818158L 7.87402 0ZM 15.748 5.53378L 15.173 6.35194C 15.518 6.5944 15.978 6.5944 16.323 6.35194L 15.748 5.53378ZM 23.622 0L 24.197 -0.818158C 23.8521 -1.06061 23.392 -1.06061 23.0471 -0.818158L 23.622 0ZM 31.4961 5.53378L 30.9211 6.35194C 31.2661 6.5944 31.7261 6.5944 32.0711 6.35194L 31.4961 5.53378ZM 39.3701 0L 39.9451 -0.818158C 39.6001 -1.06061 39.1401 -1.06061 38.7951 -0.818158L 39.3701 0ZM 47.2441 5.53378L 46.6691 6.35194C 47.0141 6.5944 47.4741 6.5944 47.8191 6.35194L 47.2441 5.53378ZM 55.1181 0L 55.6931 -0.818158C 55.3481 -1.06061 54.8881 -1.06061 54.5431 -0.818158L 55.1181 0ZM 62.9921 5.53378L 62.4171 6.35194C 62.7621 6.5944 63.2221 6.5944 63.5671 6.35194L 62.9921 5.53378ZM 70.8661 0L 71.4411 -0.818158C 71.0961 -1.06061 70.6361 -1.06061 70.2911 -0.818158L 70.8661 0ZM 78.1652 6.35194C 78.617 6.6695 79.2408 6.56063 79.5583 6.10878C 79.8759 5.65692 79.767 5.03319 79.3152 4.71563L 78.1652 6.35194ZM 0.574994 6.35194L 8.44901 0.818158L 7.29902 -0.818158L -0.574994 4.71563L 0.574994 6.35194ZM 7.29902 0.818158L 15.173 6.35194L 16.323 4.71563L 8.44901 -0.818158L 7.29902 0.818158ZM 16.323 6.35194L 24.197 0.818158L 23.0471 -0.818158L 15.173 4.71563L 16.323 6.35194ZM 23.0471 0.818158L 30.9211 6.35194L 32.0711 4.71563L 24.197 -0.818158L 23.0471 0.818158ZM 32.0711 6.35194L 39.9451 0.818158L 38.7951 -0.818158L 30.9211 4.71563L 32.0711 6.35194ZM 38.7951 0.818158L 46.6691 6.35194L 47.8191 4.71563L 39.9451 -0.818158L 38.7951 0.818158ZM 47.8191 6.35194L 55.6931 0.818158L 54.5431 -0.818158L 46.6691 4.71563L 47.8191 6.35194ZM 54.5431 0.818158L 62.4171 6.35194L 63.5671 4.71563L 55.6931 -0.818158L 54.5431 0.818158ZM 63.5671 6.35194L 71.4411 0.818158L 70.2911 -0.818158L 62.4171 4.71563L 63.5671 6.35194ZM 70.2911 0.818158L 78.1652 6.35194L 79.3152 4.71563L 71.4411 -0.818158L 70.2911 0.818158Z"/>
<path id="path2_stroke" d="M -0.348424 2.01301C -0.546479 2.20544 -0.551039 2.52199 -0.358609 2.72005C -0.16618 2.9181 0.15037 2.92266 0.348424 2.73023L -0.348424 2.01301ZM 2.44094 0L 2.78937 -0.358609C 2.59534 -0.54713 2.28655 -0.54713 2.09252 -0.358609L 2.44094 0ZM 4.88189 2.37162L 4.53347 2.73023C 4.7275 2.91875 5.03628 2.91875 5.23031 2.73023L 4.88189 2.37162ZM 7.32283 0L 7.67126 -0.358609C 7.47723 -0.54713 7.16844 -0.54713 6.97441 -0.358609L 7.32283 0ZM 9.76378 2.37162L 9.41536 2.73023C 9.60939 2.91875 9.91817 2.91875 10.1122 2.73023L 9.76378 2.37162ZM 12.2047 0L 12.5531 -0.358609C 12.3591 -0.54713 12.0503 -0.54713 11.8563 -0.358609L 12.2047 0ZM 14.6457 2.37162L 14.2972 2.73023C 14.4913 2.91875 14.8001 2.91875 14.9941 2.73023L 14.6457 2.37162ZM 17.0866 0L 17.435 -0.358609C 17.241 -0.54713 16.9322 -0.54713 16.7382 -0.358609L 17.0866 0ZM 19.5276 2.37162L 19.1791 2.73023C 19.3732 2.91875 19.682 2.91875 19.876 2.73023L 19.5276 2.37162ZM 21.9685 0L 22.3169 -0.358609C 22.1229 -0.54713 21.8141 -0.54713 21.6201 -0.358609L 21.9685 0ZM 24.061 2.73023C 24.2591 2.92266 24.5756 2.9181 24.7681 2.72005C 24.9605 2.52199 24.9559 2.20544 24.7579 2.01301L 24.061 2.73023ZM 0.348424 2.73023L 2.78937 0.358609L 2.09252 -0.358609L -0.348424 2.01301L 0.348424 2.73023ZM 2.09252 0.358609L 4.53347 2.73023L 5.23031 2.01301L 2.78937 -0.358609L 2.09252 0.358609ZM 5.23031 2.73023L 7.67126 0.358609L 6.97441 -0.358609L 4.53347 2.01301L 5.23031 2.73023ZM 6.97441 0.358609L 9.41536 2.73023L 10.1122 2.01301L 7.67126 -0.358609L 6.97441 0.358609ZM 10.1122 2.73023L 12.5531 0.358609L 11.8563 -0.358609L 9.41536 2.01301L 10.1122 2.73023ZM 11.8563 0.358609L 14.2972 2.73023L 14.9941 2.01301L 12.5531 -0.358609L 11.8563 0.358609ZM 14.9941 2.73023L 17.435 0.358609L 16.7382 -0.358609L 14.2972 2.01301L 14.9941 2.73023ZM 16.7382 0.358609L 19.1791 2.73023L 19.876 2.01301L 17.435 -0.358609L 16.7382 0.358609ZM 19.876 2.73023L 22.3169 0.358609L 21.6201 -0.358609L 19.1791 2.01301L 19.876 2.73023ZM 21.6201 0.358609L 24.061 2.73023L 24.7579 2.01301L 22.3169 -0.358609L 21.6201 0.358609Z"/>
<path id="path3_stroke" d="M -0.348424 2.01301C -0.546479 2.20544 -0.551039 2.52199 -0.358609 2.72005C -0.166179 2.9181 0.15037 2.92266 0.348424 2.73023L -0.348424 2.01301ZM 2.44094 0L 2.78937 -0.358609C 2.59534 -0.54713 2.28655 -0.54713 2.09252 -0.358609L 2.44094 0ZM 4.88189 2.37162L 4.53347 2.73023C 4.7275 2.91875 5.03628 2.91875 5.23031 2.73023L 4.88189 2.37162ZM 7.32283 0L 7.67126 -0.358609C 7.47723 -0.54713 7.16844 -0.54713 6.97441 -0.358609L 7.32283 0ZM 9.76378 2.37162L 9.41535 2.73023C 9.60939 2.91875 9.91817 2.91875 10.1122 2.73023L 9.76378 2.37162ZM 12.2047 0L 12.5531 -0.358609C 12.3591 -0.54713 12.0503 -0.54713 11.8563 -0.358609L 12.2047 0ZM 14.6457 2.37162L 14.2972 2.73023C 14.4913 2.91875 14.8001 2.91875 14.9941 2.73023L 14.6457 2.37162ZM 17.0866 0L 17.435 -0.358609C 17.241 -0.54713 16.9322 -0.54713 16.7382 -0.358609L 17.0866 0ZM 19.5276 2.37162L 19.1791 2.73023C 19.3732 2.91875 19.682 2.91875 19.876 2.73023L 19.5276 2.37162ZM 21.9685 0L 22.3169 -0.358609C 22.1229 -0.54713 21.8141 -0.54713 21.6201 -0.358609L 21.9685 0ZM 24.061 2.73023C 24.2591 2.92266 24.5756 2.9181 24.7681 2.72005C 24.9605 2.52199 24.9559 2.20544 24.7579 2.01301L 24.061 2.73023ZM 0.348424 2.73023L 2.78937 0.358609L 2.09252 -0.358609L -0.348424 2.01301L 0.348424 2.73023ZM 2.09252 0.358609L 4.53347 2.73023L 5.23031 2.01301L 2.78937 -0.358609L 2.09252 0.358609ZM 5.23031 2.73023L 7.67126 0.358609L 6.97441 -0.358609L 4.53347 2.01301L 5.23031 2.73023ZM 6.97441 0.358609L 9.41535 2.73023L 10.1122 2.01301L 7.67126 -0.358609L 6.97441 0.358609ZM 10.1122 2.73023L 12.5531 0.358609L 11.8563 -0.358609L 9.41535 2.01301L 10.1122 2.73023ZM 11.8563 0.358609L 14.2972 2.73023L 14.9941 2.01301L 12.5531 -0.358609L 11.8563 0.358609ZM 14.9941 2.73023L 17.435 0.358609L 16.7382 -0.358609L 14.2972 2.01301L 14.9941 2.73023ZM 16.7382 0.358609L 19.1791 2.73023L 19.876 2.01301L 17.435 -0.358609L 16.7382 0.358609ZM 19.876 2.73023L 22.3169 0.358609L 21.6201 -0.358609L 19.1791 2.01301L 19.876 2.73023ZM 21.6201 0.358609L 24.061 2.73023L 24.7579 2.01301L 22.3169 -0.358609L 21.6201 0.358609Z"/>
<path id="path4_fill" d="M 0 100.794L 0 0C 1.1811 0 9.44882 16.2061 9.44882 52.5709C 9.44882 81.6628 3.14961 96.8412 0 100.794Z"/>
<path id="path5_fill" d="M 11.0236 102.77L 11.0236 0C 8.79844 3.23686 3.01306 7.68754 0.342872 46.1252C -1.79328 76.8754 6.57331 96.7012 11.0236 102.77Z"/>
<path id="path6_stroke" d="M 12.5883 85.0141L 12.3508 83.1255C 11.3988 83.2452 10.6848 84.0547 10.6848 85.0141L 12.5883 85.0141ZM 21.5071 87.0095L 20.5489 88.6543C 21.0767 88.9618 21.72 88.9973 22.2785 88.7498C 22.8369 88.5023 23.2427 88.0018 23.3693 87.4042L 21.5071 87.0095ZM 12.3292 104.351L 12.3292 106.255C 13.3805 106.255 14.2327 105.403 14.2327 104.351L 12.3292 104.351ZM 14.2327 1.77368C 14.2327 0.722376 13.3805 -0.129873 12.3292 -0.129873C 11.2779 -0.129873 10.4256 0.722376 10.4256 1.77368L 14.2327 1.77368ZM 12.3292 104.351L 10.4256 104.351C 10.4256 105.403 11.2779 106.255 12.3292 106.255L 12.3292 104.351ZM 19.8299 93.576L 21.6491 94.1361C 21.9583 93.1321 21.3955 92.0674 20.3918 91.7573L 19.8299 93.576ZM 12.5883 92.545L 10.6848 92.545C 10.6848 93.5957 11.5361 94.4477 12.5868 94.4486L 12.5883 92.545ZM 12.5883 85.0141C 12.8258 86.9028 12.8252 86.9029 12.8246 86.903C 12.8244 86.903 12.8239 86.9031 12.8235 86.9031C 12.8238 86.9031 12.8211 86.9034 12.8216 86.9033C 12.8219 86.9033 12.8184 86.9037 12.819 86.9037C 12.8185 86.9037 12.8176 86.9038 12.8185 86.9037C 12.8237 86.9031 12.8261 86.9028 12.8361 86.9018C 12.863 86.899 12.8913 86.8963 12.9423 86.8923C 13.0585 86.8829 13.2022 86.8737 13.4141 86.8683C 13.8686 86.8557 14.4447 86.8615 15.1965 86.9434C 16.7683 87.1072 18.6117 87.4998 20.5489 88.6543L 22.4653 85.3647C 20.0019 83.9556 17.386 83.3506 15.5986 83.1576C 14.6706 83.0611 13.8422 83.0487 13.312 83.0626C 13.0316 83.0704 12.7878 83.0855 12.6398 83.0972C 12.5587 83.1037 12.4856 83.1107 12.4442 83.1149C 12.42 83.1175 12.3965 83.1201 12.3843 83.1215C 12.3765 83.1224 12.3681 83.1234 12.3642 83.1238C 12.3614 83.1242 12.358 83.1246 12.3567 83.1247C 12.3555 83.1249 12.3541 83.1251 12.3535 83.1251C 12.353 83.1252 12.3523 83.1253 12.3521 83.1253C 12.3514 83.1254 12.3508 83.1255 12.5883 85.0141ZM 23.3693 87.4042C 25.3462 78.062 26.5596 65.657 26.5619 52.1745L 22.7548 52.1745C 22.7571 65.4715 21.5836 77.4812 19.6449 86.6149L 23.3693 87.4042ZM 26.5619 52.1745C 26.5593 37.6667 25.1548 24.4037 22.8996 14.8438C 21.7591 10.0286 20.3396 5.96057 18.7899 3.17174C 17.2806 0.470224 15.1729 -1.90355 12.3292 -1.90355L 12.3292 1.90355C 12.8898 1.90355 14.0255 2.44971 15.4663 5.02857C 16.8666 7.5201 18.1038 11.0929 19.1946 15.7194C 21.4018 25.043 22.7574 37.8672 22.7548 52.1745L 26.5619 52.1745ZM 12.3292 -1.90355C 9.48541 -1.90355 7.37775 0.470224 5.86846 3.17174C 4.31872 5.96057 2.89921 10.0286 1.75874 14.8438C -0.496439 24.4037 -1.90091 37.6667 -1.90355 52.1745L 1.90355 52.1745C 1.90091 37.8672 3.25659 25.043 5.46379 15.7194C 6.55451 11.0929 7.79174 7.5201 9.19204 5.02857C 10.6328 2.44971 11.7685 1.90355 12.3292 1.90355L 12.3292 -1.90355ZM -1.90355 52.1745C -1.90091 66.6829 -0.496138 79.9465 1.75918 89.5068C 2.89973 94.3222 4.31926 98.3904 5.86893 101.179C 7.37807 103.881 9.48556 106.255 12.3292 106.255L 12.3292 102.448C 11.769 102.448 10.6334 101.902 9.19258 99.3226C 7.79231 96.8309 6.55503 93.2579 5.46424 88.6312C 3.25689 79.3071 1.9009 66.4823 1.90355 52.1745L -1.90355 52.1745ZM 14.2327 104.351L 14.2327 1.77368L 10.4256 1.77368L 10.4256 104.351L 14.2327 104.351ZM 10.4256 1.77368L 10.4256 104.351L 14.2327 104.351L 14.2327 1.77368L 10.4256 1.77368ZM 12.3292 106.255C 14.7085 106.255 16.5611 104.575 17.9303 102.569C 19.2873 100.566 20.5758 97.6127 21.6491 94.1361L 18.0106 93.0159C 17.0049 96.2924 15.9541 98.7266 14.7859 100.423C 13.63 102.116 12.7718 102.448 12.3292 102.448L 12.3292 106.255ZM 20.3918 91.7573C 17.2703 90.8084 14.1965 90.6433 12.5898 90.6415L 12.5868 94.4486C 14.1017 94.4492 16.6099 94.5578 19.2679 95.3947L 20.3918 91.7573ZM 14.4919 92.545L 14.4919 85.0141L 10.6848 85.0141L 10.6848 92.545L 14.4919 92.545Z"/>
<path id="path7_stroke" d="M 0.562254 4.74786C -0.442141 4.43734 -1.50809 4.99983 -1.81862 6.00423C -2.12915 7.00862 -1.56665 8.07457 -0.562258 8.3851L 0.562254 4.74786ZM 6.28227 10.2229L 4.92264 11.5551L 4.9237 11.5562L 6.28227 10.2229ZM 7.01094 5.50155L 5.35287 6.43659L 5.35334 6.43743L 7.01094 5.50155ZM 2.63636 -1.64427C 1.72825 -2.17397 0.562681 -1.86721 0.0329841 -0.9591C -0.496713 -0.0509945 -0.189953 1.11458 0.718153 1.64427L 2.63636 -1.64427ZM -0.562258 8.3851C 1.49937 9.01602 3.35064 9.91289 4.92264 11.5551L 7.64189 8.89061C 5.58836 6.83285 2.91308 5.48113 0.562254 4.74786L -0.562258 8.3851ZM 4.9237 11.5562C 5.51736 12.1575 6.12532 12.6568 6.57463 12.9282C 6.99468 13.1754 8.03089 13.689 9.12468 13.1191C 10.2057 12.5559 10.3668 11.4383 10.4026 11.0545C 10.4367 10.6105 10.3919 10.0082 10.3132 9.53305C 10.1567 8.62913 9.83132 7.51862 9.53098 6.65197C 9.24215 5.82008 8.90619 4.9866 8.66854 4.56568L 5.35334 6.43743C 5.31817 6.37856 5.44671 6.62636 5.55805 6.89897C 5.67513 7.18408 5.80049 7.51414 5.93447 7.90064C 6.20667 8.68307 6.44779 9.48821 6.55949 10.1685C 6.61486 10.4855 6.59454 10.8078 6.61208 10.7001C 6.6123 10.6884 6.62514 10.6235 6.62372 10.6356C 6.63302 10.5958 6.65282 10.5247 6.69389 10.435C 6.77792 10.2514 6.97465 9.94648 7.3655 9.74283C 8.14898 9.33461 8.72726 9.77758 8.50521 9.64694C 8.39784 9.58377 8.12212 9.37992 7.64083 8.88953L 4.9237 11.5562ZM 8.66902 4.56651C 7.0034 1.66308 4.73283 -0.409592 2.63636 -1.64427L 0.718153 1.64427C 2.48495 2.66304 4.0301 4.0408 5.35287 6.43659L 8.66902 4.56651Z"/>
<path id="path8_fill" d="M 0 5.53378L 0 0C 1.83727 0.39527 6.37795 1.73919 9.84252 3.9527C 14.1732 6.71959 15.3543 15.4155 13.3858 11.4628C 11.811 8.30068 3.80577 5.53378 0 5.53378Z"/>
<path id="path9_stroke" d="M 1.90355 -1.18313e-06C 1.90355 -1.0513 1.0513 -1.90355 -7.01904e-07 -1.90355C -1.0513 -1.90355 -1.90355 -1.0513 -1.90355 -1.18313e-06L 1.90355 -1.18313e-06ZM -1.90355 7.53207C -1.90355 8.58337 -1.0513 9.43562 -7.01904e-07 9.43562C 1.0513 9.43562 1.90355 8.58337 1.90355 7.53207L -1.90355 7.53207ZM -1.90355 -1.18313e-06L -1.90355 7.53207L 1.90355 7.53207L 1.90355 -1.18313e-06L -1.90355 -1.18313e-06Z"/>
</defs>
</svg>
