<svg width="35" height="54" viewBox="0 0 35 54" version="1.1" xmlns="http://www.w3.org/2000/svg" xmlns:xlink="http://www.w3.org/1999/xlink">
<title>train</title>
<desc>Created using Figma</desc>
<g id="Canvas" transform="translate(1793 747)">
<g id="train">
<use xlink:href="#path0_fill" transform="translate(-1792.81 -746.43)" fill="#FFFFFF"/>
</g>
</g>
<defs>
<path id="path0_fill" d="M 9.10995 4.22592C 10.0556 3.15455 11.2808 2.49793 12.6139 2.32142L 13.4625 3.96807C 13.47 3.96661 13.4768 3.96516 13.4842 3.96371C 13.9768 3.89325 14.9713 3.86928 15.824 3.86129C 15.8159 3.84459 15.8125 3.82715 15.8037 3.81045L 15.0086 2.26767L 19.121 2.26767L 18.326 3.81045C 18.3171 3.82643 18.3137 3.84386 18.3063 3.86129C 19.1583 3.86856 20.1536 3.89253 20.6447 3.96371C 20.6528 3.96443 20.6596 3.96661 20.6671 3.96807L 21.5158 2.32142C 22.8495 2.49793 24.074 3.15455 25.0204 4.22592C 25.2286 4.46126 25.5095 4.57966 25.791 4.57966C 26.0522 4.57966 26.3141 4.47651 26.5196 4.26878C 26.9443 3.83805 26.9633 3.12041 26.561 2.66426C 25.1052 1.01762 23.1622 0.0893411 21.0687 0.0145267C 21.0077 0.00508411 20.9466 0.0029051 20.8862 0.0043578C 20.855 0.0043578 20.8265 0 20.796 0L 13.3336 0C 13.3045 0 13.2767 0.0043578 13.2468 0.0043578C 13.1851 0.00217874 13.1233 0.00435776 13.0623 0.0145267C 10.9688 0.0900674 9.02651 1.01762 7.57067 2.66426C 7.16906 3.12041 7.18738 3.83805 7.61205 4.26878C 8.03537 4.70023 8.70766 4.68062 9.10995 4.22592ZM 23.1256 46.7662L 24.399 48.0483L 9.73068 48.0483L 11.0542 46.7662L 7.70567 46.7662L 0.575058 53.1683L 4.38764 53.1683L 6.55444 51.0917L 27.5745 51.0917L 29.7413 53.1683L 33.5532 53.1683L 26.424 46.767L 23.1256 46.7662ZM 8.55231 44.9918L 25.5773 44.9918C 34.4385 44.9918 34.4969 34.9202 33.9297 28.7796C 33.655 25.7921 33.2846 22.8118 33.0675 19.8178C 32.5404 12.555 27.141 6.43694 20.391 5.47016C 19.6597 5.36484 17.7317 5.3692 17.0655 5.37356C 16.398 5.36848 14.4693 5.36484 13.7393 5.47016C 6.98929 6.43694 1.58994 12.555 1.06282 19.8178C 0.845059 22.8118 0.475333 25.7921 0.199905 28.7796C -0.367234 34.9202 -0.30957 44.9918 8.55231 44.9918ZM 26.732 38.8577C 25.2334 38.8577 24.0184 37.5568 24.0184 35.9523C 24.0184 34.3478 25.2334 33.0469 26.732 33.0469C 28.2305 33.0469 29.4455 34.3478 29.4455 35.9523C 29.4455 37.5575 28.2305 38.8577 26.732 38.8577ZM 13.6552 8.30294L 20.4738 8.30294C 21.2091 8.30294 21.8054 8.94213 21.8054 9.73023C 21.8054 10.519 21.2091 11.1575 20.4738 11.1575L 13.6552 11.1575C 12.9198 11.1575 12.3228 10.519 12.3228 9.73023C 12.3228 8.94213 12.9198 8.30294 13.6552 8.30294ZM 4.96427 18.2155C 5.19832 15.719 7.15685 13.821 9.49596 13.7448C 9.49935 13.7448 9.50206 13.747 9.50545 13.747L 9.50545 13.7441L 24.6242 13.7441L 24.6242 13.747C 24.6276 13.747 24.631 13.7455 24.6344 13.7448C 26.9728 13.821 28.932 15.7197 29.1667 18.2155C 29.3071 19.7139 29.3085 21.2531 29.1572 22.7494C 28.9069 25.2255 26.869 27.1213 24.538 27.1663L 24.538 27.1678L 9.59161 27.1678L 9.59161 27.1663C 7.26065 27.1206 5.22274 25.2248 4.97242 22.7494C 4.82113 21.2531 4.82249 19.7139 4.96427 18.2155ZM 7.39768 33.0469C 8.89558 33.0469 10.1113 34.3478 10.1113 35.9523C 10.1113 37.5568 8.89558 38.8577 7.39768 38.8577C 5.89978 38.8577 4.6841 37.5568 4.6841 35.9523C 4.6841 34.3478 5.89978 33.0469 7.39768 33.0469Z"/>
</defs>
</svg>
