<svg width="32" height="21" viewBox="0 0 32 21" version="1.1" xmlns="http://www.w3.org/2000/svg" xmlns:xlink="http://www.w3.org/1999/xlink">
<title>mail_icon</title>
<desc>Created using Figma</desc>
<g id="Canvas" transform="translate(9372 -755)">
<g id="mail_icon">
<use xlink:href="#path0_fill" transform="translate(-9372 755)" fill="#FFFFFF"/>
</g>
</g>
<defs>
<path id="path0_fill" d="M 2.34146 0C 1.04429 0 0 1.04067 0 2.33333L 0 18.6667C 0 19.9593 1.04429 21 2.34146 21L 29.6585 21C 30.9557 21 32 19.9593 32 18.6667L 32 2.33333C 32 1.04067 30.9557 0 29.6585 0L 2.34146 0ZM 3.98782 3.87676C 4.24258 3.85342 4.4615 3.94776 4.62197 4.09546L 14.9024 13.5625C 15.5428 14.1527 16.4312 14.1528 17.0732 13.5625L 27.378 4.09546C 27.6782 3.81865 28.2039 3.8389 28.4817 4.13799C 28.7595 4.43709 28.7392 4.96106 28.439 5.23787L 22.6098 10.5972L 28.4268 15.75C 28.7742 16.0069 28.8318 16.5721 28.5434 16.8933C 28.255 17.2145 27.6849 17.22 27.3902 16.9046L 21.4634 11.6546L 18.1342 14.7049C 16.9227 15.8189 15.0524 15.8211 13.8415 14.7049L 10.5366 11.6546L 4.60976 16.9046C 4.31512 17.2201 3.74501 17.2146 3.45662 16.8933C 3.16823 16.5721 3.22583 16.0069 3.57315 15.75L 9.39024 10.5972L 3.56098 5.23787C 3.33296 5.04093 3.23715 4.70501 3.32718 4.41801C 3.41717 4.13105 3.68788 3.90927 3.98782 3.87676Z"/>
</defs>
</svg>
